<svg width="10" height="23" viewBox="0 0 10 23" fill="none" xmlns="http://www.w3.org/2000/svg">
<path d="M7.61595 0.361816C7.23607 0.361816 6.88786 0.48844 6.50799 0.615064L1.7596 2.76767C0.841581 3.14754 0.430054 3.84397 0.430054 4.63537C0.430054 5.77498 1.31642 6.66134 2.39272 6.66134C2.77259 6.66134 3.08915 6.56638 3.37405 6.43975L5.40003 5.55339V19.8302C5.40003 21.1914 6.15977 22.0145 7.52098 22.0145C8.88218 22.0145 9.67358 21.1914 9.67358 19.8302V2.51442C9.67358 1.34315 8.75556 0.361816 7.61595 0.361816Z" fill="#060606"/>
<path d="M7.61595 0.361816C7.23607 0.361816 6.88786 0.48844 6.50799 0.615064L1.7596 2.76767C0.841581 3.14754 0.430054 3.84397 0.430054 4.63537C0.430054 5.77498 1.31642 6.66134 2.39272 6.66134C2.77259 6.66134 3.08915 6.56638 3.37405 6.43975L5.40003 5.55339V19.8302C5.40003 21.1914 6.15977 22.0145 7.52098 22.0145C8.88218 22.0145 9.67358 21.1914 9.67358 19.8302V2.51442C9.67358 1.34315 8.75556 0.361816 7.61595 0.361816Z" fill="url(#paint0_linear)"/>
<defs>
<linearGradient id="paint0_linear" x1="6.29024" y1="-12.6127" x2="6.29024" y2="21.6346" gradientUnits="userSpaceOnUse">
<stop stop-color="white"/>
<stop offset="0.787706" stop-color="white" stop-opacity="0"/>
</linearGradient>
</defs>
</svg>
