<svg width="229" height="289" viewBox="0 0 229 289" fill="none" xmlns="http://www.w3.org/2000/svg">
<path d="M222.213 121.393H203.049V78.7405C203.049 35.3223 163.323 0 114.5 0C65.6734 0 25.9511 35.3223 25.9511 78.7405V121.393H6.78752C3.07585 121.393 0.0634766 124.072 0.0634766 127.373V283.021C0.0634766 286.321 3.07585 289 6.78752 289H222.213C225.924 289 228.937 286.321 228.937 283.021V127.373C228.937 124.069 225.931 121.393 222.213 121.393ZM99.7878 221.829C95.4104 218.188 92.9965 213.246 92.9965 207.91C92.9965 197.368 102.642 188.788 114.5 188.788C126.355 188.788 136.004 197.365 136.004 207.91C136.004 213.246 133.593 218.188 129.212 221.829C127.854 222.959 127.081 224.541 127.081 226.197V246.473C127.081 252.64 121.436 257.66 114.497 257.66C107.557 257.66 101.913 252.64 101.913 246.473V226.197C101.916 224.541 101.146 222.959 99.7878 221.829ZM114.5 42.4436C137.005 42.4436 155.315 58.725 155.315 78.7405V121.393H73.6851V78.7405C73.6851 58.728 91.9946 42.4436 114.5 42.4436Z" fill="black"/>
</svg>
