<svg width="32" height="30" viewBox="0 0 32 30" fill="none" xmlns="http://www.w3.org/2000/svg">
<path d="M11.2447 3.63525C12.7415 -0.971298 19.2585 -0.971299 20.7553 3.63525L20.9393 4.20162C21.6087 6.26174 23.5285 7.65654 25.6946 7.65654H26.2901C31.1337 7.65654 33.1476 13.8546 29.229 16.7016L28.7473 17.0517C26.9948 18.3249 26.2615 20.5817 26.9309 22.6418L27.1149 23.2082C28.6117 27.8148 23.3393 31.6454 19.4207 28.7984L18.9389 28.4483C17.1865 27.1751 14.8135 27.1751 13.0611 28.4483L12.5793 28.7984C8.66072 31.6454 3.38832 27.8148 4.88508 23.2082L5.06911 22.6418C5.73848 20.5817 5.00519 18.3249 3.25275 17.0517L2.77097 16.7016C-1.1476 13.8546 0.866275 7.65654 5.70989 7.65654H6.30541C8.47154 7.65654 10.3913 6.26174 11.0607 4.20162L11.2447 3.63525Z" fill="url(#paint0_linear)"/>
<defs>
<linearGradient id="paint0_linear" x1="-9.63573" y1="10.4734" x2="70.1867" y2="44.8865" gradientUnits="userSpaceOnUse">
<stop stop-color="#FFDD00"/>
<stop offset="1" stop-color="#E30613"/>
</linearGradient>
</defs>
</svg>
