<svg width="89" height="88" viewBox="0 0 89 88" fill="none" xmlns="http://www.w3.org/2000/svg">
<path fill-rule="evenodd" clip-rule="evenodd" d="M81.0748 21.2106L80.9684 21.197L80.8829 21.1319L68.9005 11.9086L64.6043 14.1346L64.4946 14.1921L64.372 14.1785L52.5687 12.9195L52.5816 12.8438L44.7084 9.00773L44.6439 8.97746L44.5955 8.92451L37.3561 1.26443L27.9589 0.424561L25.1818 6.86799L31.818 15.1001L31.8874 15.1879L31.8938 15.2998L32.2873 21.1803L32.3051 21.4391L32.047 21.539L21.1258 25.8548V29.3065L24.1238 31.7671L24.3964 31.9865L20.9662 36.2932L20.9581 36.2645L17.9746 39.409L13.9477 49.1407L13.9203 49.2088L13.8703 49.2587L10.4804 52.6636L8.29838 58.0159L8.27097 58.0795L8.22259 58.134L4.53756 61.9322L4.41179 62.0654L4.21987 62.0563L1.07026 61.8535L0.958984 69.1459L4.48436 69.0445L4.88753 69.0309V74.8236L12.6172 75.152L12.9639 75.1687L12.9914 75.491L13.3381 79.604L16.6216 80.3485L16.8602 80.403L16.9118 80.6255L17.4021 82.7031L17.4102 82.7259L17.8875 85.6328L19.0229 87.0886L21.9628 86.3713L28.4685 79.15L28.5668 79.035L28.7265 79.0214L36.0949 78.2966L40.7669 71.3507L41.0475 70.9391L41.391 71.3008L44.7487 74.8025L47.7145 73.0002L48.874 68.1078L48.9401 67.8324L49.2368 67.8203L57.4165 67.4541L59.621 64.871L60.2064 59.5625L60.2193 59.4475L60.3 59.3612L63.9044 55.4434L61.2434 50.6252L61.195 50.5344L61.1999 50.4376L61.3982 46.5183L61.4111 46.2928L61.6272 46.2005L70.3197 42.4945L80.391 33.2243L87.1144 24.8757L88.3723 22.1715L81.0748 21.2106Z" fill="url(#paint0_linear)"/>
<defs>
<linearGradient id="paint0_linear" x1="3.16742" y1="34.887" x2="180.85" y2="132.426" gradientUnits="userSpaceOnUse">
<stop stop-color="#FFDD00"/>
<stop offset="1" stop-color="#F48708"/>
</linearGradient>
</defs>
</svg>
