<svg width="143" height="230" viewBox="0 0 143 230" fill="none" xmlns="http://www.w3.org/2000/svg">
<path fill-rule="evenodd" clip-rule="evenodd" d="M142.547 229.872L140.862 210.118L138.548 201.031L131.598 194.513L132.229 184.834L135.806 182.068L123.809 169.031L124.022 159.946L129.073 154.81L127.809 149.675L117.703 146.909L107.389 129.725L109.917 128.143L113.075 132.291L118.124 129.328L110.338 122.416L106.126 124.589L99.404 120.494L99.2912 120.613L95.8142 112.934H88.8651L88.0233 117.476L83.6012 117.081L69.2885 90.2182L70.1319 81.7243L75.8151 80.5394L71.6043 64.738L80.6581 71.4539L80.866 52.4898L88.0233 45.5772L98.7573 45.3805L92.6565 31.3542L89.7391 1.14359L82.7901 3.11989L82.6368 3.16378L82.4966 3.09266L77.3246 0.539795L68.3838 24.6308L68.287 24.885L68.0032 24.8759L56.6305 24.6035L46.1301 27.6134L45.7769 27.7163L45.6495 27.3864L42.2306 18.5626L28.0727 19.3601L25.536 23.5882L25.4504 23.7289L25.2811 23.7682L15.5226 25.9216L13.8326 30.6808L13.7552 30.9047L13.5019 30.9289L8.19295 31.454L6.50928 36.9941L6.44963 37.1832L6.25129 37.2422L0.123047 39.0718L1.22125 44.7298L10.0218 56.7329L15.4856 57.8104L15.6936 57.8512L15.7711 58.0389L19.5061 67.2092L25.7133 66.6765L25.8843 66.6629L26.0101 66.7749L30.1515 70.3795L30.245 70.4612L30.2692 70.5807L31.4191 76.2342L37.1265 79.2592L41.0807 75.7984L30.3466 63.7499L32.8689 55.8477L43.187 52.4898L37.7103 60.1953L38.9746 66.1212L47.1849 71.4539L50.9731 71.6506L50.7634 77.18L54.342 77.973L50.9731 93.7743L54.7645 99.6987L56.0273 118.07L58.9769 129.921L62.9748 141.773L58.3415 146.514L59.8139 151.057L57.2916 154.218L63.8134 161.327L64.8681 172.586L73.8234 182.077V182.076L84.4446 193.328L142.547 229.872Z" fill="url(#paint0_linear)"/>
<defs>
<linearGradient id="paint0_linear" x1="3.7213" y1="91.735" x2="273.83" y2="272.459" gradientUnits="userSpaceOnUse">
<stop stop-color="#FFDD00"/>
<stop offset="1" stop-color="#F27B09"/>
</linearGradient>
</defs>
</svg>
