<svg width="31" height="31" viewBox="0 0 31 31" fill="none" xmlns="http://www.w3.org/2000/svg">
<path d="M12.7354 18.1448C12.5512 17.9605 12.2531 17.9605 12.0688 18.1448L5.47626 24.7374C5.29177 24.9216 5.29177 25.2196 5.47626 25.4043C5.56817 25.496 5.68888 25.5424 5.80945 25.5424C5.93029 25.5424 6.051 25.4958 6.14291 25.4043L12.7354 18.8115C12.9199 18.6275 12.9199 18.329 12.7354 18.1448Z" fill="black"/>
<path d="M11.4021 16.8105C11.2176 16.6263 10.9197 16.6263 10.7353 16.8105L4.14228 23.4032C3.95778 23.5874 3.95778 23.8855 4.14228 24.0701C4.23419 24.1617 4.35489 24.2082 4.47574 24.2082C4.59645 24.2082 4.71702 24.1616 4.8092 24.0701L11.4021 17.4779C11.5863 17.2936 11.5863 16.9952 11.4021 16.8105Z" fill="black"/>
<path d="M13.2369 19.3121L6.64403 25.9043C6.4598 26.0891 6.4598 26.387 6.64403 26.5711C6.73621 26.6633 6.85678 26.7093 6.97749 26.7093C7.09833 26.7093 7.21904 26.6631 7.31095 26.5711L13.9039 19.9794C14.0884 19.7948 14.0884 19.4968 13.9039 19.3126C13.7196 19.128 13.4209 19.128 13.2369 19.3121Z" fill="black"/>
<path d="M26.7405 6.09438C27.3069 6.09438 27.8402 5.87382 28.2385 5.47482C28.345 5.3708 28.4393 5.25131 28.5277 5.11082L30.6134 2.42846C30.7598 2.24074 30.7429 1.97402 30.5748 1.80568L28.9082 0.138104C28.7401 -0.029703 28.472 -0.0467932 28.285 0.0989445L25.6025 2.18556C25.4625 2.27371 25.3437 2.36804 25.2401 2.47247C24.8385 2.87308 24.6184 3.4057 24.6184 3.97277C24.6184 4.37849 24.7359 4.76457 24.9471 5.09938L16.7029 13.3433L14.5352 11.1757C14.4624 11.1029 14.371 11.0675 14.2765 11.052L11.4809 8.25609C12.1829 6.14874 11.6344 3.79137 10.0656 2.22297C8.95258 1.11009 7.473 0.496864 5.89895 0.496864C5.12828 0.496864 4.37712 0.644216 3.66646 0.934212C3.52032 0.993556 3.41388 1.12274 3.38212 1.2775C3.35103 1.43265 3.39961 1.59252 3.5109 1.70421L6.23188 4.42519L6.11561 6.61058L3.93022 6.72698L1.20924 4.00601C1.09755 3.89405 0.93768 3.84601 0.782657 3.87736C0.6275 3.90831 0.498717 4.01502 0.439373 4.1617C-0.460084 6.36621 0.0465671 8.87739 1.72894 10.5594C2.83806 11.669 4.31401 12.2796 5.88536 12.2796C6.52577 12.2796 7.15286 12.1716 7.75762 11.9702L10.4156 14.6284L2.89215 22.153C1.32981 23.716 1.32981 26.2591 2.89215 27.822C3.64964 28.5786 4.65635 28.9954 5.72684 28.9954C6.79733 28.9954 7.8035 28.5786 8.56045 27.822L16.0853 20.2981L18.2957 22.509C17.6284 24.5993 18.1814 26.9217 19.7335 28.4731C20.8462 29.5861 22.3267 30.1991 23.9007 30.1991C24.6707 30.1991 25.4219 30.0518 26.1319 29.7622C26.2784 29.7028 26.3847 29.5743 26.4165 29.419C26.4473 29.2639 26.3994 29.1036 26.2876 28.9922L23.5663 26.2709L23.6829 24.0858L25.8679 23.9693L28.5891 26.6905C28.7011 26.8019 28.859 26.8504 29.0161 26.8194C29.1707 26.7882 29.2996 26.6813 29.3591 26.5344C30.2582 24.3295 29.7515 21.8183 28.0697 20.1369C26.9599 19.0267 25.4839 18.416 23.9126 18.416C23.2471 18.416 22.5965 18.5325 21.9679 18.7508C21.9573 18.7374 21.9481 18.7222 21.9362 18.7098L19.6625 16.4357C19.6463 16.3391 19.6091 16.2474 19.5391 16.1769L17.3701 14.0102L25.6142 5.7663C25.9498 5.97703 26.3357 6.09438 26.7405 6.09438ZM2.39654 9.89257C1.15864 8.65468 0.678501 6.88187 1.08665 5.21605L3.41267 7.54234C3.50754 7.63707 3.64062 7.6874 3.77116 7.68L6.58969 7.52982C6.83017 7.51717 7.0226 7.32487 7.03525 7.08426L7.18516 4.26573C7.19229 4.13223 7.14237 4.0017 7.0475 3.90737L4.72148 1.58122C5.10487 1.48769 5.49848 1.44059 5.89895 1.44059C7.22109 1.44059 8.46424 1.95572 9.39895 2.89017C10.7367 4.22751 11.1926 6.24913 10.5618 8.03835C10.5533 8.06177 10.5429 8.08465 10.533 8.10712L10.4947 8.19849C10.4943 8.20011 10.4934 8.20105 10.4929 8.20239C10.2392 8.85075 9.87101 9.41997 9.39801 9.89257C8.96254 10.3278 8.45051 10.6752 7.86729 10.9289C7.83715 10.9427 7.80606 10.9541 7.77471 10.9658L7.71119 10.9897C7.71025 10.9904 7.7093 10.9913 7.70796 10.9917C7.12582 11.2204 6.51299 11.3365 5.88563 11.3365C4.56713 11.3369 3.32789 10.8239 2.39654 9.89257ZM8.71507 11.5638C8.93724 11.4435 9.14798 11.3068 9.35172 11.1601C9.39855 11.1264 9.44362 11.0917 9.48897 11.0571C9.69029 10.9026 9.88541 10.74 10.0657 10.5598C10.2467 10.3785 10.4105 10.1815 10.5657 9.97789C10.6041 9.92675 10.641 9.87495 10.6778 9.82273C10.8041 9.64497 10.9212 9.45967 11.0274 9.2667C11.0428 9.23884 11.063 9.21448 11.0778 9.18663L13.4682 11.577L12.4405 12.6041C12.3518 12.6928 12.3023 12.8126 12.3023 12.9376C12.3023 13.0631 12.3518 13.1828 12.4405 13.2715C12.5182 13.3492 12.5781 13.4397 12.624 13.5364C12.683 13.6608 12.7167 13.7961 12.7167 13.9377C12.7167 14.0466 12.6951 14.1511 12.6599 14.2511C12.6546 14.2669 12.6519 14.2834 12.6457 14.2988C12.6447 14.3013 12.6434 14.3036 12.6421 14.3059C12.5954 14.4157 12.5283 14.5173 12.441 14.6044C12.3846 14.661 12.3195 14.7064 12.2519 14.7459C12.233 14.7568 12.2137 14.7672 12.1939 14.7766C12.138 14.8045 12.079 14.8257 12.0175 14.8423C12.0035 14.8459 11.9897 14.8521 11.9757 14.8545L8.69623 11.5756C8.70323 11.5717 8.70901 11.567 8.71507 11.5638ZM7.89366 27.1546C7.31502 27.7335 6.54529 28.0518 5.72671 28.0518C4.90772 28.0518 4.13799 27.7331 3.55881 27.1546C2.36397 25.9597 2.36397 24.0154 3.55881 22.8198L10.8168 15.5621C11.1026 15.7288 11.4355 15.818 11.7999 15.8199C11.8014 15.8199 11.8023 15.8209 11.8038 15.8209C11.8066 15.8209 11.8089 15.8209 11.8116 15.8209C11.812 15.8209 11.8132 15.8209 11.8138 15.8209C12.304 15.8104 12.7642 15.6151 13.1081 15.271C13.4647 14.9151 13.6609 14.4417 13.6609 13.9381C13.6609 13.8523 13.6551 13.7677 13.6439 13.6843C13.6109 13.4339 13.5279 13.1948 13.4001 12.9793L14.1352 12.2442L18.4695 16.5781L17.7345 17.3136C17.0244 16.8918 16.0403 17.0069 15.4428 17.6051C15.0986 17.9487 14.9033 18.4092 14.893 18.8991C14.893 18.8995 14.893 18.8995 14.893 18.9001V18.9006V18.901C14.8858 19.2583 14.9759 19.5995 15.1514 19.8975L7.89366 27.1546ZM23.9111 19.3595C25.2304 19.3595 26.4702 19.8724 27.4014 20.8041C28.6392 22.042 29.1192 23.8145 28.7114 25.4806L26.3845 23.1536C26.2905 23.0588 26.1612 23.0105 26.0262 23.016L23.2074 23.1661C22.9666 23.1785 22.7741 23.3715 22.7617 23.6118L22.6116 26.4306C22.6047 26.5641 22.6544 26.6945 22.7492 26.7889L25.0752 29.1158C24.6925 29.2084 24.2993 29.2558 23.8997 29.2558C22.5771 29.2558 21.3342 28.7405 20.3987 27.8062C19.061 26.4689 18.6051 24.4476 19.2359 22.658C19.2456 22.6314 19.2566 22.6065 19.2677 22.5812L19.3044 22.4938C19.5582 21.8435 19.9261 21.2752 20.3995 20.8033C20.8339 20.3682 21.3454 20.021 21.9216 19.7699L22.0857 19.7054C22.6696 19.4761 23.2829 19.3595 23.9111 19.3595ZM19.5996 19.8426C19.1521 20.2897 18.7828 20.8097 18.5024 21.382L15.8574 18.7359C15.8578 18.7345 15.8588 18.7332 15.8593 18.7318C15.8763 18.6545 15.9056 18.5817 15.941 18.5117C15.9488 18.4961 15.9569 18.4809 15.9659 18.4657C16.006 18.3965 16.0526 18.3302 16.11 18.2726C16.4664 17.9162 17.0873 17.9162 17.4436 18.2726C17.4842 18.3132 17.532 18.3412 17.581 18.3634C17.5865 18.3665 17.5911 18.3717 17.5961 18.3735C17.7674 18.4439 17.9714 18.4112 18.1105 18.2722L19.1374 17.2447L20.8077 18.9154C20.3643 19.1718 19.9599 19.4821 19.5996 19.8426ZM25.9084 3.13858C25.9654 3.08071 26.0349 3.02729 26.1211 2.97414C26.135 2.96512 26.1496 2.95516 26.1631 2.9448L28.5357 1.09906L29.6137 2.17803L27.7689 4.55088C27.7583 4.56406 27.7487 4.57873 27.7394 4.593C27.6868 4.67872 27.6335 4.74748 27.5745 4.80561C27.1288 5.25063 26.3532 5.25063 25.9074 4.80561C25.684 4.5829 25.562 4.28685 25.562 3.97237C25.5616 3.65788 25.684 3.36169 25.9084 3.13858Z" fill="black"/>
</svg>
