<svg width="37" height="39" viewBox="0 0 37 39" fill="none" xmlns="http://www.w3.org/2000/svg">
<path d="M1.85006 39.0001H4.93349C5.45674 38.9984 5.95457 38.762 6.30253 38.3501H21.769C22.6738 38.3504 23.5612 38.088 24.3338 37.5916L35.8911 30.1757C36.8948 29.5321 37.2798 28.1965 36.7853 27.0732C36.2908 25.9499 35.0747 25.3973 33.9603 25.7896C21.3416 30.2251 22.509 29.9001 21.6081 29.9001C22.3777 27.6486 20.4111 25.3502 18.1503 25.3502H14.9238C13.7859 25.3488 12.6822 24.9407 11.7929 24.1925C10.6851 23.2611 9.31065 22.7527 7.89358 22.7502H6.67007C6.40968 21.9739 5.7147 21.4536 4.93349 21.4502H1.85006C0.828299 21.4502 0 22.3232 0 23.4002V37.0501C0 38.1271 0.828299 39.0001 1.85006 39.0001ZM11.0233 25.2078C12.1313 26.1396 13.5063 26.648 14.9238 26.6502H18.1491C19.7851 26.6502 21.2054 28.5176 20.2279 29.9001H16.4809C15.2634 29.8988 14.073 30.2789 13.0608 30.9921L12.6088 31.3093C12.4212 31.4362 12.3131 31.6599 12.3261 31.8944C12.3391 32.1289 12.4712 32.3378 12.6716 32.4407C12.8719 32.5437 13.1094 32.5246 13.2927 32.3909C14.2004 31.6317 15.3222 31.2127 16.4809 31.2001C22.5245 31.2001 22.3024 31.256 22.9376 31.0337L34.3531 27.0226C34.8719 26.8405 35.4377 27.0978 35.6678 27.6206C35.898 28.1434 35.7191 28.765 35.2522 29.0649L23.6925 36.4814C23.113 36.8535 22.4475 37.0503 21.769 37.0501H6.78354V24.0502C8.18466 24.0502 9.51546 23.9364 11.0233 25.2078ZM1.23337 23.4002C1.23337 23.0412 1.50947 22.7502 1.85006 22.7502H4.93349C5.27407 22.7502 5.55017 23.0412 5.55017 23.4002V37.0501C5.55017 37.4091 5.27407 37.7001 4.93349 37.7001H1.85006C1.50947 37.7001 1.23337 37.4091 1.23337 37.0501V23.4002Z" fill="#1F1E1E"/>
<path d="M33.389 3.80807C29.8616 0.0900541 24.5567 -1.02221 19.9478 0.98992C15.339 3.00205 12.334 7.74233 12.334 13.0004C12.334 18.2584 15.339 22.9986 19.9478 25.0108C24.5567 27.0229 29.8616 25.9106 33.389 22.1926C38.1957 17.1115 38.1957 8.88915 33.389 3.80807ZM35.1324 16.8659L33.9934 16.368C34.2789 15.4905 34.4504 14.5763 34.5034 13.6504H35.7368C35.6808 14.747 35.4773 15.8296 35.1324 16.8659ZM32.9315 20.788L32.0601 19.8695C32.6423 19.1743 33.1338 18.4002 33.5216 17.5679L34.6619 18.0658C34.2089 19.0542 33.6264 19.9705 32.9315 20.788ZM29.478 23.531L29.0056 22.3291C29.7953 21.9203 30.5297 21.4023 31.1893 20.7886L32.0564 21.7103C31.2806 22.4415 30.4112 23.0541 29.4737 23.5303L29.478 23.531ZM17.2794 21.7103L18.1507 20.7919C18.8104 21.4055 19.5447 21.9236 20.3344 22.3324L19.862 23.5303C18.9245 23.0541 18.0552 22.4415 17.2794 21.7103ZM14.6769 18.0703L15.8172 17.5724C16.205 18.4048 16.6966 19.1788 17.2787 19.8741L16.4074 20.7925C15.7123 19.9736 15.13 19.0557 14.6776 18.0658L14.6769 18.0703ZM14.2033 9.13936L15.3423 9.63726C15.0573 10.5133 14.8857 11.4259 14.8323 12.3504H13.599C13.6549 11.2537 13.8584 10.1711 14.2033 9.13481V9.13936ZM16.4074 5.21727L17.2787 6.13572C16.6966 6.83097 16.205 7.60502 15.8172 8.43736L14.6776 7.93491C15.1303 6.94658 15.7126 6.03023 16.4074 5.21272V5.21727ZM19.8608 2.47427L20.3332 3.67612C19.5435 4.08493 18.8091 4.603 18.1495 5.21662L17.2794 4.29362C18.055 3.56135 18.9244 2.9476 19.862 2.47037L19.8608 2.47427ZM32.0564 4.29362L31.185 5.21207C30.5254 4.59845 29.791 4.08038 29.0013 3.67157L29.4737 2.47037C30.4114 2.9476 31.2808 3.56135 32.0564 4.29362ZM34.6588 7.93361L33.5185 8.43151C33.1307 7.59917 32.6392 6.82512 32.057 6.12987L32.9315 5.21272C33.6251 6.03043 34.2064 6.94678 34.6582 7.93491L34.6588 7.93361ZM24.6679 22.1003C19.8997 22.1003 16.0343 18.0261 16.0343 13.0004C16.0343 7.97457 19.8997 3.90037 24.6679 3.90037C29.4361 3.90037 33.3015 7.97457 33.3015 13.0004C33.2964 18.0239 29.434 22.095 24.6679 22.1003ZM27.8629 3.17107C27.0304 2.87018 26.1631 2.68936 25.2846 2.63352V1.33353C26.325 1.39251 27.3521 1.60698 28.3353 1.97053L27.8629 3.17107ZM24.0512 2.63352C23.1727 2.68936 22.3053 2.87018 21.4728 3.17107L21.0004 1.97053C21.9836 1.60698 23.0108 1.39251 24.0512 1.33353V2.63352ZM13.599 13.6504H14.8323C14.8853 14.5763 15.0569 15.4905 15.3423 16.368L14.2033 16.8659C13.8584 15.8296 13.6549 14.747 13.599 13.6504ZM21.4728 22.8296C22.3053 23.1305 23.1727 23.3113 24.0512 23.3672V24.6672C23.0108 24.6082 21.9836 24.3937 21.0004 24.0302L21.4728 22.8296ZM25.2846 23.3672C26.1631 23.3113 27.0304 23.1305 27.8629 22.8296L28.3353 24.0302C27.3521 24.3937 26.325 24.6082 25.2846 24.6672V23.3672ZM34.5034 12.3504C34.4504 11.4244 34.2789 10.5102 33.9934 9.63271L35.1324 9.13481C35.4773 10.1711 35.6808 11.2537 35.7368 12.3504H34.5034Z" fill="#1F1E1E"/>
<path d="M21.5839 11.7003C22.9463 11.7003 24.0507 10.5362 24.0507 9.10026C24.0507 7.66431 22.9463 6.50024 21.5839 6.50024C20.2216 6.50024 19.1172 7.66431 19.1172 9.10026C19.1172 10.5362 20.2216 11.7003 21.5839 11.7003ZM21.5839 7.80025C22.2651 7.80025 22.8173 8.38228 22.8173 9.10026C22.8173 9.81823 22.2651 10.4003 21.5839 10.4003C20.9028 10.4003 20.3506 9.81823 20.3506 9.10026C20.3506 8.38228 20.9028 7.80025 21.5839 7.80025Z" fill="#1F1E1E"/>
<path d="M27.7509 14.3003C26.3886 14.3003 25.2842 15.4644 25.2842 16.9003C25.2842 18.3363 26.3886 19.5003 27.7509 19.5003C29.1133 19.5003 30.2177 18.3363 30.2177 16.9003C30.2177 15.4644 29.1133 14.3003 27.7509 14.3003ZM27.7509 18.2003C27.0697 18.2003 26.5176 17.6183 26.5176 16.9003C26.5176 16.1823 27.0697 15.6003 27.7509 15.6003C28.4321 15.6003 28.9843 16.1823 28.9843 16.9003C28.9843 17.6183 28.4321 18.2003 27.7509 18.2003Z" fill="#1F1E1E"/>
<path d="M29.4204 7.99085C29.1796 7.7371 28.7892 7.7371 28.5484 7.99085L19.9148 17.0907C19.7545 17.2539 19.6902 17.4956 19.7467 17.7229C19.8031 17.9501 19.9715 18.1276 20.1871 18.1871C20.4027 18.2466 20.632 18.1788 20.7868 18.0098L29.4204 8.90993C29.6612 8.65611 29.6612 8.24467 29.4204 7.99085Z" fill="#1F1E1E"/>
</svg>
