<svg width="18" height="27" viewBox="0 0 18 27" fill="none" xmlns="http://www.w3.org/2000/svg">
<path d="M8.94727 26.3691C7.57617 26.3691 6.14648 26.1523 4.6582 25.7188C3.18164 25.2852 1.74609 24.5996 0.351562 23.6621V19.1445H1.30078V23.1172C2.56641 23.9141 3.84961 24.5 5.15039 24.875C6.45117 25.2383 7.7168 25.4199 8.94727 25.4199C10.4473 25.4199 11.7773 25.1855 12.9375 24.7168C14.0977 24.248 15.0059 23.5977 15.6621 22.7656C16.3301 21.9219 16.6641 20.9551 16.6641 19.8652C16.6641 18.7871 16.4062 17.8496 15.8906 17.0527C15.3867 16.2559 14.5605 15.5469 13.4121 14.9258C12.2637 14.3047 10.7168 13.7246 8.77148 13.1855C6.82617 12.6465 5.2793 12.0723 4.13086 11.4629C2.98242 10.8535 2.15625 10.127 1.65234 9.2832C1.16016 8.43945 0.914062 7.39648 0.914062 6.1543C0.914062 4.93555 1.24219 3.86914 1.89844 2.95508C2.55469 2.04102 3.47461 1.32617 4.6582 0.810547C5.85352 0.294922 7.24219 0.0371094 8.82422 0.0371094C10.4766 0.0371094 11.9648 0.283203 13.2891 0.775391C14.625 1.26758 15.791 1.92969 16.7871 2.76172V6.875H15.8379V3.28906C14.9238 2.52734 13.8691 1.95312 12.6738 1.56641C11.4785 1.17969 10.1953 0.986328 8.82422 0.986328C7.33594 0.986328 6.07031 1.22656 5.02734 1.70703C3.99609 2.17578 3.21094 2.80273 2.67188 3.58789C2.13281 4.36133 1.86328 5.20508 1.86328 6.11914C1.86328 7.08008 2.05664 7.92969 2.44336 8.66797C2.83008 9.39453 3.53906 10.0449 4.57031 10.6191C5.60156 11.1934 7.08984 11.7441 9.03516 12.2715C11.8711 13.0332 14.0098 13.9824 15.4512 15.1191C16.9043 16.2441 17.6309 17.8145 17.6309 19.8301C17.6309 21.1777 17.25 22.3438 16.4883 23.3281C15.7383 24.3008 14.707 25.0508 13.3945 25.5781C12.0938 26.1055 10.6113 26.3691 8.94727 26.3691Z" fill="black"/>
</svg>
