<svg width="37" height="37" viewBox="0 0 37 37" fill="none" xmlns="http://www.w3.org/2000/svg">
<path d="M18.4307 2.93694C18.3989 2.94272 18.3672 2.95139 18.3382 2.96006C17.9943 3.03811 17.7514 3.34741 17.7601 3.70006V8.14006C17.7572 8.406 17.896 8.65459 18.1272 8.79045C18.3585 8.92342 18.6418 8.92342 18.873 8.79045C19.1043 8.65459 19.243 8.406 19.2401 8.14006V3.70006C19.2488 3.48616 19.1621 3.28092 19.0089 3.13639C18.8528 2.98897 18.6418 2.9167 18.4307 2.93694ZM7.88575 7.28444C7.60825 7.33358 7.38567 7.53592 7.30762 7.80475C7.22957 8.07647 7.31051 8.36553 7.51575 8.55631L10.6607 11.7013C10.84 11.921 11.1261 12.0222 11.4036 11.9586C11.6782 11.895 11.895 11.6782 11.9586 11.4036C12.0222 11.1261 11.9211 10.8399 11.7014 10.6607L8.55637 7.51569C8.40317 7.35092 8.18059 7.26709 7.95512 7.28444C7.932 7.28444 7.90887 7.28444 7.88575 7.28444ZM28.8832 7.28444C28.7156 7.30756 28.5595 7.39139 28.4439 7.51569L25.2989 10.6607C25.0792 10.8399 24.978 11.1261 25.0416 11.4036C25.1052 11.6782 25.322 11.895 25.5966 11.9586C25.8741 12.0222 26.1603 11.921 26.3395 11.7013L29.4845 8.55631C29.7157 8.33662 29.7822 7.99264 29.6464 7.70358C29.5076 7.41162 29.2012 7.24397 28.8832 7.28444ZM18.4307 11.1001C18.4076 11.1058 18.3845 11.1145 18.3614 11.1232C18.3151 11.1261 18.2689 11.1347 18.2226 11.1463C18.2139 11.155 18.2082 11.1608 18.1995 11.1694C14.274 11.3371 11.1001 14.5341 11.1001 18.5001C11.1001 22.573 14.4272 25.9001 18.5001 25.9001C22.573 25.9001 25.9001 22.573 25.9001 18.5001C25.9001 14.5486 22.7522 11.3631 18.847 11.1694C18.821 11.1694 18.8036 11.1463 18.7776 11.1463C18.7025 11.1174 18.6244 11.103 18.5464 11.1001C18.5319 11.1001 18.5146 11.1001 18.5001 11.1001C18.477 11.1001 18.4539 11.1001 18.4307 11.1001ZM18.4539 12.5801C18.4683 12.5801 18.4857 12.5801 18.5001 12.5801C18.5232 12.5801 18.5464 12.5801 18.5695 12.5801C21.807 12.6176 24.4201 15.2539 24.4201 18.5001C24.4201 21.7722 21.7723 24.4201 18.5001 24.4201C15.2308 24.4201 12.5801 21.7722 12.5801 18.5001C12.5801 15.2452 15.2048 12.6061 18.4539 12.5801ZM3.492 17.7601C3.08442 17.8179 2.79825 18.1965 2.85606 18.6041C2.91387 19.0117 3.29254 19.2979 3.70012 19.2401H8.14012C8.40606 19.243 8.65465 19.1042 8.79051 18.873C8.92348 18.6417 8.92348 18.3584 8.79051 18.1272C8.65465 17.8959 8.40606 17.7572 8.14012 17.7601H3.70012C3.677 17.7601 3.65387 17.7601 3.63075 17.7601C3.60762 17.7601 3.5845 17.7601 3.56137 17.7601C3.53825 17.7601 3.51512 17.7601 3.492 17.7601ZM28.652 17.7601C28.2444 17.8179 27.9582 18.1965 28.0161 18.6041C28.0739 19.0117 28.4525 19.2979 28.8601 19.2401H33.3001C33.5661 19.243 33.8147 19.1042 33.9505 18.873C34.0835 18.6417 34.0835 18.3584 33.9505 18.1272C33.8147 17.8959 33.5661 17.7572 33.3001 17.7601H28.8601C28.837 17.7601 28.8139 17.7601 28.7907 17.7601C28.7676 17.7601 28.7445 17.7601 28.7214 17.7601C28.6982 17.7601 28.6751 17.7601 28.652 17.7601ZM11.1001 25.0676C10.9325 25.0907 10.7764 25.1745 10.6607 25.2988L7.51575 28.4438C7.29606 28.623 7.19489 28.9092 7.25848 29.1867C7.32207 29.4613 7.53887 29.6781 7.81348 29.7417C8.09098 29.8053 8.37715 29.7041 8.55637 29.4844L11.7014 26.3394C11.9211 26.1284 11.9875 25.8018 11.869 25.5214C11.7534 25.241 11.473 25.0618 11.1695 25.0676C11.1464 25.0676 11.1232 25.0676 11.1001 25.0676ZM25.6689 25.0676C25.3914 25.1167 25.1688 25.319 25.0907 25.5879C25.0127 25.8596 25.0936 26.1487 25.2989 26.3394L28.4439 29.4844C28.6231 29.7041 28.9093 29.8053 29.1868 29.7417C29.4614 29.6781 29.6782 29.4613 29.7418 29.1867C29.8054 28.9092 29.7042 28.623 29.4845 28.4438L26.3395 25.2988C26.2007 25.1514 26.01 25.0704 25.8076 25.0676C25.7845 25.0676 25.7614 25.0676 25.7382 25.0676C25.7151 25.0676 25.692 25.0676 25.6689 25.0676ZM18.4307 28.0969C18.3989 28.1027 18.3672 28.1114 18.3382 28.1201C17.9943 28.1981 17.7514 28.5074 17.7601 28.8601V33.3001C17.7572 33.566 17.896 33.8146 18.1272 33.9504C18.3585 34.0834 18.6418 34.0834 18.873 33.9504C19.1043 33.8146 19.243 33.566 19.2401 33.3001V28.8601C19.2488 28.6462 19.1621 28.4409 19.0089 28.2964C18.8528 28.149 18.6418 28.0767 18.4307 28.0969Z" fill="black"/>
</svg>
