<svg width="37" height="37" viewBox="0 0 37 37" fill="none" xmlns="http://www.w3.org/2000/svg">
<g clip-path="url(#clip0)">
<path d="M27.244 5.00465C24.6899 2.58177 21.3408 1.35015 17.8125 1.5359C14.621 1.70414 11.6208 3.08961 9.36476 5.43683C7.10957 7.78264 5.84181 10.8353 5.79439 14.0325C5.75741 16.5265 6.4428 18.9505 7.7769 21.0417C9.07401 23.0753 10.9114 24.6928 13.0904 25.7192C13.9488 26.1237 14.4821 26.9457 14.4821 27.8646V31.0242C14.4821 32.0947 15.2236 32.9946 16.2201 33.2385V33.9205C16.2201 34.8583 16.9829 35.6213 17.9206 35.6213H19.0791C20.0169 35.6213 20.7796 34.8583 20.7796 33.9205V33.2385C21.7761 32.9946 22.5177 32.0947 22.5177 31.0242V27.8651C22.5177 26.9463 23.0523 26.1234 23.913 25.7175C26.0624 24.7041 27.8823 23.1128 29.1757 21.1151C30.5044 19.0631 31.207 16.6803 31.207 14.2247C31.207 10.7035 29.7996 7.42893 27.244 5.00465ZM19.0791 34.5373H17.9206C17.5805 34.5373 17.3041 34.2607 17.3041 33.9208V33.3043H19.6959V33.9208C19.6956 34.2607 19.4193 34.5373 19.0791 34.5373ZM20.2376 32.22H16.7618C16.1024 32.22 15.5661 31.6836 15.5661 31.0242V30.987H18.4999C18.7991 30.987 19.0419 30.7442 19.0419 30.445C19.0419 30.1457 18.7991 29.903 18.4999 29.903H15.5661V28.6699H21.4337V29.903H20.8169C20.5177 29.903 20.2749 30.1457 20.2749 30.445C20.2749 30.7442 20.5177 30.987 20.8169 30.987H21.4337V31.0242C21.4337 31.6836 20.8971 32.22 20.2376 32.22ZM17.4232 27.5857L17.6457 26.4737C17.7267 26.0678 18.086 25.7734 18.4999 25.7734C18.9137 25.7734 19.2731 26.0678 19.3541 26.4737L19.5765 27.5857H17.4232ZM28.2659 20.5259C27.0823 22.3538 25.4173 23.8101 23.4509 24.7371C22.3122 25.274 21.5483 26.3721 21.4458 27.5857H20.682L20.4172 26.2612C20.2351 25.3502 19.4286 24.6894 18.4999 24.6894C17.5711 24.6894 16.7647 25.3502 16.5826 26.2612L16.3178 27.5857H15.5539C15.4517 26.3718 14.6893 25.2743 13.5522 24.7385C9.43025 22.797 6.81063 18.6007 6.87809 14.0486C6.92128 11.1269 8.08205 8.33508 10.1461 6.18772C12.2111 4.03979 14.9538 2.77204 17.8695 2.61847C18.0827 2.60718 18.2946 2.60153 18.5061 2.60153C21.4986 2.60153 24.3158 3.72109 26.4979 5.7911C28.8356 8.00875 30.1231 11.0038 30.1231 14.2247C30.1231 16.4709 29.4809 18.6499 28.2659 20.5259Z" fill="black"/>
<path d="M4.55979 14.2249C4.55979 13.9256 4.31702 13.6829 4.0178 13.6829H0.541992C0.242767 13.6829 0 13.9256 0 14.2249C0 14.5244 0.242767 14.7668 0.541992 14.7668H4.0178C4.31702 14.7668 4.55979 14.5244 4.55979 14.2249Z" fill="black"/>
<path d="M36.4582 13.6829H32.9824C32.6832 13.6829 32.4404 13.9256 32.4404 14.2249C32.4404 14.5244 32.6832 14.7668 32.9824 14.7668H36.4582C36.7575 14.7668 37.0002 14.5244 37.0002 14.2249C37.0002 13.9256 36.7575 13.6829 36.4582 13.6829Z" fill="black"/>
<path d="M34.0607 18.8346L32.4118 18.2858C32.1278 18.191 31.8207 18.3448 31.7261 18.6288C31.6316 18.9128 31.7851 19.2196 32.0694 19.3142L33.7183 19.8633C33.775 19.8822 33.8326 19.8912 33.8896 19.8912C34.1166 19.8912 34.328 19.7472 34.4037 19.5203C34.4982 19.2363 34.3447 18.9294 34.0607 18.8346Z" fill="black"/>
<path d="M4.93078 9.13537L3.28166 8.58661C2.99768 8.49176 2.69083 8.64561 2.59626 8.92959C2.5017 9.21357 2.65526 9.52041 2.93953 9.61498L4.58837 10.164C4.64511 10.1829 4.7027 10.192 4.75944 10.192C4.98668 10.192 5.19811 10.048 5.27376 9.82105C5.36833 9.53707 5.21477 9.23022 4.93078 9.13537Z" fill="black"/>
<path d="M4.58809 18.2857L2.93924 18.8345C2.65526 18.9293 2.5017 19.2362 2.59627 19.5202C2.67192 19.7471 2.88335 19.8911 3.11031 19.8911C3.16705 19.8911 3.22492 19.882 3.28166 19.8631L4.9305 19.3141C5.21448 19.2195 5.36805 18.9127 5.27376 18.6287C5.1792 18.3447 4.87207 18.1912 4.58809 18.2857Z" fill="black"/>
<path d="M32.2403 10.1921C32.2971 10.1921 32.3547 10.1831 32.4117 10.1642L34.0605 9.61512C34.3445 9.52055 34.4981 9.21371 34.4035 8.92972C34.3089 8.64574 34.0021 8.49218 33.7181 8.58674L32.0693 9.13579C31.7853 9.23036 31.6317 9.53721 31.726 9.82119C31.8017 10.0484 32.0134 10.1921 32.2403 10.1921Z" fill="black"/>
<path d="M22.0134 10.6407C22.0134 10.9399 22.2562 11.1827 22.5554 11.1827C22.8547 11.1827 23.0974 10.9399 23.0974 10.6407C23.0974 9.71227 22.5921 8.85355 21.6747 8.22264C20.9503 7.72469 20.0307 7.41727 19.0424 7.33428V6.69434C19.0424 6.39483 18.7996 6.15234 18.5004 6.15234C18.2011 6.15234 17.9584 6.39483 17.9584 6.69434V7.33428C16.9701 7.41699 16.0504 7.72469 15.326 8.22264C14.4086 8.85355 13.9033 9.71227 13.9033 10.6407C13.9033 13.0879 15.9979 13.9762 18.3316 14.7401C18.3338 14.7409 18.3358 14.7415 18.3378 14.7421C18.3386 14.7424 18.3392 14.7426 18.3398 14.7429C20.7762 15.5409 22.0134 16.2354 22.0134 17.8094C22.0134 18.9092 20.7002 19.8546 19.0424 20.0271V16.6388C19.0424 16.3395 18.7996 16.0968 18.5004 16.0968C18.2009 16.0968 17.9584 16.3395 17.9584 16.6388V20.0271C16.3005 19.8546 14.9873 18.9092 14.9873 17.8094C14.9873 17.5102 14.7445 17.2674 14.4453 17.2674C14.1458 17.2674 13.9033 17.5102 13.9033 17.8094C13.9033 18.7379 14.4086 19.5966 15.3258 20.2272C16.0504 20.7252 16.9698 21.0329 17.9584 21.1158V21.7558C17.9584 22.055 18.2009 22.2978 18.5004 22.2978C18.7996 22.2978 19.0424 22.055 19.0424 21.7558V21.1158C20.0307 21.0329 20.9503 20.7252 21.6747 20.2272C22.5921 19.5966 23.0974 18.7379 23.0974 17.8094C23.0974 15.4938 21.2213 14.5738 19.0424 13.8345V8.42307C20.7002 8.59526 22.0134 9.54092 22.0134 10.6407ZM14.9873 10.6407C14.9873 9.54092 16.3005 8.59554 17.9584 8.42307V13.467C15.9872 12.7593 14.9873 12.0553 14.9873 10.6407Z" fill="black"/>
</g>
<defs>
<clipPath id="clip0">
<rect width="37" height="37" fill="white"/>
</clipPath>
</defs>
</svg>
