<svg width="30" height="32" viewBox="0 0 30 32" fill="none" xmlns="http://www.w3.org/2000/svg">
<path fill-rule="evenodd" clip-rule="evenodd" d="M29.2814 13.9457C29.1388 13.8305 28.9519 13.786 28.773 13.8244L19.5174 15.8046L18.4793 15.5826L21.2183 10.0963C21.2228 10.0873 21.2271 10.0783 21.2311 10.0693C21.5988 9.23234 21.7852 8.34184 21.7852 7.4222C21.7852 3.79078 18.8311 0.836426 15.1997 0.836426C11.5683 0.836426 8.61391 3.79078 8.61391 7.4222C8.61391 8.34184 8.80035 9.23234 9.16825 10.0693C9.17228 10.0783 9.17631 10.0873 9.18081 10.0963L11.1357 14.0113L10.2615 13.8244C10.2535 13.8225 10.2452 13.8218 10.2369 13.8206C10.2251 13.8185 10.2134 13.8163 10.2016 13.8149C10.1907 13.8137 10.18 13.8135 10.1694 13.8128C10.1575 13.8121 10.1459 13.8111 10.1343 13.8111C10.1232 13.8111 10.1123 13.8121 10.1012 13.8125C10.0898 13.8132 10.0784 13.8137 10.0673 13.8149C10.0557 13.8163 10.0443 13.8185 10.0329 13.8203C10.0244 13.8218 10.0161 13.8225 10.0076 13.8241L0.62499 15.8319C0.34545 15.8915 0.145508 16.1389 0.145508 16.4248V21.4269C0.145508 21.7619 0.416993 22.0334 0.751967 22.0334C1.08694 22.0334 1.35843 21.7619 1.35843 21.4269V16.9152L9.5281 15.1674V28.7828L1.35843 30.5307V26.2786C1.35843 25.9436 1.08694 25.6721 0.751967 25.6721C0.416993 25.6721 0.145508 25.9436 0.145508 26.2786V31.2807C0.145508 31.4638 0.228185 31.6372 0.370561 31.7521C0.479534 31.8403 0.61433 31.8872 0.751967 31.8872C0.794135 31.8872 0.836777 31.8827 0.878945 31.8737L10.1346 29.8934L19.3904 31.8737C19.3937 31.8744 19.397 31.8748 19.4004 31.8753C19.4139 31.8779 19.4274 31.8801 19.4409 31.8817C19.447 31.8824 19.453 31.8834 19.4591 31.8841C19.4783 31.886 19.4977 31.8872 19.5174 31.8872C19.5368 31.8872 19.5562 31.886 19.5754 31.8841C19.5816 31.8834 19.5878 31.8824 19.5937 31.8817C19.6072 31.8801 19.6207 31.8779 19.6339 31.8753C19.6373 31.8746 19.6408 31.8744 19.6441 31.8737L29.0267 29.8662C29.3065 29.8062 29.5064 29.5592 29.5064 29.2732V24.2711C29.5064 23.9361 29.235 23.6647 28.9 23.6647C28.565 23.6647 28.2935 23.9361 28.2935 24.2711V28.7826L20.1239 30.5307V16.9152L28.2935 15.1674V19.4194C28.2935 19.7544 28.565 20.0259 28.9 20.0259C29.235 20.0259 29.5064 19.7544 29.5064 19.4194V14.4173C29.5064 14.2342 29.4238 14.061 29.2814 13.9457ZM9.82683 7.4222C9.82683 4.45955 12.237 2.04935 15.1997 2.04935C18.1623 2.04935 20.5725 4.45955 20.5725 7.4222C20.5725 8.16795 20.4223 8.88978 20.1265 9.56802L15.1997 19.436L10.2729 9.56802C9.97679 8.88978 9.82683 8.16795 9.82683 7.4222ZM10.741 15.1674L11.8289 15.4L14.6572 21.0645C14.7598 21.2701 14.9699 21.4001 15.1997 21.4001C15.4295 21.4001 15.6396 21.2701 15.7424 21.0645L17.9198 16.7032L18.9109 16.9152V30.5307L10.7413 28.7826V15.1674H10.741Z" fill="black"/>
<path fill-rule="evenodd" clip-rule="evenodd" d="M19.0992 7.42228C19.0992 5.27195 17.3499 3.52246 15.1996 3.52246C13.0493 3.52246 11.2998 5.27195 11.2998 7.42228C11.2998 9.57261 13.0493 11.3219 15.1996 11.3219C17.3499 11.3219 19.0992 9.57261 19.0992 7.42228ZM12.5127 7.42228C12.5127 5.94072 13.7181 4.73538 15.1996 4.73538C16.6812 4.73538 17.8865 5.94072 17.8865 7.42228C17.8865 8.9036 16.6812 10.1089 15.1996 10.1089C13.7181 10.1089 12.5127 8.9036 12.5127 7.42228Z" fill="black"/>
<path fill-rule="evenodd" clip-rule="evenodd" d="M0.751967 24.4593C1.08599 24.4593 1.35843 24.1868 1.35843 23.8528C1.35843 23.5188 1.08599 23.2463 0.751967 23.2463C0.417941 23.2463 0.145508 23.5188 0.145508 23.8528C0.145508 24.1868 0.417941 24.4593 0.751967 24.4593Z" fill="black"/>
<path fill-rule="evenodd" clip-rule="evenodd" d="M28.9004 21.2388C28.5664 21.2388 28.2939 21.5112 28.2939 21.8452C28.2939 22.1793 28.5664 22.4517 28.9004 22.4517C29.2344 22.4517 29.5069 22.1793 29.5069 21.8452C29.5069 21.5112 29.2344 21.2388 28.9004 21.2388Z" fill="black"/>
</svg>
