<svg width="92" height="38" viewBox="0 0 92 38" fill="none" xmlns="http://www.w3.org/2000/svg">
<path d="M15.1143 21.8389L0.929688 16.8828V10.0957L22.1943 19.0068V24.7441L0.929688 33.6797V26.8682L15.1143 21.8389ZM57.8389 1.08691V6.89746H57.1553C53.9652 6.94629 51.3936 7.77637 49.4404 9.3877C47.5036 10.999 46.3398 13.237 45.9492 16.1016C47.8372 14.181 50.2217 13.2207 53.1025 13.2207C56.195 13.2207 58.6527 14.3275 60.4756 16.541C62.2985 18.7546 63.21 21.668 63.21 25.2812C63.21 27.5924 62.7054 29.6839 61.6963 31.5557C60.7035 33.4274 59.2874 34.8841 57.4482 35.9258C55.6253 36.9674 53.5583 37.4883 51.2471 37.4883C47.5036 37.4883 44.4762 36.1862 42.165 33.582C39.8701 30.9779 38.7227 27.5029 38.7227 23.1572V20.6182C38.7227 16.7607 39.4469 13.359 40.8955 10.4131C42.3604 7.45085 44.4518 5.16406 47.1699 3.55273C49.9043 1.92513 53.07 1.10319 56.667 1.08691H57.8389ZM50.9541 18.8848C49.8148 18.8848 48.7812 19.1859 47.8535 19.7881C46.9258 20.374 46.2422 21.1553 45.8027 22.1318V24.2803C45.8027 26.6403 46.2666 28.4876 47.1943 29.8223C48.1221 31.1406 49.4242 31.7998 51.1006 31.7998C52.6143 31.7998 53.835 31.2057 54.7627 30.0176C55.7067 28.8132 56.1787 27.2588 56.1787 25.3545C56.1787 23.4176 55.7067 21.8551 54.7627 20.667C53.8187 19.4788 52.5492 18.8848 50.9541 18.8848ZM91.335 22.3027C91.335 27.2181 90.3177 30.9779 88.2832 33.582C86.2487 36.1862 83.2702 37.4883 79.3477 37.4883C75.474 37.4883 72.5117 36.2106 70.4609 33.6553C68.4102 31.0999 67.3604 27.4378 67.3115 22.6689V16.126C67.3115 11.1618 68.3369 7.39388 70.3877 4.82227C72.4548 2.25065 75.4251 0.964844 79.2988 0.964844C83.1725 0.964844 86.1348 2.24251 88.1855 4.79785C90.2363 7.33691 91.2861 10.9909 91.335 15.7598V22.3027ZM84.2793 15.125C84.2793 12.179 83.8724 10.0387 83.0586 8.7041C82.2611 7.35319 81.0078 6.67773 79.2988 6.67773C77.6387 6.67773 76.4098 7.32064 75.6123 8.60645C74.8311 9.87598 74.416 11.8698 74.3672 14.5879V23.2305C74.3672 26.1276 74.7578 28.2842 75.5391 29.7002C76.3366 31.0999 77.6061 31.7998 79.3477 31.7998C81.0729 31.7998 82.318 31.1243 83.083 29.7734C83.848 28.4225 84.2467 26.3555 84.2793 23.5723V15.125Z" fill="url(#paint0_linear)"/>
<defs>
<linearGradient id="paint0_linear" x1="1.56227" y1="3.87107" x2="291.046" y2="124.294" gradientUnits="userSpaceOnUse">
<stop stop-color="#FFDD00"/>
<stop offset="1" stop-color="#E30613"/>
</linearGradient>
</defs>
</svg>
