<svg width="642" height="463" viewBox="0 0 642 463" fill="none" xmlns="http://www.w3.org/2000/svg">
<path d="M54.4727 391.862H0V445.342H54.4727V391.862Z" fill="#9FAAA0"/>
<path d="M52.5271 390.89H1.94531V441.452H52.5271V390.89Z" fill="#E2E8E3"/>
<path d="M31.8568 425.895H13.6182V403.53H31.3704L43.7727 409.121V420.547L31.8568 425.895Z" fill="#060606"/>
<path d="M27.159 409.928C27.159 410.687 26.5462 411.309 25.7778 411.309C25.019 411.309 24.3965 410.697 24.3965 409.928C24.3965 409.16 25.0093 408.548 25.7778 408.548C26.5365 408.557 27.159 409.17 27.159 409.928Z" fill="#FCF9F4"/>
<path d="M27.159 418.68C27.159 419.438 26.5462 420.06 25.7778 420.06C25.019 420.06 24.3965 419.448 24.3965 418.68C24.3965 417.912 25.0093 417.299 25.7778 417.299C26.5365 417.309 27.159 417.921 27.159 418.68Z" fill="#FCF9F4"/>
<g filter="url(#filter0_d)">
<path d="M38.9092 414.712H74.9001L74.2484 306.78L124.996 276.151V380.194L135.696 380.116V360.26H143.477V356.371H164.877V361.233H170.714V321.366H221.782L242.696 326.471V373.873H261.177V356.371H276.741V364.15H287.441L286.468 328.172H290.359V314.559L299.172 314.073L298.627 263.51L306.896 275.179L307.868 319.421H318.568L317.839 246.008L332.186 257.19V377.277V390.89L340.571 384.569H362.827L371.096 393.077V404.989H375.959V397.21H396.386V323.31H404.168V262.052H412.757L411.785 217.323L426.055 138.396L443.583 216.185L444.05 262.052H449.886V323.31H456.696V399.155H468.368V412.282L473.232 408.392V400.127H480.041V355.398H489.768V314.559H495.605V305.808H517.005V314.559H520.896V353.454H525.759V368.039H531.596V364.15H535.486V369.984H550.077V396.724V449.718H596.768L596.282 49.5905L625.542 7.29272H272.85V101.126" stroke="white" stroke-width="4" stroke-miterlimit="10"/>
</g>
<path d="M278.2 5.83423H267.5V20.4197H278.2V5.83423Z" fill="white"/>
<path d="M273.336 193.014C289.131 193.014 301.935 177.886 301.935 159.224C301.935 140.563 289.131 125.435 273.336 125.435C257.542 125.435 244.738 140.563 244.738 159.224C244.738 177.886 257.542 193.014 273.336 193.014Z" fill="#FFF2B1"/>
<path d="M273.337 192.965C289.104 192.965 301.886 177.859 301.886 159.224C301.886 140.59 289.104 125.483 273.337 125.483C257.569 125.483 244.787 140.59 244.787 159.224C244.787 177.859 257.569 192.965 273.337 192.965Z" fill="#FFF2B1"/>
<path d="M273.337 192.897C289.077 192.897 301.838 177.817 301.838 159.215C301.838 140.612 289.077 125.532 273.337 125.532C257.596 125.532 244.836 140.612 244.836 159.215C244.836 177.817 257.596 192.897 273.337 192.897Z" fill="#FFF2B2"/>
<path d="M273.336 192.849C289.05 192.849 301.788 177.79 301.788 159.215C301.788 140.639 289.05 125.581 273.336 125.581C257.622 125.581 244.884 140.639 244.884 159.215C244.884 177.79 257.622 192.849 273.336 192.849Z" fill="#FFF2B2"/>
<path d="M273.336 192.78C289.018 192.78 301.73 177.748 301.73 159.205C301.73 140.661 289.018 125.629 273.336 125.629C257.655 125.629 244.942 140.661 244.942 159.205C244.942 177.748 257.655 192.78 273.336 192.78Z" fill="#FFF2B2"/>
<path d="M273.336 192.732C288.991 192.732 301.682 177.721 301.682 159.205C301.682 140.688 288.991 125.678 273.336 125.678C257.682 125.678 244.991 140.688 244.991 159.205C244.991 177.721 257.682 192.732 273.336 192.732Z" fill="#FFF2B3"/>
<path d="M273.337 192.664C288.964 192.664 301.633 177.679 301.633 159.195C301.633 140.711 288.964 125.726 273.337 125.726C257.709 125.726 245.04 140.711 245.04 159.195C245.04 177.679 257.709 192.664 273.337 192.664Z" fill="#FFF2B3"/>
<path d="M273.336 192.615C288.937 192.615 301.584 177.653 301.584 159.195C301.584 140.738 288.937 125.775 273.336 125.775C257.735 125.775 245.088 140.738 245.088 159.195C245.088 177.653 257.735 192.615 273.336 192.615Z" fill="#FFF2B3"/>
<path d="M273.336 192.547C288.905 192.547 301.526 177.611 301.526 159.185C301.526 140.76 288.905 125.824 273.336 125.824C257.767 125.824 245.146 140.76 245.146 159.185C245.146 177.611 257.767 192.547 273.336 192.547Z" fill="#FFF3B4"/>
<path d="M273.336 192.499C288.878 192.499 301.477 177.584 301.477 159.185C301.477 140.787 288.878 125.872 273.336 125.872C257.794 125.872 245.195 140.787 245.195 159.185C245.195 177.584 257.794 192.499 273.336 192.499Z" fill="#FFF3B4"/>
<path d="M273.337 192.43C288.852 192.43 301.429 177.542 301.429 159.176C301.429 140.81 288.852 125.921 273.337 125.921C257.822 125.921 245.244 140.81 245.244 159.176C245.244 177.542 257.822 192.43 273.337 192.43Z" fill="#FFF3B5"/>
<path d="M273.337 192.382C288.825 192.382 301.38 177.515 301.38 159.176C301.38 140.836 288.825 125.969 273.337 125.969C257.849 125.969 245.293 140.836 245.293 159.176C245.293 177.515 257.849 192.382 273.337 192.382Z" fill="#FFF3B5"/>
<path d="M273.336 192.314C288.792 192.314 301.321 177.473 301.321 159.166C301.321 140.859 288.792 126.018 273.336 126.018C257.88 126.018 245.351 140.859 245.351 159.166C245.351 177.473 257.88 192.314 273.336 192.314Z" fill="#FFF3B5"/>
<path d="M273.336 192.265C288.765 192.265 301.273 177.446 301.273 159.166C301.273 140.886 288.765 126.067 273.336 126.067C257.907 126.067 245.399 140.886 245.399 159.166C245.399 177.446 257.907 192.265 273.336 192.265Z" fill="#FFF3B6"/>
<path d="M273.336 192.197C288.739 192.197 301.224 177.404 301.224 159.156C301.224 140.908 288.739 126.115 273.336 126.115C257.934 126.115 245.448 140.908 245.448 159.156C245.448 177.404 257.934 192.197 273.336 192.197Z" fill="#FFF3B6"/>
<path d="M273.337 192.149C288.712 192.149 301.176 177.377 301.176 159.156C301.176 140.935 288.712 126.164 273.337 126.164C257.961 126.164 245.497 140.935 245.497 159.156C245.497 177.377 257.961 192.149 273.337 192.149Z" fill="#FFF3B6"/>
<path d="M273.337 192.08C288.68 192.08 301.118 177.335 301.118 159.147C301.118 140.958 288.68 126.213 273.337 126.213C257.994 126.213 245.556 140.958 245.556 159.147C245.556 177.335 257.994 192.08 273.337 192.08Z" fill="#FFF3B7"/>
<path d="M273.336 192.032C288.652 192.032 301.068 177.309 301.068 159.147C301.068 140.984 288.652 126.261 273.336 126.261C258.02 126.261 245.604 140.984 245.604 159.147C245.604 177.309 258.02 192.032 273.336 192.032Z" fill="#FFF3B7"/>
<path d="M273.336 191.964C288.626 191.964 301.02 177.267 301.02 159.137C301.02 141.007 288.626 126.31 273.336 126.31C258.047 126.31 245.652 141.007 245.652 159.137C245.652 177.267 258.047 191.964 273.336 191.964Z" fill="#FFF3B7"/>
<path d="M273.336 191.915C288.593 191.915 300.962 177.24 300.962 159.137C300.962 141.034 288.593 126.358 273.336 126.358C258.079 126.358 245.711 141.034 245.711 159.137C245.711 177.24 258.079 191.915 273.336 191.915Z" fill="#FFF3B8"/>
<path d="M273.337 191.857C288.567 191.857 300.913 177.203 300.913 159.127C300.913 141.051 288.567 126.397 273.337 126.397C258.106 126.397 245.76 141.051 245.76 159.127C245.76 177.203 258.106 191.857 273.337 191.857Z" fill="#FFF3B8"/>
<path d="M273.337 191.798C288.54 191.798 300.865 177.171 300.865 159.127C300.865 141.083 288.54 126.456 273.337 126.456C258.133 126.456 245.809 141.083 245.809 159.127C245.809 177.171 258.133 191.798 273.337 191.798Z" fill="#FFF3B8"/>
<path d="M273.336 191.74C288.513 191.74 300.816 177.134 300.816 159.117C300.816 141.1 288.513 126.495 273.336 126.495C258.159 126.495 245.856 141.1 245.856 159.117C245.856 177.134 258.159 191.74 273.336 191.74Z" fill="#FFF3B9"/>
<path d="M273.336 191.682C288.481 191.682 300.757 177.102 300.757 159.117C300.757 141.133 288.481 126.553 273.336 126.553C258.192 126.553 245.915 141.133 245.915 159.117C245.915 177.102 258.192 191.682 273.336 191.682Z" fill="#FFF3B9"/>
<path d="M273.336 191.623C288.454 191.623 300.709 177.066 300.709 159.108C300.709 141.15 288.454 126.592 273.336 126.592C258.219 126.592 245.964 141.15 245.964 159.108C245.964 177.066 258.219 191.623 273.336 191.623Z" fill="#FFF4B9"/>
<path d="M273.337 191.565C288.427 191.565 300.66 177.033 300.66 159.108C300.66 141.182 288.427 126.65 273.337 126.65C258.246 126.65 246.013 141.182 246.013 159.108C246.013 177.033 258.246 191.565 273.337 191.565Z" fill="#FFF4BA"/>
<path d="M273.336 191.507C288.4 191.507 300.611 176.997 300.611 159.098C300.611 141.199 288.4 126.689 273.336 126.689C258.272 126.689 246.061 141.199 246.061 159.098C246.061 176.997 258.272 191.507 273.336 191.507Z" fill="#FEF4BA"/>
<path d="M273.336 191.448C288.368 191.448 300.553 176.965 300.553 159.098C300.553 141.231 288.368 126.747 273.336 126.747C258.305 126.747 246.119 141.231 246.119 159.098C246.119 176.965 258.305 191.448 273.336 191.448Z" fill="#FEF4BB"/>
<path d="M273.336 191.39C288.341 191.39 300.505 176.928 300.505 159.088C300.505 141.248 288.341 126.786 273.336 126.786C258.332 126.786 246.168 141.248 246.168 159.088C246.168 176.928 258.332 191.39 273.336 191.39Z" fill="#FEF4BB"/>
<path d="M273.336 191.332C288.314 191.332 300.456 176.896 300.456 159.088C300.456 141.281 288.314 126.845 273.336 126.845C258.359 126.845 246.217 141.281 246.217 159.088C246.217 176.896 258.359 191.332 273.336 191.332Z" fill="#FEF4BB"/>
<path d="M273.337 191.273C288.288 191.273 300.408 176.859 300.408 159.078C300.408 141.298 288.288 126.884 273.337 126.884C258.386 126.884 246.266 141.298 246.266 159.078C246.266 176.859 258.386 191.273 273.337 191.273Z" fill="#FEF4BC"/>
<path d="M273.337 191.215C288.256 191.215 300.349 176.827 300.349 159.078C300.349 141.33 288.256 126.942 273.337 126.942C258.418 126.942 246.324 141.33 246.324 159.078C246.324 176.827 258.418 191.215 273.337 191.215Z" fill="#FEF4BC"/>
<path d="M273.336 191.157C288.228 191.157 300.3 176.79 300.3 159.069C300.3 141.347 288.228 126.981 273.336 126.981C258.444 126.981 246.372 141.347 246.372 159.069C246.372 176.79 258.444 191.157 273.336 191.157Z" fill="#FEF4BC"/>
<path d="M273.336 191.098C288.201 191.098 300.252 176.758 300.252 159.069C300.252 141.379 288.201 127.039 273.336 127.039C258.471 127.039 246.421 141.379 246.421 159.069C246.421 176.758 258.471 191.098 273.336 191.098Z" fill="#FEF4BD"/>
<path d="M273.336 191.04C258.522 191.04 246.47 176.698 246.47 159.059C246.47 141.42 258.522 127.078 273.336 127.078C288.151 127.078 300.203 141.42 300.203 159.059C300.203 176.698 288.151 191.04 273.336 191.04Z" fill="#FEF4BD"/>
<path d="M273.337 190.982C288.143 190.982 300.145 176.689 300.145 159.059C300.145 141.429 288.143 127.136 273.337 127.136C258.531 127.136 246.528 141.429 246.528 159.059C246.528 176.689 258.531 190.982 273.337 190.982Z" fill="#FEF4BD"/>
<path d="M273.336 190.923C288.115 190.923 300.096 176.653 300.096 159.049C300.096 141.446 288.115 127.175 273.336 127.175C258.557 127.175 246.576 141.446 246.576 159.049C246.576 176.653 258.557 190.923 273.336 190.923Z" fill="#FEF4BE"/>
<path d="M273.336 190.875C288.088 190.875 300.047 176.626 300.047 159.049C300.047 141.473 288.088 127.224 273.336 127.224C258.584 127.224 246.625 141.473 246.625 159.049C246.625 176.626 258.584 190.875 273.336 190.875Z" fill="#FEF4BE"/>
<path d="M273.336 190.807C288.062 190.807 299.999 176.584 299.999 159.04C299.999 141.495 288.062 127.272 273.336 127.272C258.611 127.272 246.674 141.495 246.674 159.04C246.674 176.584 258.611 190.807 273.336 190.807Z" fill="#FEF4BE"/>
<path d="M273.337 190.758C288.03 190.758 299.941 176.557 299.941 159.04C299.941 141.522 288.03 127.321 273.337 127.321C258.643 127.321 246.732 141.522 246.732 159.04C246.732 176.557 258.643 190.758 273.337 190.758Z" fill="#FEF5BF"/>
<path d="M273.337 190.69C288.003 190.69 299.892 176.515 299.892 159.03C299.892 141.544 288.003 127.37 273.337 127.37C258.671 127.37 246.781 141.544 246.781 159.03C246.781 176.515 258.671 190.69 273.337 190.69Z" fill="#FEF5BF"/>
<path d="M273.336 190.641C287.975 190.641 299.843 176.488 299.843 159.03C299.843 141.571 287.975 127.418 273.336 127.418C258.697 127.418 246.829 141.571 246.829 159.03C246.829 176.488 258.697 190.641 273.336 190.641Z" fill="#FEF5BF"/>
<path d="M273.336 190.573C287.949 190.573 299.794 176.446 299.794 159.02C299.794 141.594 287.949 127.467 273.336 127.467C258.724 127.467 246.878 141.594 246.878 159.02C246.878 176.446 258.724 190.573 273.336 190.573Z" fill="#FEF5C0"/>
<g filter="url(#filter1_d)">
<path d="M273.336 190.525C287.917 190.525 299.736 176.42 299.736 159.02C299.736 141.621 287.917 127.516 273.336 127.516C258.756 127.516 246.937 141.621 246.937 159.02C246.937 176.42 258.756 190.525 273.336 190.525Z" fill="#FEF5C0"/>
</g>
<path d="M273.337 190.457C258.804 190.457 246.985 176.357 246.985 159.01C246.985 141.663 258.804 127.564 273.337 127.564C287.869 127.564 299.688 141.663 299.688 159.01C299.688 176.357 287.869 190.457 273.337 190.457Z" fill="#FEF5C1"/>
<path d="M273.337 190.398C258.833 190.398 247.034 176.318 247.034 159.001C247.034 141.683 258.833 127.603 273.337 127.603C287.84 127.603 299.639 141.683 299.639 159.001C299.639 176.318 287.84 190.398 273.337 190.398Z" fill="#FEF5C1"/>
<path d="M273.336 190.34C258.862 190.34 247.082 176.289 247.082 159.001C247.082 141.712 258.852 127.661 273.336 127.661C287.81 127.661 299.59 141.712 299.59 159.001C299.59 176.289 287.81 190.34 273.336 190.34Z" fill="#FEF5C1"/>
<path d="M273.336 190.291C287.804 190.291 299.532 176.282 299.532 159.001C299.532 141.719 287.804 127.71 273.336 127.71C258.869 127.71 247.141 141.719 247.141 159.001C247.141 176.282 258.869 190.291 273.336 190.291Z" fill="#FEF5C2"/>
<path d="M273.336 190.223C287.777 190.223 299.483 176.24 299.483 158.991C299.483 141.742 287.777 127.759 273.336 127.759C258.896 127.759 247.189 141.742 247.189 158.991C247.189 176.24 258.896 190.223 273.336 190.223Z" fill="#FEF5C2"/>
<path d="M273.337 190.175C287.75 190.175 299.435 176.213 299.435 158.991C299.435 141.769 287.75 127.807 273.337 127.807C258.923 127.807 247.238 141.769 247.238 158.991C247.238 176.213 258.923 190.175 273.337 190.175Z" fill="#FEF5C2"/>
<path d="M273.337 190.107C287.718 190.107 299.377 176.171 299.377 158.981C299.377 141.791 287.718 127.856 273.337 127.856C258.955 127.856 247.297 141.791 247.297 158.981C247.297 176.171 258.955 190.107 273.337 190.107Z" fill="#FEF5C3"/>
<path d="M273.336 190.058C287.691 190.058 299.327 176.144 299.327 158.981C299.327 141.818 287.691 127.905 273.336 127.905C258.981 127.905 247.345 141.818 247.345 158.981C247.345 176.144 258.981 190.058 273.336 190.058Z" fill="#FEF5C3"/>
<path d="M273.336 189.99C287.664 189.99 299.279 176.102 299.279 158.971C299.279 141.841 287.664 127.953 273.336 127.953C259.008 127.953 247.394 141.841 247.394 158.971C247.394 176.102 259.008 189.99 273.336 189.99Z" fill="#FEF5C3"/>
<path d="M273.336 189.941C287.637 189.941 299.23 176.076 299.23 158.971C299.23 141.867 287.637 128.002 273.336 128.002C259.036 128.002 247.442 141.867 247.442 158.971C247.442 176.076 259.036 189.941 273.336 189.941Z" fill="#FEF5C4"/>
<path d="M273.337 189.873C287.605 189.873 299.172 176.034 299.172 158.962C299.172 141.89 287.605 128.05 273.337 128.05C259.068 128.05 247.501 141.89 247.501 158.962C247.501 176.034 259.068 189.873 273.337 189.873Z" fill="#FEF5C4"/>
<path d="M273.336 189.825C259.115 189.825 247.549 175.988 247.549 158.962C247.549 141.936 259.115 128.099 273.336 128.099C287.557 128.099 299.123 141.936 299.123 158.962C299.123 175.978 287.557 189.825 273.336 189.825Z" fill="#FEF6C4"/>
<path d="M273.336 189.766C287.551 189.766 299.074 175.97 299.074 158.952C299.074 141.934 287.551 128.138 273.336 128.138C259.121 128.138 247.598 141.934 247.598 158.952C247.598 175.97 259.121 189.766 273.336 189.766Z" fill="#FEF6C5"/>
<path d="M273.336 189.708C259.164 189.708 247.646 175.92 247.646 158.952C247.646 141.984 259.164 128.196 273.336 128.196C287.509 128.196 299.026 141.984 299.026 158.952C299.026 175.92 287.509 189.708 273.336 189.708Z" fill="#FEF6C5"/>
<path d="M273.336 189.649C287.492 189.649 298.968 175.901 298.968 158.942C298.968 141.983 287.492 128.235 273.336 128.235C259.181 128.235 247.705 141.983 247.705 158.942C247.705 175.901 259.181 189.649 273.336 189.649Z" fill="#FEF6C5"/>
<path d="M273.337 189.591C287.466 189.591 298.919 175.869 298.919 158.942C298.919 142.015 287.466 128.293 273.337 128.293C259.208 128.293 247.754 142.015 247.754 158.942C247.754 175.869 259.208 189.591 273.337 189.591Z" fill="#FEF6C6"/>
<path d="M273.337 189.533C259.252 189.533 247.803 175.813 247.803 158.933C247.803 142.052 259.252 128.332 273.337 128.332C287.422 128.332 298.871 142.052 298.871 158.933C298.871 175.813 287.422 189.533 273.337 189.533Z" fill="#FEF6C6"/>
<path d="M273.336 189.475C259.28 189.475 247.851 175.784 247.851 158.933C247.851 142.082 259.28 128.391 273.336 128.391C287.392 128.391 298.821 142.082 298.821 158.933C298.821 175.774 287.392 189.475 273.336 189.475Z" fill="#FEF6C7"/>
<path d="M273.336 189.416C287.379 189.416 298.763 175.764 298.763 158.923C298.763 142.082 287.379 128.43 273.336 128.43C259.293 128.43 247.909 142.082 247.909 158.923C247.909 175.764 259.293 189.416 273.336 189.416Z" fill="#FEF6C7"/>
<path d="M273.336 189.358C287.353 189.358 298.715 175.732 298.715 158.923C298.715 142.114 287.353 128.488 273.336 128.488C259.32 128.488 247.958 142.114 247.958 158.923C247.958 175.732 259.32 189.358 273.336 189.358Z" fill="#FEF6C7"/>
<path d="M273.337 189.299C287.326 189.299 298.666 175.695 298.666 158.913C298.666 142.131 287.326 128.527 273.337 128.527C259.347 128.527 248.007 142.131 248.007 158.913C248.007 175.695 259.347 189.299 273.337 189.299Z" fill="#FEF6C8"/>
<path d="M273.336 189.241C287.298 189.241 298.617 175.663 298.617 158.913C298.617 142.163 287.298 128.585 273.336 128.585C259.373 128.585 248.055 142.163 248.055 158.913C248.055 175.663 259.373 189.241 273.336 189.241Z" fill="#FEF6C8"/>
<path d="M273.336 189.183C259.416 189.183 248.113 175.609 248.113 158.903C248.113 142.198 259.426 128.624 273.336 128.624C287.246 128.624 298.559 142.198 298.559 158.903C298.559 175.609 287.256 189.183 273.336 189.183Z" fill="#FEF6C8"/>
<path d="M273.336 189.124C259.446 189.124 248.162 175.57 248.162 158.903C248.162 142.227 259.446 128.682 273.336 128.682C287.227 128.682 298.51 142.237 298.51 158.903C298.51 175.57 287.227 189.124 273.336 189.124Z" fill="#FEF6C9"/>
<path d="M273.336 189.066C259.475 189.066 248.211 175.541 248.211 158.894C248.211 142.247 259.475 128.721 273.336 128.721C287.198 128.721 298.462 142.247 298.462 158.894C298.462 175.541 287.198 189.066 273.336 189.066Z" fill="#FEF6C9"/>
<path d="M273.337 189.008C287.186 189.008 298.414 175.525 298.414 158.894C298.414 142.262 287.186 128.78 273.337 128.78C259.487 128.78 248.26 142.262 248.26 158.894C248.26 175.525 259.487 189.008 273.337 189.008Z" fill="#FEF6C9"/>
<path d="M273.336 188.949C259.533 188.949 248.317 175.473 248.317 158.884C248.317 142.296 259.533 128.819 273.336 128.819C287.139 128.819 298.354 142.296 298.354 158.884C298.354 175.473 287.139 188.949 273.336 188.949Z" fill="#FEF7CA"/>
<path d="M273.336 188.891C259.562 188.891 248.366 175.434 248.366 158.884C248.366 142.325 259.562 128.877 273.336 128.877C287.11 128.877 298.306 142.334 298.306 158.884C298.306 175.434 287.11 188.891 273.336 188.891Z" fill="#FEF7CA"/>
<path d="M273.336 188.833C259.592 188.833 248.415 175.404 248.415 158.874C248.415 142.344 259.592 128.916 273.336 128.916C287.081 128.916 298.258 142.344 298.258 158.874C298.258 175.404 287.081 188.833 273.336 188.833Z" fill="#FEF7CA"/>
<path d="M273.337 188.774C287.073 188.774 298.209 175.388 298.209 158.874C298.209 142.361 287.073 128.974 273.337 128.974C259.6 128.974 248.464 142.361 248.464 158.874C248.464 175.388 259.6 188.774 273.337 188.774Z" fill="#FEF7CB"/>
<path d="M273.337 188.716C287.041 188.716 298.151 175.351 298.151 158.864C298.151 142.378 287.041 129.013 273.337 129.013C259.632 129.013 248.522 142.378 248.522 158.864C248.522 175.351 259.632 188.716 273.337 188.716Z" fill="#FEF7CB"/>
<path d="M273.336 188.667C287.014 188.667 298.102 175.324 298.102 158.865C298.102 142.405 287.014 129.062 273.336 129.062C259.658 129.062 248.57 142.405 248.57 158.865C248.57 175.324 259.658 188.667 273.336 188.667Z" fill="#FEF7CB"/>
<path d="M273.336 188.599C286.987 188.599 298.053 175.282 298.053 158.855C298.053 142.427 286.987 129.11 273.336 129.11C259.685 129.11 248.619 142.427 248.619 158.855C248.619 175.282 259.685 188.599 273.336 188.599Z" fill="#FDF7CC"/>
<path d="M273.336 188.541C259.728 188.541 248.668 175.229 248.668 158.845C248.668 142.461 259.728 129.149 273.336 129.149C286.945 129.149 298.005 142.461 298.005 158.845C298.005 175.229 286.945 188.541 273.336 188.541Z" fill="#FDF7CC"/>
<path d="M273.337 188.483C286.928 188.483 297.947 175.214 297.947 158.845C297.947 142.477 286.928 129.208 273.337 129.208C259.745 129.208 248.727 142.477 248.727 158.845C248.727 175.214 259.745 188.483 273.337 188.483Z" fill="#FDF7CD"/>
<path d="M273.337 188.434C286.902 188.434 297.898 175.187 297.898 158.845C297.898 142.504 286.902 129.256 273.337 129.256C259.772 129.256 248.775 142.504 248.775 158.845C248.775 175.187 259.772 188.434 273.337 188.434Z" fill="#FDF7CD"/>
<path d="M273.336 188.366C286.874 188.366 297.849 175.145 297.849 158.835C297.849 142.526 286.874 129.305 273.336 129.305C259.798 129.305 248.823 142.526 248.823 158.835C248.823 175.145 259.798 188.366 273.336 188.366Z" fill="#FDF7CD"/>
<path d="M273.336 188.308C259.844 188.308 248.872 175.093 248.872 158.826C248.872 142.558 259.835 129.344 273.336 129.344C286.828 129.344 297.8 142.558 297.8 158.826C297.8 175.093 286.828 188.308 273.336 188.308Z" fill="#FDF7CE"/>
<path d="M273.336 188.249C259.874 188.249 248.931 175.054 248.931 158.826C248.931 142.587 259.874 129.402 273.336 129.402C286.799 129.402 297.742 142.597 297.742 158.826C297.742 175.064 286.799 188.249 273.336 188.249Z" fill="#FDF7CE"/>
<path d="M273.337 188.191C259.903 188.191 248.979 175.025 248.979 158.816C248.979 142.607 259.903 129.441 273.337 129.441C286.77 129.441 297.694 142.607 297.694 158.816C297.694 175.025 286.77 188.191 273.337 188.191Z" fill="#FDF7CE"/>
<path d="M273.337 188.133C286.762 188.133 297.645 175.007 297.645 158.816C297.645 142.625 286.762 129.499 273.337 129.499C259.912 129.499 249.028 142.625 249.028 158.816C249.028 175.007 259.912 188.133 273.337 188.133Z" fill="#FDF7CF"/>
<path d="M273.336 188.084C286.734 188.084 297.596 174.98 297.596 158.816C297.596 142.652 286.734 129.548 273.336 129.548C259.938 129.548 249.076 142.652 249.076 158.816C249.076 174.98 259.938 188.084 273.336 188.084Z" fill="#FDF7CF"/>
<path d="M273.336 188.016C286.702 188.016 297.538 174.938 297.538 158.806C297.538 142.674 286.702 129.596 273.336 129.596C259.97 129.596 249.135 142.674 249.135 158.806C249.135 174.938 259.97 188.016 273.336 188.016Z" fill="#FDF8CF"/>
<path d="M273.336 187.967C260.01 187.967 249.184 174.899 249.184 158.806C249.184 142.714 260.01 129.645 273.336 129.645C286.663 129.645 297.489 142.714 297.489 158.806C297.489 174.889 286.663 187.967 273.336 187.967Z" fill="#FDF8D0"/>
<path d="M273.337 187.899C286.649 187.899 297.441 174.87 297.441 158.797C297.441 142.723 286.649 129.694 273.337 129.694C260.024 129.694 249.232 142.723 249.232 158.797C249.232 174.87 260.024 187.899 273.337 187.899Z" fill="#FDF8D0"/>
<path d="M273.337 187.851C286.617 187.851 297.383 174.843 297.383 158.797C297.383 142.75 286.617 129.742 273.337 129.742C260.057 129.742 249.291 142.75 249.291 158.797C249.291 174.843 260.057 187.851 273.337 187.851Z" fill="#FDF8D0"/>
<path d="M273.336 187.783C286.589 187.783 297.333 174.801 297.333 158.787C297.333 142.773 286.589 129.791 273.336 129.791C260.083 129.791 249.339 142.773 249.339 158.787C249.339 174.801 260.083 187.783 273.336 187.783Z" fill="#FDF8D1"/>
<path d="M273.336 187.734C286.563 187.734 297.285 174.774 297.285 158.787C297.285 142.8 286.563 129.84 273.336 129.84C260.11 129.84 249.388 142.8 249.388 158.787C249.388 174.774 260.11 187.734 273.336 187.734Z" fill="#FDF8D1"/>
<path d="M273.336 187.676C260.156 187.676 249.437 174.724 249.437 158.787C249.437 142.85 260.146 129.888 273.336 129.888C286.517 129.888 297.236 142.84 297.236 158.787C297.236 174.724 286.517 187.676 273.336 187.676Z" fill="#FDF8D1"/>
<path d="M273.337 187.617C260.185 187.617 249.495 174.685 249.495 158.777C249.495 142.869 260.185 129.937 273.337 129.937C286.488 129.937 297.178 142.869 297.178 158.777C297.178 174.685 286.488 187.617 273.337 187.617Z" fill="#FDF8D2"/>
<path d="M273.336 187.559C260.204 187.559 249.543 174.656 249.543 158.767C249.543 142.889 260.214 129.976 273.336 129.976C286.458 129.976 297.129 142.879 297.129 158.767C297.129 174.656 286.468 187.559 273.336 187.559Z" fill="#FDF8D2"/>
<path d="M273.336 187.501C260.233 187.501 249.592 174.617 249.592 158.767C249.592 142.918 260.233 130.034 273.336 130.034C286.439 130.034 297.08 142.918 297.08 158.767C297.08 174.617 286.439 187.501 273.336 187.501Z" fill="#FDF8D3"/>
<path d="M273.336 187.442C260.263 187.442 249.641 174.588 249.641 158.758C249.641 142.937 260.263 130.073 273.336 130.073C286.41 130.073 297.032 142.928 297.032 158.758C297.032 174.588 286.41 187.442 273.336 187.442Z" fill="#FDF8D3"/>
<path d="M273.336 187.384C260.292 187.384 249.699 174.549 249.699 158.758C249.699 142.966 260.292 130.131 273.336 130.131C286.381 130.131 296.974 142.966 296.974 158.758C296.974 174.549 286.381 187.384 273.336 187.384Z" fill="#FDF8D3"/>
<path d="M273.337 187.326C260.322 187.326 249.748 174.52 249.748 158.748C249.748 142.986 260.322 130.17 273.337 130.17C286.352 130.17 296.925 142.976 296.925 158.748C296.925 174.52 286.352 187.326 273.337 187.326Z" fill="#FDF8D4"/>
<path d="M273.336 187.267C286.337 187.267 296.876 174.499 296.876 158.748C296.876 142.997 286.337 130.229 273.336 130.229C260.335 130.229 249.796 142.997 249.796 158.748C249.796 174.499 260.335 187.267 273.336 187.267Z" fill="#FDF8D4"/>
<path d="M273.336 187.209C286.31 187.209 296.827 174.462 296.827 158.738C296.827 143.014 286.31 130.267 273.336 130.267C260.362 130.267 249.845 143.014 249.845 158.738C249.845 174.462 260.362 187.209 273.336 187.209Z" fill="#FDF8D4"/>
<path d="M273.336 187.151C286.278 187.151 296.769 174.43 296.769 158.738C296.769 143.046 286.278 130.326 273.336 130.326C260.395 130.326 249.903 143.046 249.903 158.738C249.903 174.43 260.395 187.151 273.336 187.151Z" fill="#FDF9D5"/>
<path d="M273.337 187.092C286.251 187.092 296.721 174.393 296.721 158.728C296.721 143.064 286.251 130.365 273.337 130.365C260.422 130.365 249.952 143.064 249.952 158.728C249.952 174.393 260.422 187.092 273.337 187.092Z" fill="#FDF9D5"/>
<path d="M273.337 187.034C260.458 187.034 250.001 174.345 250.001 158.728C250.001 143.112 260.458 130.423 273.337 130.423C286.216 130.423 296.672 143.112 296.672 158.728C296.672 174.345 286.216 187.034 273.337 187.034Z" fill="#FDF9D5"/>
<path d="M273.336 186.975C260.486 186.975 250.049 174.315 250.049 158.719C250.049 143.132 260.486 130.462 273.336 130.462C286.186 130.462 296.623 143.122 296.623 158.719C296.623 174.315 286.186 186.975 273.336 186.975Z" fill="#FDF9D6"/>
<path d="M273.336 186.917C286.165 186.917 296.565 174.292 296.565 158.719C296.565 143.145 286.165 130.52 273.336 130.52C260.507 130.52 250.107 143.145 250.107 158.719C250.107 174.292 260.507 186.917 273.336 186.917Z" fill="#FDF9D6"/>
<path d="M273.336 186.859C286.138 186.859 296.516 174.256 296.516 158.709C296.516 143.162 286.138 130.559 273.336 130.559C260.534 130.559 250.156 143.162 250.156 158.709C250.156 174.256 260.534 186.859 273.336 186.859Z" fill="#FDF9D6"/>
<path d="M273.337 186.801C260.574 186.801 250.205 174.208 250.205 158.709C250.205 143.21 260.574 130.617 273.337 130.617C286.099 130.617 296.468 143.21 296.468 158.709C296.468 174.208 286.099 186.801 273.337 186.801Z" fill="#FDF9D7"/>
<path d="M273.337 186.742C260.604 186.742 250.254 174.169 250.254 158.699C250.254 143.229 260.594 130.656 273.337 130.656C286.07 130.656 296.42 143.229 296.42 158.699C296.42 174.169 286.07 186.742 273.337 186.742Z" fill="#FDF9D7"/>
<path d="M273.336 186.684C260.632 186.684 250.312 174.14 250.312 158.69C250.312 143.248 260.632 130.705 273.336 130.705C286.04 130.705 296.36 143.248 296.36 158.69C296.36 174.14 286.04 186.684 273.336 186.684Z" fill="#FDF9D8"/>
<path d="M273.336 186.625C286.025 186.625 296.312 174.118 296.312 158.69C296.312 143.261 286.025 130.754 273.336 130.754C260.647 130.754 250.36 143.261 250.36 158.69C250.36 174.118 260.647 186.625 273.336 186.625Z" fill="#FDF9D8"/>
<path d="M273.336 186.577C285.999 186.577 296.264 174.091 296.264 158.689C296.264 143.288 285.999 130.802 273.336 130.802C260.674 130.802 250.409 143.288 250.409 158.689C250.409 174.091 260.674 186.577 273.336 186.577Z" fill="#FDF9D8"/>
<path d="M273.337 186.509C285.972 186.509 296.215 174.049 296.215 158.68C296.215 143.31 285.972 130.851 273.337 130.851C260.701 130.851 250.458 143.31 250.458 158.68C250.458 174.049 260.701 186.509 273.337 186.509Z" fill="#FDF9D9"/>
<path d="M273.337 186.46C285.94 186.46 296.157 174.022 296.157 158.68C296.157 143.337 285.94 130.899 273.337 130.899C260.734 130.899 250.517 143.337 250.517 158.68C250.517 174.022 260.734 186.46 273.337 186.46Z" fill="#FDF9D9"/>
<path d="M273.336 186.392C285.912 186.392 296.108 173.981 296.108 158.67C296.108 143.36 285.912 130.948 273.336 130.948C260.76 130.948 250.564 143.36 250.564 158.67C250.564 173.981 260.76 186.392 273.336 186.392Z" fill="#FDF9D9"/>
<path d="M273.336 186.343C285.886 186.343 296.059 173.954 296.059 158.67C296.059 143.386 285.886 130.997 273.336 130.997C260.787 130.997 250.613 143.386 250.613 158.67C250.613 173.954 260.787 186.343 273.336 186.343Z" fill="#FDF9DA"/>
<path d="M273.336 186.275C285.859 186.275 296.011 173.912 296.011 158.66C296.011 143.409 285.859 131.045 273.336 131.045C260.814 131.045 250.662 143.409 250.662 158.66C250.662 173.912 260.814 186.275 273.336 186.275Z" fill="#FDFADA"/>
<path d="M273.337 186.227C285.827 186.227 295.953 173.885 295.953 158.66C295.953 143.436 285.827 131.094 273.337 131.094C260.846 131.094 250.721 143.436 250.721 158.66C250.721 173.885 260.846 186.227 273.337 186.227Z" fill="#FDFADA"/>
<path d="M273.337 186.168C260.886 186.168 250.77 173.839 250.77 158.66C250.77 143.482 260.886 131.152 273.337 131.152C285.788 131.152 295.904 143.482 295.904 158.66C295.904 173.839 285.788 186.168 273.337 186.168Z" fill="#FDFADB"/>
<path d="M273.336 186.11C260.914 186.11 250.817 173.81 250.817 158.651C250.817 143.501 260.905 131.191 273.336 131.191C285.758 131.191 295.855 143.492 295.855 158.651C295.855 173.8 285.758 186.11 273.336 186.11Z" fill="#FDFADB"/>
<path d="M273.336 186.052C260.944 186.052 250.876 173.771 250.876 158.651C250.876 143.53 260.944 131.249 273.336 131.249C285.729 131.249 295.797 143.53 295.797 158.651C295.797 173.771 285.729 186.052 273.336 186.052Z" fill="#FDFADB"/>
<path d="M273.336 185.993C260.963 185.993 250.925 173.732 250.925 158.641C250.925 143.55 260.973 131.288 273.336 131.288C285.7 131.288 295.748 143.55 295.748 158.641C295.748 173.732 285.71 185.993 273.336 185.993Z" fill="#FDFADC"/>
<path d="M273.337 185.925C285.687 185.925 295.7 173.705 295.7 158.631C295.7 143.557 285.687 131.337 273.337 131.337C260.986 131.337 250.974 143.557 250.974 158.631C250.974 173.705 260.986 185.925 273.337 185.925Z" fill="#FDFADC"/>
<path d="M273.336 185.877C285.66 185.877 295.65 173.679 295.65 158.631C295.65 143.584 285.66 131.386 273.336 131.386C261.012 131.386 251.021 143.584 251.021 158.631C251.021 173.679 261.012 185.877 273.336 185.877Z" fill="#FDFADC"/>
<path d="M273.336 185.818C261.051 185.818 251.08 173.635 251.08 158.631C251.08 143.628 261.06 131.444 273.336 131.444C285.622 131.444 295.592 143.628 295.592 158.631C295.592 173.635 285.622 185.818 273.336 185.818Z" fill="#FDFADD"/>
<path d="M273.336 185.76C285.601 185.76 295.544 173.61 295.544 158.621C295.544 143.633 285.601 131.483 273.336 131.483C261.071 131.483 251.129 143.633 251.129 158.621C251.129 173.61 261.071 185.76 273.336 185.76Z" fill="#FDFADD"/>
<path d="M273.336 185.692C285.574 185.692 295.495 173.568 295.495 158.612C295.495 143.656 285.574 131.531 273.336 131.531C261.099 131.531 251.178 143.656 251.178 158.612C251.178 173.568 261.099 185.692 273.336 185.692Z" fill="#FCFADE"/>
<path d="M273.337 185.643C285.548 185.643 295.447 173.541 295.447 158.612C295.447 143.683 285.548 131.58 273.337 131.58C261.126 131.58 251.227 143.683 251.227 158.612C251.227 173.541 261.126 185.643 273.337 185.643Z" fill="#FCFADE"/>
<path d="M273.336 185.585C285.515 185.585 295.388 173.504 295.388 158.602C295.388 143.7 285.515 131.619 273.336 131.619C261.157 131.619 251.284 143.7 251.284 158.602C251.284 173.504 261.157 185.585 273.336 185.585Z" fill="#FCFADE"/>
<path d="M273.336 185.527C261.196 185.527 251.333 173.46 251.333 158.602C251.333 143.744 261.196 131.677 273.336 131.677C285.476 131.677 295.339 143.744 295.339 158.602C295.339 173.46 285.476 185.527 273.336 185.527Z" fill="#FCFADF"/>
<path d="M273.336 185.468C261.216 185.468 251.382 173.431 251.382 158.592C251.382 143.764 261.216 131.716 273.336 131.716C285.456 131.716 295.291 143.754 295.291 158.592C295.291 173.421 285.456 185.468 273.336 185.468Z" fill="#FCFADF"/>
<path d="M273.336 185.41C261.245 185.41 251.431 173.392 251.431 158.592C251.431 143.793 261.245 131.775 273.336 131.775C285.427 131.775 295.242 143.793 295.242 158.592C295.242 173.392 285.427 185.41 273.336 185.41Z" fill="#FCFADF"/>
<path d="M273.337 185.352C285.403 185.352 295.184 173.367 295.184 158.583C295.184 143.798 285.403 131.813 273.337 131.813C261.271 131.813 251.489 143.798 251.489 158.583C251.489 173.367 261.271 185.352 273.337 185.352Z" fill="#FCFBE0"/>
<path d="M273.336 185.293C261.303 185.293 251.537 173.324 251.537 158.582C251.537 143.841 261.303 131.872 273.336 131.872C285.369 131.872 295.135 143.841 295.135 158.582C295.135 173.324 285.369 185.293 273.336 185.293Z" fill="#FCFBE0"/>
<path d="M273.336 185.235C261.333 185.235 251.586 173.285 251.586 158.573C251.586 143.861 261.333 131.911 273.336 131.911C285.34 131.911 295.086 143.861 295.086 158.573C295.086 173.285 285.34 185.235 273.336 185.235Z" fill="#FCFBE0"/>
<path d="M273.336 185.177C261.362 185.177 251.635 173.256 251.635 158.573C251.635 143.89 261.362 131.969 273.336 131.969C285.311 131.969 295.038 143.89 295.038 158.573C295.038 173.256 285.311 185.177 273.336 185.177Z" fill="#FCFBE1"/>
<path d="M273.337 185.118C285.29 185.118 294.98 173.229 294.98 158.563C294.98 143.897 285.29 132.008 273.337 132.008C261.383 132.008 251.693 143.897 251.693 158.563C251.693 173.229 261.383 185.118 273.337 185.118Z" fill="#FCFBE1"/>
<path d="M273.337 185.06C285.263 185.06 294.931 173.197 294.931 158.563C294.931 143.929 285.263 132.066 273.337 132.066C261.41 132.066 251.742 143.929 251.742 158.563C251.742 173.197 261.41 185.06 273.337 185.06Z" fill="#FCFBE1"/>
<path d="M273.336 185.002C285.235 185.002 294.882 173.16 294.882 158.553C294.882 143.946 285.235 132.105 273.336 132.105C261.436 132.105 251.79 143.946 251.79 158.553C251.79 173.16 261.436 185.002 273.336 185.002Z" fill="#FCFBE2"/>
<path d="M273.336 184.943C285.209 184.943 294.833 173.128 294.833 158.553C294.833 143.979 285.209 132.163 273.336 132.163C261.464 132.163 251.839 143.979 251.839 158.553C251.839 173.128 261.464 184.943 273.336 184.943Z" fill="#FCFBE2"/>
<path d="M273.336 184.885C261.498 184.885 251.897 173.081 251.897 158.544C251.897 144.007 261.508 132.202 273.336 132.202C285.165 132.202 294.775 144.007 294.775 158.544C294.775 173.081 285.174 184.885 273.336 184.885Z" fill="#FCFBE2"/>
<path d="M273.337 184.827C261.528 184.827 251.946 173.051 251.946 158.544C251.946 144.036 261.528 132.261 273.337 132.261C285.145 132.261 294.727 144.036 294.727 158.544C294.727 173.051 285.145 184.827 273.337 184.827Z" fill="#FCFBE3"/>
<path d="M273.337 184.768C285.123 184.768 294.678 173.023 294.678 158.534C294.678 144.045 285.123 132.3 273.337 132.3C261.55 132.3 251.995 144.045 251.995 158.534C251.995 173.023 261.55 184.768 273.337 184.768Z" fill="#FCFBE3"/>
<path d="M273.336 184.71C285.096 184.71 294.629 172.99 294.629 158.534C294.629 144.077 285.096 132.358 273.336 132.358C261.576 132.358 252.043 144.077 252.043 158.534C252.043 172.99 261.576 184.71 273.336 184.71Z" fill="#FCFBE4"/>
<path d="M273.336 184.652C261.615 184.652 252.102 172.944 252.102 158.524C252.102 144.104 261.615 132.397 273.336 132.397C285.058 132.397 294.571 144.104 294.571 158.524C294.571 172.944 285.058 184.652 273.336 184.652Z" fill="#FCFBE4"/>
<path d="M273.336 184.593C285.037 184.593 294.522 172.922 294.522 158.524C294.522 144.127 285.037 132.455 273.336 132.455C261.636 132.455 252.15 144.127 252.15 158.524C252.15 172.922 261.636 184.593 273.336 184.593Z" fill="#FCFBE4"/>
<path d="M273.337 184.535C261.674 184.535 252.199 172.876 252.199 158.514C252.199 144.153 261.674 132.494 273.337 132.494C285 132.494 294.474 144.153 294.474 158.514C294.474 172.876 285 184.535 273.337 184.535Z" fill="#FCFBE5"/>
<path d="M273.337 184.486C284.984 184.486 294.425 172.858 294.425 158.515C294.425 144.171 284.984 132.543 273.337 132.543C261.69 132.543 252.248 144.171 252.248 158.515C252.248 172.858 261.69 184.486 273.337 184.486Z" fill="#FCFCE5"/>
<path d="M273.336 184.418C284.951 184.418 294.366 172.816 294.366 158.505C294.366 144.193 284.951 132.591 273.336 132.591C261.721 132.591 252.306 144.193 252.306 158.505C252.306 172.816 261.721 184.418 273.336 184.418Z" fill="#FCFCE5"/>
<path d="M273.336 184.37C284.924 184.37 294.318 172.789 294.318 158.505C294.318 144.22 284.924 132.64 273.336 132.64C261.748 132.64 252.354 144.22 252.354 158.505C252.354 172.789 261.748 184.37 273.336 184.37Z" fill="#FCFCE6"/>
<path d="M273.336 184.302C284.897 184.302 294.269 172.748 294.269 158.495C294.269 144.243 284.897 132.689 273.336 132.689C261.775 132.689 252.403 144.243 252.403 158.495C252.403 172.748 261.775 184.302 273.336 184.302Z" fill="#FCFCE6"/>
<path d="M273.337 184.253C284.871 184.253 294.221 172.721 294.221 158.495C294.221 144.269 284.871 132.737 273.337 132.737C261.802 132.737 252.452 144.269 252.452 158.495C252.452 172.721 261.802 184.253 273.337 184.253Z" fill="#FCFCE6"/>
<path d="M273.336 184.185C284.838 184.185 294.162 172.679 294.162 158.485C294.162 144.292 284.838 132.786 273.336 132.786C261.834 132.786 252.51 144.292 252.51 158.485C252.51 172.679 261.834 184.185 273.336 184.185Z" fill="#FCFCE7"/>
<path d="M273.336 184.136C284.811 184.136 294.113 172.652 294.113 158.485C294.113 144.319 284.811 132.834 273.336 132.834C261.861 132.834 252.559 144.319 252.559 158.485C252.559 172.652 261.861 184.136 273.336 184.136Z" fill="#FCFCE7"/>
<path d="M273.336 184.068C284.784 184.068 294.065 172.61 294.065 158.476C294.065 144.341 284.784 132.883 273.336 132.883C261.888 132.883 252.607 144.341 252.607 158.476C252.607 172.61 261.888 184.068 273.336 184.068Z" fill="#FCFCE7"/>
<path d="M273.336 184.02C261.926 184.02 252.666 172.575 252.666 158.476C252.666 144.376 261.926 132.932 273.336 132.932C284.747 132.932 294.007 144.376 294.007 158.476C294.007 172.575 284.747 184.02 273.336 184.02Z" fill="#FCFCE8"/>
<path d="M273.337 183.961C261.956 183.961 252.715 172.546 252.715 158.476C252.715 144.406 261.956 132.99 273.337 132.99C284.718 132.99 293.959 144.406 293.959 158.476C293.959 172.536 284.718 183.961 273.337 183.961Z" fill="#FCFCE8"/>
<path d="M273.337 183.903C261.985 183.903 252.764 172.507 252.764 158.466C252.764 144.425 261.985 133.029 273.337 133.029C284.689 133.029 293.91 144.425 293.91 158.466C293.91 172.507 284.689 183.903 273.337 183.903Z" fill="#FCFCE8"/>
<path d="M273.336 183.844C262.004 183.844 252.812 172.478 252.812 158.466C252.812 144.454 262.004 133.087 273.336 133.087C284.668 133.087 293.861 144.454 293.861 158.466C293.861 172.468 284.668 183.844 273.336 183.844Z" fill="#FCFCE9"/>
<path d="M273.336 183.786C284.639 183.786 293.802 172.446 293.802 158.456C293.802 144.467 284.639 133.126 273.336 133.126C262.033 133.126 252.87 144.467 252.87 158.456C252.87 172.446 262.033 183.786 273.336 183.786Z" fill="#FCFCE9"/>
<path d="M273.336 183.728C262.063 183.728 252.919 172.41 252.919 158.456C252.919 144.503 262.063 133.184 273.336 133.184C284.61 133.184 293.754 144.503 293.754 158.456C293.754 172.4 284.61 183.728 273.336 183.728Z" fill="#FCFCEA"/>
<path d="M273.337 183.67C262.092 183.67 252.968 172.371 252.968 158.446C252.968 144.522 262.092 133.223 273.337 133.223C284.581 133.223 293.706 144.522 293.706 158.446C293.706 172.371 284.581 183.67 273.337 183.67Z" fill="#FCFCEA"/>
<path d="M273.336 183.601C284.558 183.601 293.656 172.335 293.656 158.437C293.656 144.539 284.558 133.272 273.336 133.272C262.113 133.272 253.016 144.539 253.016 158.437C253.016 172.335 262.113 183.601 273.336 183.601Z" fill="#FCFCEA"/>
<path d="M273.336 183.553C284.526 183.553 293.598 172.308 293.598 158.437C293.598 144.565 284.526 133.321 273.336 133.321C262.146 133.321 253.074 144.565 253.074 158.437C253.074 172.308 262.146 183.553 273.336 183.553Z" fill="#FCFDEB"/>
<path d="M273.336 183.485C284.5 183.485 293.55 172.266 293.55 158.427C293.55 144.588 284.5 133.369 273.336 133.369C262.173 133.369 253.123 144.588 253.123 158.427C253.123 172.266 262.173 183.485 273.336 183.485Z" fill="#FCFDEB"/>
<path d="M273.337 183.436C284.473 183.436 293.501 172.239 293.501 158.427C293.501 144.615 284.473 133.418 273.337 133.418C262.2 133.418 253.172 144.615 253.172 158.427C253.172 172.239 262.2 183.436 273.337 183.436Z" fill="#FCFDEB"/>
<path d="M273.337 183.378C262.238 183.378 253.221 172.196 253.221 158.417C253.221 144.639 262.228 133.457 273.337 133.457C284.436 133.457 293.453 144.639 293.453 158.417C293.453 172.196 284.436 183.378 273.337 183.378Z" fill="#FCFDEC"/>
<path d="M273.336 183.319C262.257 183.319 253.278 172.166 253.278 158.417C253.278 144.668 262.266 133.515 273.336 133.515C284.415 133.515 293.394 144.668 293.394 158.417C293.394 172.166 284.415 183.319 273.336 183.319Z" fill="#FCFDEC"/>
<path d="M273.336 183.261C262.286 183.261 253.327 172.128 253.327 158.408C253.327 144.688 262.286 133.554 273.336 133.554C284.386 133.554 293.345 144.688 293.345 158.408C293.345 172.128 284.386 183.261 273.336 183.261Z" fill="#FCFDEC"/>
<path d="M273.336 183.203C284.36 183.203 293.297 172.102 293.297 158.408C293.297 144.714 284.36 133.612 273.336 133.612C262.313 133.612 253.376 144.714 253.376 158.408C253.376 172.102 262.313 183.203 273.336 183.203Z" fill="#FCFDED"/>
<path d="M273.337 183.144C262.345 183.144 253.425 172.059 253.425 158.398C253.425 144.736 262.345 133.651 273.337 133.651C284.328 133.651 293.248 144.736 293.248 158.398C293.248 172.059 284.328 183.144 273.337 183.144Z" fill="#FCFDED"/>
<path d="M273.337 183.086C262.374 183.086 253.483 172.03 253.483 158.398C253.483 144.765 262.374 133.709 273.337 133.709C284.299 133.709 293.19 144.765 293.19 158.398C293.19 172.03 284.299 183.086 273.337 183.086Z" fill="#FCFDED"/>
<path d="M273.336 183.028C262.403 183.028 253.531 171.991 253.531 158.388C253.531 144.785 262.403 133.748 273.336 133.748C284.269 133.748 293.141 144.785 293.141 158.388C293.141 171.991 284.269 183.028 273.336 183.028Z" fill="#FCFDEE"/>
<path d="M273.336 182.969C262.432 182.969 253.58 171.962 253.58 158.388C253.58 144.814 262.432 133.807 273.336 133.807C284.24 133.807 293.092 144.814 293.092 158.388C293.092 171.962 284.24 182.969 273.336 182.969Z" fill="#FCFDEE"/>
<path d="M273.336 182.911C284.22 182.911 293.044 171.927 293.044 158.378C293.044 144.829 284.22 133.846 273.336 133.846C262.452 133.846 253.629 144.829 253.629 158.378C253.629 171.927 262.452 182.911 273.336 182.911Z" fill="#FCFDEE"/>
<path d="M273.337 182.853C284.189 182.853 292.986 171.895 292.986 158.378C292.986 144.862 284.189 133.904 273.337 133.904C262.485 133.904 253.688 144.862 253.688 158.378C253.688 171.895 262.485 182.853 273.337 182.853Z" fill="#FCFDEF"/>
<path d="M273.337 182.794C284.162 182.794 292.937 171.859 292.937 158.369C292.937 144.879 284.162 133.943 273.337 133.943C262.512 133.943 253.736 144.879 253.736 158.369C253.736 171.859 262.512 182.794 273.337 182.794Z" fill="#FBFDEF"/>
<path d="M273.336 182.736C262.539 182.736 253.784 171.826 253.784 158.369C253.784 144.911 262.539 134.001 273.336 134.001C284.133 134.001 292.888 144.911 292.888 158.369C292.888 171.826 284.133 182.736 273.336 182.736Z" fill="#FBFDF0"/>
<path d="M273.336 182.678C262.568 182.678 253.833 171.787 253.833 158.359C253.833 144.931 262.568 134.04 273.336 134.04C284.104 134.04 292.839 144.931 292.839 158.359C292.839 171.787 284.104 182.678 273.336 182.678Z" fill="#FBFEF0"/>
<path d="M273.336 182.619C284.075 182.619 292.781 171.758 292.781 158.359C292.781 144.96 284.075 134.099 273.336 134.099C262.597 134.099 253.892 144.96 253.892 158.359C253.892 171.758 262.597 182.619 273.336 182.619Z" fill="#FBFEF0"/>
<path d="M273.337 182.561C284.049 182.561 292.733 171.721 292.733 158.349C292.733 144.977 284.049 134.137 273.337 134.137C262.624 134.137 253.94 144.977 253.94 158.349C253.94 171.721 262.624 182.561 273.337 182.561Z" fill="#FBFFF8"/>
<path d="M273.336 182.503C262.655 182.503 253.988 171.68 253.988 158.349C253.988 145.008 262.655 134.196 273.336 134.196C284.016 134.196 292.683 145.018 292.683 158.349C292.683 171.69 284.016 182.503 273.336 182.503Z" fill="#FBFFF8"/>
<path d="M273.336 182.444C262.685 182.444 254.037 171.651 254.037 158.339C254.037 145.028 262.675 134.235 273.336 134.235C283.987 134.235 292.635 145.028 292.635 158.339C292.635 171.651 283.987 182.444 273.336 182.444Z" fill="white"/>
<path d="M273.336 182.386C262.714 182.386 254.096 171.612 254.096 158.33C254.096 145.047 262.714 134.283 273.336 134.283C283.958 134.283 292.577 145.057 292.577 158.33C292.577 171.622 283.958 182.386 273.336 182.386Z" fill="white"/>
<path d="M273.336 182.337C262.743 182.337 254.145 171.593 254.145 158.339C254.145 145.086 262.743 134.342 273.336 134.342C283.929 134.342 292.528 145.086 292.528 158.339C292.528 171.583 283.929 182.337 273.336 182.337Z" fill="white"/>
<path d="M273.337 182.279C283.909 182.279 292.48 171.557 292.48 158.33C292.48 145.103 283.909 134.38 273.337 134.38C262.764 134.38 254.193 145.103 254.193 158.33C254.193 171.557 262.764 182.279 273.337 182.279Z" fill="white"/>
<path d="M273.336 182.211C283.876 182.211 292.421 171.515 292.421 158.32C292.421 145.125 283.876 134.429 273.336 134.429C262.796 134.429 254.251 145.125 254.251 158.32C254.251 171.515 262.796 182.211 273.336 182.211Z" fill="#FBFEF3"/>
<path d="M273.336 182.162C283.85 182.162 292.372 171.488 292.372 158.32C292.372 145.152 283.85 134.478 273.336 134.478C262.823 134.478 254.3 145.152 254.3 158.32C254.3 171.488 262.823 182.162 273.336 182.162Z" fill="#FBFEF3"/>
<path d="M273.336 182.094C283.823 182.094 292.324 171.446 292.324 158.31C292.324 145.175 283.823 134.526 273.336 134.526C262.85 134.526 254.349 145.175 254.349 158.31C254.349 171.446 262.85 182.094 273.336 182.094Z" fill="#FBFEF3"/>
<path d="M273.336 182.046C283.796 182.046 292.275 171.419 292.275 158.31C292.275 145.202 283.796 134.575 273.336 134.575C262.877 134.575 254.397 145.202 254.397 158.31C254.397 171.419 262.877 182.046 273.336 182.046Z" fill="#FBFEF4"/>
<path d="M273.337 181.978C283.764 181.978 292.217 171.377 292.217 158.301C292.217 145.224 283.764 134.624 273.337 134.624C262.909 134.624 254.456 145.224 254.456 158.301C254.456 171.377 262.909 181.978 273.337 181.978Z" fill="#FBFEF4"/>
<path d="M273.336 181.929C283.737 181.929 292.168 171.35 292.168 158.301C292.168 145.251 283.737 134.672 273.336 134.672C262.935 134.672 254.504 145.251 254.504 158.301C254.504 171.35 262.935 181.929 273.336 181.929Z" fill="#FBFEF4"/>
<path d="M273.336 181.871C262.967 181.871 254.553 171.32 254.553 158.301C254.553 145.281 262.967 134.73 273.336 134.73C283.705 134.73 292.119 145.281 292.119 158.301C292.119 171.311 283.705 181.871 273.336 181.871Z" fill="#FBFEF5"/>
<path d="M273.336 181.812C262.996 181.812 254.602 171.282 254.602 158.291C254.602 145.3 262.986 134.769 273.336 134.769C283.676 134.769 292.071 145.3 292.071 158.291C292.071 171.282 283.676 181.812 273.336 181.812Z" fill="#FBFEF5"/>
<path d="M273.337 181.754C263.016 181.754 254.66 171.243 254.66 158.291C254.66 145.329 263.026 134.828 273.337 134.828C283.647 134.828 292.013 145.339 292.013 158.291C292.013 171.243 283.657 181.754 273.337 181.754Z" fill="#FBFFF6"/>
<path d="M273.337 181.696C263.045 181.696 254.709 171.214 254.709 158.281C254.709 145.349 263.055 134.867 273.337 134.867C283.618 134.867 291.964 145.349 291.964 158.281C291.964 171.214 283.628 181.696 273.337 181.696Z" fill="#FBFFF6"/>
<path d="M273.336 181.628C283.597 181.628 291.915 171.171 291.915 158.271C291.915 145.372 283.597 134.915 273.336 134.915C263.075 134.915 254.757 145.372 254.757 158.271C254.757 171.171 263.075 181.628 273.336 181.628Z" fill="#FBFFF6"/>
<path d="M273.336 181.579C263.103 181.579 254.806 171.145 254.806 158.271C254.806 145.397 263.103 134.964 273.336 134.964C283.569 134.964 291.867 145.397 291.867 158.271C291.867 171.145 283.569 181.579 273.336 181.579Z" fill="#FBFFF7"/>
<path d="M273.336 181.521C263.132 181.521 254.864 171.107 254.864 158.271C254.864 145.426 263.132 135.022 273.336 135.022C283.54 135.022 291.808 145.436 291.808 158.271C291.808 171.107 283.54 181.521 273.336 181.521Z" fill="#FBFFF7"/>
<path d="M273.337 181.462C263.162 181.462 254.913 171.077 254.913 158.262C254.913 145.446 263.162 135.061 273.337 135.061C283.511 135.061 291.76 145.446 291.76 158.262C291.76 171.077 283.511 181.462 273.337 181.462Z" fill="#FBFFF7"/>
<path d="M273.337 181.394C283.485 181.394 291.712 171.033 291.712 158.252C291.712 145.471 283.485 135.11 273.337 135.11C263.189 135.11 254.962 145.471 254.962 158.252C254.962 171.033 263.189 181.394 273.337 181.394Z" fill="#FBFFF8"/>
<path d="M273.336 181.346C283.457 181.346 291.662 171.006 291.662 158.252C291.662 145.498 283.457 135.158 273.336 135.158C263.215 135.158 255.01 145.498 255.01 158.252C255.01 171.006 263.215 181.346 273.336 181.346Z" fill="#FBFFF8"/>
<path d="M336.496 161.357H270.419H211.15L272.831 85.7751L336.496 161.357Z" fill="url(#paint0_linear)"/>
<path d="M283.064 97.181V83.3734C283.064 79.2117 278.716 75.8279 272.85 75.8279C266.985 75.8279 262.637 79.202 262.637 83.3734V97.181H283.064Z" fill="#4D4D4D"/>
<defs>
<filter id="filter0_d" x="34.9092" y="5.29272" width="598.448" height="454.425" filterUnits="userSpaceOnUse" color-interpolation-filters="sRGB">
<feFlood flood-opacity="0" result="BackgroundImageFix"/>
<feColorMatrix in="SourceAlpha" type="matrix" values="0 0 0 0 0 0 0 0 0 0 0 0 0 0 0 0 0 0 127 0"/>
<feOffset dy="4"/>
<feGaussianBlur stdDeviation="2"/>
<feColorMatrix type="matrix" values="0 0 0 0 0 0 0 0 0 0 0 0 0 0 0 0 0 0 0.25 0"/>
<feBlend mode="normal" in2="BackgroundImageFix" result="effect1_dropShadow"/>
<feBlend mode="normal" in="SourceGraphic" in2="effect1_dropShadow" result="shape"/>
</filter>
<filter id="filter1_d" x="181.937" y="78.5156" width="182.8" height="193.009" filterUnits="userSpaceOnUse" color-interpolation-filters="sRGB">
<feFlood flood-opacity="0" result="BackgroundImageFix"/>
<feColorMatrix in="SourceAlpha" type="matrix" values="0 0 0 0 0 0 0 0 0 0 0 0 0 0 0 0 0 0 127 0"/>
<feOffset dy="16"/>
<feGaussianBlur stdDeviation="32.5"/>
<feColorMatrix type="matrix" values="0 0 0 0 1 0 0 0 0 0.8 0 0 0 0 0 0 0 0 1 0"/>
<feBlend mode="normal" in2="BackgroundImageFix" result="effect1_dropShadow"/>
<feBlend mode="normal" in="SourceGraphic" in2="effect1_dropShadow" result="shape"/>
</filter>
<linearGradient id="paint0_linear" x1="214.317" y1="115.831" x2="388.334" y2="140.667" gradientUnits="userSpaceOnUse">
<stop stop-color="#FFDD00"/>
<stop offset="1" stop-color="#E30613"/>
</linearGradient>
</defs>
</svg>
