<svg width="222" height="144" viewBox="0 0 222 144" fill="none" xmlns="http://www.w3.org/2000/svg">
<path d="M129.4 60H152.5C154.3 60 155.8 58.5 155.8 56.7C155.8 54.9 154.2 53.5 152.5 53.5H129.4C127.6 53.5 126.1 55 126.1 56.8C126.1 58.6 127.6 60 129.4 60Z" fill="#060606"/>
<path d="M129.4 60H152.5C154.3 60 155.8 58.5 155.8 56.7C155.8 54.9 154.2 53.5 152.5 53.5H129.4C127.6 53.5 126.1 55 126.1 56.8C126.1 58.6 127.6 60 129.4 60Z" fill="url(#paint0_linear)"/>
<path d="M102.9 64.1C103.5 64.8 104.4 65.1 105.3 65.1C106.2 65.1 107.1 64.7 107.7 64.1L117.3 53.7C118.5 52.4 118.4 50.3 117.1 49.1C115.8 47.9 113.7 48 112.5 49.3L105.3 57.1L102.6 54.2C101.4 52.9 99.3001 52.8 98.0001 54C96.7001 55.2 96.6001 57.3 97.8001 58.6L102.9 64.1Z" fill="#060606"/>
<path d="M102.9 64.1C103.5 64.8 104.4 65.1 105.3 65.1C106.2 65.1 107.1 64.7 107.7 64.1L117.3 53.7C118.5 52.4 118.4 50.3 117.1 49.1C115.8 47.9 113.7 48 112.5 49.3L105.3 57.1L102.6 54.2C101.4 52.9 99.3001 52.8 98.0001 54C96.7001 55.2 96.6001 57.3 97.8001 58.6L102.9 64.1Z" fill="url(#paint1_linear)"/>
<path d="M129.4 82.8H152.5C154.3 82.8 155.8 81.3 155.8 79.5C155.8 77.7 154.3 76.2 152.5 76.2H129.4C127.6 76.2 126.1 77.7 126.1 79.5C126.1 81.3 127.6 82.8 129.4 82.8Z" fill="#060606"/>
<path d="M129.4 82.8H152.5C154.3 82.8 155.8 81.3 155.8 79.5C155.8 77.7 154.3 76.2 152.5 76.2H129.4C127.6 76.2 126.1 77.7 126.1 79.5C126.1 81.3 127.6 82.8 129.4 82.8Z" fill="url(#paint2_linear)"/>
<path d="M102.9 86.9C103.5 87.6 104.4 87.9 105.3 87.9C106.2 87.9 107.1 87.5 107.7 86.9L117.3 76.5C118.5 75.2 118.4 73.1 117.1 71.9C115.8 70.7 113.7 70.8 112.5 72.1L105.3 79.9L102.6 77C101.4 75.7 99.3001 75.6 98.0001 76.8C96.7001 78 96.6001 80.1 97.8001 81.4L102.9 86.9Z" fill="#060606"/>
<path d="M102.9 86.9C103.5 87.6 104.4 87.9 105.3 87.9C106.2 87.9 107.1 87.5 107.7 86.9L117.3 76.5C118.5 75.2 118.4 73.1 117.1 71.9C115.8 70.7 113.7 70.8 112.5 72.1L105.3 79.9L102.6 77C101.4 75.7 99.3001 75.6 98.0001 76.8C96.7001 78 96.6001 80.1 97.8001 81.4L102.9 86.9Z" fill="url(#paint3_linear)"/>
<path d="M129.4 105.5H152.5C154.3 105.5 155.8 104 155.8 102.2C155.8 100.4 154.3 98.9 152.5 98.9H129.4C127.6 98.9 126.1 100.4 126.1 102.2C126.1 104.1 127.6 105.5 129.4 105.5Z" fill="#060606"/>
<path d="M129.4 105.5H152.5C154.3 105.5 155.8 104 155.8 102.2C155.8 100.4 154.3 98.9 152.5 98.9H129.4C127.6 98.9 126.1 100.4 126.1 102.2C126.1 104.1 127.6 105.5 129.4 105.5Z" fill="url(#paint4_linear)"/>
<path d="M102.9 109.7C103.5 110.4 104.4 110.7 105.3 110.7C106.2 110.7 107.1 110.3 107.7 109.7L117.3 99.3C118.5 98 118.4 95.9 117.1 94.7C115.8 93.5 113.7 93.6 112.5 94.9L105.3 102.7L102.6 99.8C101.4 98.5 99.3001 98.4 98.0001 99.6C96.7001 100.8 96.6001 102.9 97.8001 104.2L102.9 109.7Z" fill="#060606"/>
<path d="M102.9 109.7C103.5 110.4 104.4 110.7 105.3 110.7C106.2 110.7 107.1 110.3 107.7 109.7L117.3 99.3C118.5 98 118.4 95.9 117.1 94.7C115.8 93.5 113.7 93.6 112.5 94.9L105.3 102.7L102.6 99.8C101.4 98.5 99.3001 98.4 98.0001 99.6C96.7001 100.8 96.6001 102.9 97.8001 104.2L102.9 109.7Z" fill="url(#paint5_linear)"/>
<g filter="url(#filter0_d)">
<path d="M168.3 32H84.3C82.5 32 81 33.5 81 35.3V123.8C81 125.6 82.5 127.1 84.3 127.1H168.3C170.1 127.1 171.6 125.6 171.6 123.8V35.3C171.6 33.5 170.1 32 168.3 32ZM165.1 120.5H87.5V38.5H165.1V120.5Z" fill="#FFCC00"/>
</g>
<path opacity="0.5" d="M196.797 21.0289C196.982 21.5989 197.445 22.0007 197.983 22.2212C198.521 22.4417 199.158 22.4204 199.665 22.2048L207.978 18.2712C209.017 17.7795 209.478 16.4859 208.999 15.4422C208.519 14.3985 207.239 13.9445 206.2 14.4362L199.965 17.3863L199.071 14.9723C198.676 13.8926 197.446 13.3178 196.371 13.7245C195.297 14.1313 194.717 15.3759 195.112 16.4556L196.797 21.0289Z" fill="#FFCC00"/>
<path opacity="0.5" d="M193.406 35.9075L205.442 44.7218C206.38 45.4086 207.74 45.1905 208.435 44.242C209.13 43.2934 208.836 41.9451 207.951 41.2965L195.915 32.4822C194.977 31.7954 193.616 32.0135 192.922 32.962C192.227 33.9106 192.468 35.2207 193.406 35.9075Z" fill="#FFCC00"/>
<g filter="url(#filter1_d)">
<path d="M18.7245 119.756C19.431 120.155 20.261 120.131 20.9992 119.858C21.7373 119.586 22.3529 118.981 22.6612 118.302L27.3489 106.768C27.9348 105.326 27.2096 103.614 25.7758 103.013C24.3421 102.411 22.6504 103.13 22.0644 104.572L18.5487 113.222L15.446 111.635C14.0637 110.92 12.3107 111.473 11.6121 112.862C10.9135 114.251 11.4748 116.023 12.8571 116.738L18.7245 119.756Z" fill="#FFCC00"/>
</g>
<g filter="url(#filter2_d)">
<path d="M30.7166 86.3834L49.7326 93.1843C51.2144 93.7143 52.8959 92.907 53.4318 91.4084C53.9678 89.9097 53.0676 88.273 51.6681 87.7725L32.6521 80.9716C31.1704 80.4416 29.4889 81.2489 28.9529 82.7475C28.4169 84.2462 29.2348 85.8535 30.7166 86.3834Z" fill="#FFCC00"/>
</g>
<defs>
<filter id="filter0_d" x="70" y="26" width="112.6" height="117.1" filterUnits="userSpaceOnUse" color-interpolation-filters="sRGB">
<feFlood flood-opacity="0" result="BackgroundImageFix"/>
<feColorMatrix in="SourceAlpha" type="matrix" values="0 0 0 0 0 0 0 0 0 0 0 0 0 0 0 0 0 0 127 0"/>
<feOffset dy="5"/>
<feGaussianBlur stdDeviation="5.5"/>
<feColorMatrix type="matrix" values="0 0 0 0 1 0 0 0 0 0.8 0 0 0 0 0 0 0 0 0.3 0"/>
<feBlend mode="normal" in2="BackgroundImageFix" result="effect1_dropShadow"/>
<feBlend mode="normal" in="SourceGraphic" in2="effect1_dropShadow" result="shape"/>
</filter>
<filter id="filter1_d" x="0.311501" y="96.7995" width="38.2411" height="39.2601" filterUnits="userSpaceOnUse" color-interpolation-filters="sRGB">
<feFlood flood-opacity="0" result="BackgroundImageFix"/>
<feColorMatrix in="SourceAlpha" type="matrix" values="0 0 0 0 0 0 0 0 0 0 0 0 0 0 0 0 0 0 127 0"/>
<feOffset dy="5"/>
<feGaussianBlur stdDeviation="5.5"/>
<feColorMatrix type="matrix" values="0 0 0 0 1 0 0 0 0 0.8 0 0 0 0 0 0 0 0 0.3 0"/>
<feBlend mode="normal" in2="BackgroundImageFix" result="effect1_dropShadow"/>
<feBlend mode="normal" in="SourceGraphic" in2="effect1_dropShadow" result="shape"/>
</filter>
<filter id="filter2_d" x="17.788" y="74.8086" width="46.8006" height="34.5387" filterUnits="userSpaceOnUse" color-interpolation-filters="sRGB">
<feFlood flood-opacity="0" result="BackgroundImageFix"/>
<feColorMatrix in="SourceAlpha" type="matrix" values="0 0 0 0 0 0 0 0 0 0 0 0 0 0 0 0 0 0 127 0"/>
<feOffset dy="5"/>
<feGaussianBlur stdDeviation="5.5"/>
<feColorMatrix type="matrix" values="0 0 0 0 1 0 0 0 0 0.8 0 0 0 0 0 0 0 0 0.3 0"/>
<feBlend mode="normal" in2="BackgroundImageFix" result="effect1_dropShadow"/>
<feBlend mode="normal" in="SourceGraphic" in2="effect1_dropShadow" result="shape"/>
</filter>
<linearGradient id="paint0_linear" x1="126.38" y1="0.999971" x2="126.38" y2="111" gradientUnits="userSpaceOnUse">
<stop stop-color="white"/>
<stop offset="1" stop-color="white" stop-opacity="0"/>
</linearGradient>
<linearGradient id="paint1_linear" x1="126.38" y1="0.999971" x2="126.38" y2="111" gradientUnits="userSpaceOnUse">
<stop stop-color="white"/>
<stop offset="1" stop-color="white" stop-opacity="0"/>
</linearGradient>
<linearGradient id="paint2_linear" x1="126.38" y1="0.999971" x2="126.38" y2="111" gradientUnits="userSpaceOnUse">
<stop stop-color="white"/>
<stop offset="1" stop-color="white" stop-opacity="0"/>
</linearGradient>
<linearGradient id="paint3_linear" x1="126.38" y1="0.999971" x2="126.38" y2="111" gradientUnits="userSpaceOnUse">
<stop stop-color="white"/>
<stop offset="1" stop-color="white" stop-opacity="0"/>
</linearGradient>
<linearGradient id="paint4_linear" x1="126.38" y1="0.999971" x2="126.38" y2="111" gradientUnits="userSpaceOnUse">
<stop stop-color="white"/>
<stop offset="1" stop-color="white" stop-opacity="0"/>
</linearGradient>
<linearGradient id="paint5_linear" x1="126.38" y1="0.999971" x2="126.38" y2="111" gradientUnits="userSpaceOnUse">
<stop stop-color="white"/>
<stop offset="1" stop-color="white" stop-opacity="0"/>
</linearGradient>
</defs>
</svg>
