<svg width="212" height="155" viewBox="0 0 212 155" fill="none" xmlns="http://www.w3.org/2000/svg">
<path d="M131.4 71H154.5C156.3 71 157.8 69.5 157.8 67.7C157.8 65.9 156.2 64.5 154.5 64.5H131.4C129.6 64.5 128.1 66 128.1 67.8C128.1 69.6 129.6 71 131.4 71Z" fill="#060606"/>
<path d="M131.4 71H154.5C156.3 71 157.8 69.5 157.8 67.7C157.8 65.9 156.2 64.5 154.5 64.5H131.4C129.6 64.5 128.1 66 128.1 67.8C128.1 69.6 129.6 71 131.4 71Z" fill="url(#paint0_linear)"/>
<path d="M104.9 75.1C105.5 75.8 106.4 76.1 107.3 76.1C108.2 76.1 109.1 75.7 109.7 75.1L119.3 64.7C120.5 63.4 120.4 61.3 119.1 60.1C117.8 58.9 115.7 59 114.5 60.3L107.3 68.1L104.6 65.2C103.4 63.9 101.3 63.8 100 65C98.7001 66.2 98.6001 68.3 99.8001 69.6L104.9 75.1Z" fill="#060606"/>
<path d="M104.9 75.1C105.5 75.8 106.4 76.1 107.3 76.1C108.2 76.1 109.1 75.7 109.7 75.1L119.3 64.7C120.5 63.4 120.4 61.3 119.1 60.1C117.8 58.9 115.7 59 114.5 60.3L107.3 68.1L104.6 65.2C103.4 63.9 101.3 63.8 100 65C98.7001 66.2 98.6001 68.3 99.8001 69.6L104.9 75.1Z" fill="url(#paint1_linear)"/>
<path d="M131.4 93.8H154.5C156.3 93.8 157.8 92.3 157.8 90.5C157.8 88.7 156.3 87.2 154.5 87.2H131.4C129.6 87.2 128.1 88.7 128.1 90.5C128.1 92.3 129.6 93.8 131.4 93.8Z" fill="#060606"/>
<path d="M131.4 93.8H154.5C156.3 93.8 157.8 92.3 157.8 90.5C157.8 88.7 156.3 87.2 154.5 87.2H131.4C129.6 87.2 128.1 88.7 128.1 90.5C128.1 92.3 129.6 93.8 131.4 93.8Z" fill="url(#paint2_linear)"/>
<path d="M104.9 97.9C105.5 98.6 106.4 98.9 107.3 98.9C108.2 98.9 109.1 98.5 109.7 97.9L119.3 87.5C120.5 86.2 120.4 84.1 119.1 82.9C117.8 81.7 115.7 81.8 114.5 83.1L107.3 90.9L104.6 88C103.4 86.7 101.3 86.6 100 87.8C98.7001 89 98.6001 91.1 99.8001 92.4L104.9 97.9Z" fill="#060606"/>
<path d="M104.9 97.9C105.5 98.6 106.4 98.9 107.3 98.9C108.2 98.9 109.1 98.5 109.7 97.9L119.3 87.5C120.5 86.2 120.4 84.1 119.1 82.9C117.8 81.7 115.7 81.8 114.5 83.1L107.3 90.9L104.6 88C103.4 86.7 101.3 86.6 100 87.8C98.7001 89 98.6001 91.1 99.8001 92.4L104.9 97.9Z" fill="url(#paint3_linear)"/>
<path d="M131.4 116.5H154.5C156.3 116.5 157.8 115 157.8 113.2C157.8 111.4 156.3 109.9 154.5 109.9H131.4C129.6 109.9 128.1 111.4 128.1 113.2C128.1 115.1 129.6 116.5 131.4 116.5Z" fill="#060606"/>
<path d="M131.4 116.5H154.5C156.3 116.5 157.8 115 157.8 113.2C157.8 111.4 156.3 109.9 154.5 109.9H131.4C129.6 109.9 128.1 111.4 128.1 113.2C128.1 115.1 129.6 116.5 131.4 116.5Z" fill="url(#paint4_linear)"/>
<path d="M104.9 120.7C105.5 121.4 106.4 121.7 107.3 121.7C108.2 121.7 109.1 121.3 109.7 120.7L119.3 110.3C120.5 109 120.4 106.9 119.1 105.7C117.8 104.5 115.7 104.6 114.5 105.9L107.3 113.7L104.6 110.8C103.4 109.5 101.3 109.4 100 110.6C98.7001 111.8 98.6001 113.9 99.8001 115.2L104.9 120.7Z" fill="#060606"/>
<path d="M104.9 120.7C105.5 121.4 106.4 121.7 107.3 121.7C108.2 121.7 109.1 121.3 109.7 120.7L119.3 110.3C120.5 109 120.4 106.9 119.1 105.7C117.8 104.5 115.7 104.6 114.5 105.9L107.3 113.7L104.6 110.8C103.4 109.5 101.3 109.4 100 110.6C98.7001 111.8 98.6001 113.9 99.8001 115.2L104.9 120.7Z" fill="url(#paint5_linear)"/>
<g filter="url(#filter0_d)">
<path d="M170.3 43H86.3C84.5 43 83 44.5 83 46.3V134.8C83 136.6 84.5 138.1 86.3 138.1H170.3C172.1 138.1 173.6 136.6 173.6 134.8V46.3C173.6 44.5 172.1 43 170.3 43ZM167.1 131.5H89.5V49.5H167.1V131.5Z" fill="url(#paint6_linear)"/>
</g>
<path opacity="0.5" d="M198.797 32.0289C198.982 32.5989 199.445 33.0007 199.983 33.2212C200.521 33.4417 201.158 33.4204 201.665 33.2048L209.978 29.2712C211.017 28.7795 211.478 27.4859 210.999 26.4422C210.519 25.3985 209.239 24.9445 208.2 25.4362L201.965 28.3863L201.071 25.9723C200.676 24.8926 199.446 24.3178 198.371 24.7245C197.297 25.1313 196.717 26.3759 197.112 27.4556L198.797 32.0289Z" fill="url(#paint7_linear)"/>
<path opacity="0.5" d="M195.406 46.9075L207.442 55.7218C208.38 56.4086 209.74 56.1905 210.435 55.242C211.13 54.2934 210.836 52.9451 209.951 52.2965L197.915 43.4822C196.977 42.7954 195.616 43.0135 194.922 43.962C194.227 44.9106 194.468 46.2207 195.406 46.9075Z" fill="url(#paint8_linear)"/>
<g filter="url(#filter1_d)">
<path d="M20.7245 130.756C21.431 131.155 22.261 131.131 22.9992 130.858C23.7373 130.586 24.3529 129.981 24.6612 129.302L29.3489 117.768C29.9348 116.326 29.2096 114.614 27.7758 114.013C26.3421 113.411 24.6504 114.13 24.0644 115.572L20.5487 124.222L17.446 122.635C16.0637 121.92 14.3107 122.473 13.6121 123.862C12.9135 125.251 13.4748 127.023 14.8571 127.738L20.7245 130.756Z" fill="url(#paint9_linear)"/>
</g>
<g filter="url(#filter2_d)">
<path d="M32.7166 97.3834L51.7326 104.184C53.2144 104.714 54.8959 103.907 55.4318 102.408C55.9678 100.91 55.0676 99.273 53.6681 98.7725L34.6521 91.9716C33.1704 91.4416 31.4889 92.2489 30.9529 93.7475C30.4169 95.2462 31.2348 96.8535 32.7166 97.3834Z" fill="url(#paint10_linear)"/>
</g>
<defs>
<filter id="filter0_d" x="72" y="37" width="112.6" height="117.1" filterUnits="userSpaceOnUse" color-interpolation-filters="sRGB">
<feFlood flood-opacity="0" result="BackgroundImageFix"/>
<feColorMatrix in="SourceAlpha" type="matrix" values="0 0 0 0 0 0 0 0 0 0 0 0 0 0 0 0 0 0 127 0"/>
<feOffset dy="5"/>
<feGaussianBlur stdDeviation="5.5"/>
<feColorMatrix type="matrix" values="0 0 0 0 1 0 0 0 0 0.8 0 0 0 0 0 0 0 0 0.3 0"/>
<feBlend mode="normal" in2="BackgroundImageFix" result="effect1_dropShadow"/>
<feBlend mode="normal" in="SourceGraphic" in2="effect1_dropShadow" result="shape"/>
</filter>
<filter id="filter1_d" x="0" y="107" width="44.5304" height="42.3843" filterUnits="userSpaceOnUse" color-interpolation-filters="sRGB">
<feFlood flood-opacity="0" result="BackgroundImageFix"/>
<feColorMatrix in="SourceAlpha" type="matrix" values="0 0 0 0 0 0 0 0 0 0 0 0 0 0 0 0 0 0 127 0"/>
<feOffset dy="5"/>
<feGaussianBlur stdDeviation="5.5"/>
<feColorMatrix type="matrix" values="0 0 0 0 1 0 0 0 0 0.8 0 0 0 0 0 0 0 0 0.3 0"/>
<feBlend mode="normal" in2="BackgroundImageFix" result="effect1_dropShadow"/>
<feBlend mode="normal" in="SourceGraphic" in2="effect1_dropShadow" result="shape"/>
</filter>
<filter id="filter2_d" x="19" y="85" width="48.3847" height="36.1559" filterUnits="userSpaceOnUse" color-interpolation-filters="sRGB">
<feFlood flood-opacity="0" result="BackgroundImageFix"/>
<feColorMatrix in="SourceAlpha" type="matrix" values="0 0 0 0 0 0 0 0 0 0 0 0 0 0 0 0 0 0 127 0"/>
<feOffset dy="5"/>
<feGaussianBlur stdDeviation="5.5"/>
<feColorMatrix type="matrix" values="0 0 0 0 1 0 0 0 0 0.8 0 0 0 0 0 0 0 0 0.3 0"/>
<feBlend mode="normal" in2="BackgroundImageFix" result="effect1_dropShadow"/>
<feBlend mode="normal" in="SourceGraphic" in2="effect1_dropShadow" result="shape"/>
</filter>
<linearGradient id="paint0_linear" x1="128.38" y1="12" x2="128.38" y2="122" gradientUnits="userSpaceOnUse">
<stop stop-color="white"/>
<stop offset="1" stop-color="white" stop-opacity="0"/>
</linearGradient>
<linearGradient id="paint1_linear" x1="128.38" y1="12" x2="128.38" y2="122" gradientUnits="userSpaceOnUse">
<stop stop-color="white"/>
<stop offset="1" stop-color="white" stop-opacity="0"/>
</linearGradient>
<linearGradient id="paint2_linear" x1="128.38" y1="12" x2="128.38" y2="122" gradientUnits="userSpaceOnUse">
<stop stop-color="white"/>
<stop offset="1" stop-color="white" stop-opacity="0"/>
</linearGradient>
<linearGradient id="paint3_linear" x1="128.38" y1="12" x2="128.38" y2="122" gradientUnits="userSpaceOnUse">
<stop stop-color="white"/>
<stop offset="1" stop-color="white" stop-opacity="0"/>
</linearGradient>
<linearGradient id="paint4_linear" x1="128.38" y1="12" x2="128.38" y2="122" gradientUnits="userSpaceOnUse">
<stop stop-color="white"/>
<stop offset="1" stop-color="white" stop-opacity="0"/>
</linearGradient>
<linearGradient id="paint5_linear" x1="128.38" y1="12" x2="128.38" y2="122" gradientUnits="userSpaceOnUse">
<stop stop-color="white"/>
<stop offset="1" stop-color="white" stop-opacity="0"/>
</linearGradient>
<linearGradient id="paint6_linear" x1="85.289" y1="80.8171" x2="236.493" y2="195.797" gradientUnits="userSpaceOnUse">
<stop stop-color="#FFDD00"/>
<stop offset="1" stop-color="#E30613"/>
</linearGradient>
<linearGradient id="paint7_linear" x1="197.832" y1="25.1784" x2="209.96" y2="30.7045" gradientUnits="userSpaceOnUse">
<stop stop-color="#FFDD00"/>
<stop offset="1" stop-color="#E30613"/>
</linearGradient>
<linearGradient id="paint8_linear" x1="195.589" y1="43.8714" x2="208.87" y2="56.7785" gradientUnits="userSpaceOnUse">
<stop stop-color="#FFDD00"/>
<stop offset="1" stop-color="#E30613"/>
</linearGradient>
<linearGradient id="paint9_linear" x1="13.4902" y1="124.808" x2="30.6425" y2="119.214" gradientUnits="userSpaceOnUse">
<stop stop-color="#FFDD00"/>
<stop offset="1" stop-color="#E30613"/>
</linearGradient>
<linearGradient id="paint10_linear" x1="31.7836" y1="93.373" x2="90.6513" y2="150.139" gradientUnits="userSpaceOnUse">
<stop stop-color="#FFDD00"/>
<stop offset="1" stop-color="#E30613"/>
</linearGradient>
</defs>
</svg>
