<svg width="201" height="148" viewBox="0 0 201 148" fill="none" xmlns="http://www.w3.org/2000/svg">
<g filter="url(#filter0_d)">
<path d="M65.3971 109.34C57.6431 101.973 52.9964 92.2072 52.9964 81.5599C52.9964 59.2819 73.6146 40.5001 99.9964 40.5001C126.378 40.5001 146.996 59.2819 146.996 81.5599C146.996 103.838 126.378 122.62 99.9964 122.62C97.5227 122.62 95.0957 122.453 92.7288 122.132C88.7121 121.587 84.7582 122.647 81.5007 124.667C78.6178 126.455 75.6073 127.603 72.4524 128.141C71.3029 128.337 70.3964 127.922 69.626 126.49C68.7773 124.911 68.4554 122.526 68.9763 120.322C69.9621 116.15 68.0982 111.906 65.3971 109.34Z" stroke="#FFCC00" stroke-width="7"/>
</g>
<g filter="url(#filter1_d)">
<path d="M162.487 45.839C162.509 45.7828 162.53 45.7263 162.551 45.6694C162.92 44.6577 162.546 43.663 162.014 43.0064C160.473 41.1076 159.717 38.7622 160.038 36.3628C160.706 31.3732 165.902 27.7434 171.877 28.5435C177.853 29.3436 181.911 34.2124 181.243 39.202C180.575 44.1915 175.379 47.8214 169.403 47.0213C168.764 46.9356 168.144 46.8024 167.55 46.6267C166.745 46.3888 165.903 46.495 165.191 46.8442C164.397 47.2335 163.595 47.4291 162.777 47.4433C162.671 47.4452 162.628 47.418 162.598 47.3939C162.556 47.3588 162.488 47.2774 162.432 47.1146C162.314 46.772 162.32 46.2688 162.487 45.839Z" stroke="#FFCC00" stroke-width="2"/>
</g>
<path opacity="0.25" d="M45.924 136.268C47.3941 134.504 48.1301 132.321 47.8681 130.078C47.3214 125.4 42.497 121.86 36.7938 122.527C31.0906 123.193 27.2121 127.75 27.7587 132.428C28.3054 137.106 33.1298 140.646 38.833 139.98C39.3657 139.917 39.8837 139.82 40.3847 139.692C41.3853 139.435 42.4062 139.589 43.2704 139.994C43.9105 140.295 44.5559 140.457 45.2139 140.492C45.2339 140.493 45.2473 140.492 45.2549 140.491C45.258 140.491 45.2603 140.491 45.262 140.49C45.2719 140.482 45.3112 140.442 45.3524 140.338C45.4555 140.078 45.4718 139.652 45.3319 139.267C44.9348 138.174 45.3073 137.008 45.924 136.268Z" stroke="#FFCC00" stroke-width="2.49272"/>
<path opacity="0.25" d="M144.566 17.7805C143.175 16.9651 142.165 15.696 141.803 14.1454C141.046 10.9073 143.404 7.42912 147.31 6.5163C151.217 5.60349 154.872 7.67666 155.628 10.9148C156.385 14.1529 154.027 17.6311 150.121 18.5439C149.845 18.6084 149.57 18.6578 149.296 18.6929C148.449 18.8017 147.703 19.2122 147.116 19.7314C146.81 20.0021 146.476 20.212 146.114 20.3644C146.051 20.3908 146.024 20.3836 146.01 20.3794C145.985 20.372 145.932 20.3464 145.862 20.268C145.715 20.1008 145.597 19.8014 145.597 19.4943C145.599 18.7389 145.113 18.1017 144.566 17.7805Z" stroke="#FFCC00" stroke-width="1.5"/>
<path d="M89.4964 82.0001C89.4964 85.3138 86.8101 88.0001 83.4964 88.0001C80.1827 88.0001 77.4964 85.3138 77.4964 82.0001C77.4964 78.6863 80.1827 76.0001 83.4964 76.0001C86.8101 76.0001 89.4964 78.6863 89.4964 82.0001Z" fill="#060606"/>
<path d="M89.4964 82.0001C89.4964 85.3138 86.8101 88.0001 83.4964 88.0001C80.1827 88.0001 77.4964 85.3138 77.4964 82.0001C77.4964 78.6863 80.1827 76.0001 83.4964 76.0001C86.8101 76.0001 89.4964 78.6863 89.4964 82.0001Z" fill="url(#paint0_linear)"/>
<path d="M106.496 82.0001C106.496 85.3138 103.81 88.0001 100.496 88.0001C97.1827 88.0001 94.4964 85.3138 94.4964 82.0001C94.4964 78.6863 97.1827 76.0001 100.496 76.0001C103.81 76.0001 106.496 78.6863 106.496 82.0001Z" fill="#060606"/>
<path d="M106.496 82.0001C106.496 85.3138 103.81 88.0001 100.496 88.0001C97.1827 88.0001 94.4964 85.3138 94.4964 82.0001C94.4964 78.6863 97.1827 76.0001 100.496 76.0001C103.81 76.0001 106.496 78.6863 106.496 82.0001Z" fill="url(#paint1_linear)"/>
<path d="M123.496 82.0001C123.496 85.3138 120.81 88.0001 117.496 88.0001C114.183 88.0001 111.496 85.3138 111.496 82.0001C111.496 78.6863 114.183 76.0001 117.496 76.0001C120.81 76.0001 123.496 78.6863 123.496 82.0001Z" fill="#060606"/>
<path d="M123.496 82.0001C123.496 85.3138 120.81 88.0001 117.496 88.0001C114.183 88.0001 111.496 85.3138 111.496 82.0001C111.496 78.6863 114.183 76.0001 117.496 76.0001C120.81 76.0001 123.496 78.6863 123.496 82.0001Z" fill="url(#paint2_linear)"/>
<g filter="url(#filter2_d)">
<circle cx="14.6779" cy="129.012" r="2.5" transform="rotate(4.2378 14.6779 129.012)" fill="#FFCC00"/>
</g>
<defs>
<filter id="filter0_d" x="38.4964" y="31.0001" width="123" height="116.688" filterUnits="userSpaceOnUse" color-interpolation-filters="sRGB">
<feFlood flood-opacity="0" result="BackgroundImageFix"/>
<feColorMatrix in="SourceAlpha" type="matrix" values="0 0 0 0 0 0 0 0 0 0 0 0 0 0 0 0 0 0 127 0"/>
<feOffset dy="5"/>
<feGaussianBlur stdDeviation="5.5"/>
<feColorMatrix type="matrix" values="0 0 0 0 1 0 0 0 0 0.8 0 0 0 0 0 0 0 0 0.3 0"/>
<feBlend mode="normal" in2="BackgroundImageFix" result="effect1_dropShadow"/>
<feBlend mode="normal" in="SourceGraphic" in2="effect1_dropShadow" result="shape"/>
</filter>
<filter id="filter1_d" x="155.517" y="24.9162" width="30.0739" height="28.8303" filterUnits="userSpaceOnUse" color-interpolation-filters="sRGB">
<feFlood flood-opacity="0" result="BackgroundImageFix"/>
<feColorMatrix in="SourceAlpha" type="matrix" values="0 0 0 0 0 0 0 0 0 0 0 0 0 0 0 0 0 0 127 0"/>
<feOffset dy="0.903178"/>
<feGaussianBlur stdDeviation="0.993496"/>
<feColorMatrix type="matrix" values="0 0 0 0 1 0 0 0 0 0.8 0 0 0 0 0 0 0 0 0.3 0"/>
<feBlend mode="normal" in2="BackgroundImageFix" result="effect1_dropShadow"/>
<feBlend mode="normal" in="SourceGraphic" in2="effect1_dropShadow" result="shape"/>
</filter>
<filter id="filter2_d" x="1" y="120.334" width="27.3558" height="27.3558" filterUnits="userSpaceOnUse" color-interpolation-filters="sRGB">
<feFlood flood-opacity="0" result="BackgroundImageFix"/>
<feColorMatrix in="SourceAlpha" type="matrix" values="0 0 0 0 0 0 0 0 0 0 0 0 0 0 0 0 0 0 127 0"/>
<feOffset dy="5"/>
<feGaussianBlur stdDeviation="5.5"/>
<feColorMatrix type="matrix" values="0 0 0 0 1 0 0 0 0 0.8 0 0 0 0 0 0 0 0 0.3 0"/>
<feBlend mode="normal" in2="BackgroundImageFix" result="effect1_dropShadow"/>
<feBlend mode="normal" in="SourceGraphic" in2="effect1_dropShadow" result="shape"/>
</filter>
<linearGradient id="paint0_linear" x1="117.496" y1="68.0001" x2="117.496" y2="88.0001" gradientUnits="userSpaceOnUse">
<stop stop-color="white"/>
<stop offset="1" stop-color="white" stop-opacity="0"/>
</linearGradient>
<linearGradient id="paint1_linear" x1="117.496" y1="68.0001" x2="117.496" y2="88.0001" gradientUnits="userSpaceOnUse">
<stop stop-color="white"/>
<stop offset="1" stop-color="white" stop-opacity="0"/>
</linearGradient>
<linearGradient id="paint2_linear" x1="117.496" y1="68.0001" x2="117.496" y2="88.0001" gradientUnits="userSpaceOnUse">
<stop stop-color="white"/>
<stop offset="1" stop-color="white" stop-opacity="0"/>
</linearGradient>
</defs>
</svg>
