<svg width="200" height="154" viewBox="0 0 200 154" fill="none" xmlns="http://www.w3.org/2000/svg">
<g filter="url(#filter0_d)">
<path d="M67.3971 115.34C59.6431 107.973 54.9964 98.2072 54.9964 87.5599C54.9964 65.2819 75.6146 46.5001 101.996 46.5001C128.378 46.5001 148.996 65.2819 148.996 87.5599C148.996 109.838 128.378 128.62 101.996 128.62C99.5227 128.62 97.0956 128.453 94.7288 128.132C90.7121 127.587 86.7582 128.647 83.5007 130.667C80.6178 132.455 77.6073 133.603 74.4524 134.141C73.3029 134.337 72.3963 133.922 71.626 132.49C70.7773 130.911 70.4554 128.526 70.9763 126.322C71.9621 122.15 70.0982 117.906 67.3971 115.34Z" stroke="url(#paint0_linear)" stroke-width="7"/>
</g>
<g filter="url(#filter1_d)">
<path d="M164.487 51.839C164.509 51.7828 164.53 51.7263 164.551 51.6694C164.92 50.6577 164.546 49.663 164.014 49.0064C162.473 47.1076 161.717 44.7622 162.038 42.3628C162.706 37.3732 167.902 33.7434 173.877 34.5435C179.853 35.3436 183.911 40.2124 183.243 45.202C182.575 50.1915 177.379 53.8214 171.403 53.0213C170.764 52.9356 170.144 52.8024 169.55 52.6267C168.745 52.3888 167.903 52.495 167.191 52.8442C166.397 53.2335 165.595 53.4291 164.777 53.4433C164.671 53.4452 164.628 53.418 164.598 53.3939C164.556 53.3588 164.488 53.2774 164.432 53.1146C164.314 52.772 164.32 52.2688 164.487 51.839Z" stroke="url(#paint1_linear)" stroke-width="2"/>
</g>
<path opacity="0.25" d="M47.924 142.268C49.3941 140.504 50.1301 138.321 49.8681 136.078C49.3214 131.4 44.4969 127.86 38.7938 128.527C33.0906 129.193 29.2121 133.75 29.7587 138.428C30.3054 143.106 35.1298 146.646 40.833 145.98C41.3657 145.917 41.8837 145.82 42.3847 145.692C43.3853 145.435 44.4062 145.589 45.2704 145.994C45.9104 146.295 46.5559 146.457 47.2139 146.492C47.2339 146.493 47.2473 146.492 47.2549 146.491C47.258 146.491 47.2603 146.491 47.262 146.49C47.2719 146.482 47.3112 146.442 47.3524 146.338C47.4555 146.078 47.4718 145.652 47.3319 145.267C46.9348 144.174 47.3073 143.008 47.924 142.268Z" stroke="url(#paint2_linear)" stroke-width="2.49272"/>
<path opacity="0.25" d="M146.566 23.7805C145.175 22.9651 144.165 21.696 143.803 20.1454C143.046 16.9073 145.404 13.4291 149.31 12.5163C153.217 11.6035 156.872 13.6767 157.628 16.9148C158.385 20.1529 156.027 23.6311 152.121 24.5439C151.845 24.6084 151.57 24.6578 151.296 24.6929C150.449 24.8017 149.703 25.2122 149.116 25.7314C148.81 26.0021 148.476 26.212 148.114 26.3644C148.051 26.3908 148.024 26.3836 148.01 26.3794C147.985 26.372 147.932 26.3464 147.862 26.268C147.715 26.1008 147.597 25.8014 147.597 25.4943C147.599 24.7389 147.113 24.1017 146.566 23.7805Z" stroke="url(#paint3_linear)" stroke-width="1.5"/>
<path d="M91.4964 88.0001C91.4964 91.3138 88.8101 94.0001 85.4964 94.0001C82.1827 94.0001 79.4964 91.3138 79.4964 88.0001C79.4964 84.6863 82.1827 82.0001 85.4964 82.0001C88.8101 82.0001 91.4964 84.6863 91.4964 88.0001Z" fill="#060606"/>
<path d="M91.4964 88.0001C91.4964 91.3138 88.8101 94.0001 85.4964 94.0001C82.1827 94.0001 79.4964 91.3138 79.4964 88.0001C79.4964 84.6863 82.1827 82.0001 85.4964 82.0001C88.8101 82.0001 91.4964 84.6863 91.4964 88.0001Z" fill="url(#paint4_linear)"/>
<path d="M108.496 88.0001C108.496 91.3138 105.81 94.0001 102.496 94.0001C99.1827 94.0001 96.4964 91.3138 96.4964 88.0001C96.4964 84.6863 99.1827 82.0001 102.496 82.0001C105.81 82.0001 108.496 84.6863 108.496 88.0001Z" fill="#060606"/>
<path d="M108.496 88.0001C108.496 91.3138 105.81 94.0001 102.496 94.0001C99.1827 94.0001 96.4964 91.3138 96.4964 88.0001C96.4964 84.6863 99.1827 82.0001 102.496 82.0001C105.81 82.0001 108.496 84.6863 108.496 88.0001Z" fill="url(#paint5_linear)"/>
<path d="M125.496 88.0001C125.496 91.3138 122.81 94.0001 119.496 94.0001C116.183 94.0001 113.496 91.3138 113.496 88.0001C113.496 84.6863 116.183 82.0001 119.496 82.0001C122.81 82.0001 125.496 84.6863 125.496 88.0001Z" fill="#060606"/>
<path d="M125.496 88.0001C125.496 91.3138 122.81 94.0001 119.496 94.0001C116.183 94.0001 113.496 91.3138 113.496 88.0001C113.496 84.6863 116.183 82.0001 119.496 82.0001C122.81 82.0001 125.496 84.6863 125.496 88.0001Z" fill="url(#paint6_linear)"/>
<g filter="url(#filter2_d)">
<circle cx="16.6779" cy="135.012" r="2.5" transform="rotate(4.2378 16.6779 135.012)" fill="url(#paint7_linear)"/>
</g>
<defs>
<filter id="filter0_d" x="40.4964" y="37.0001" width="123" height="116.688" filterUnits="userSpaceOnUse" color-interpolation-filters="sRGB">
<feFlood flood-opacity="0" result="BackgroundImageFix"/>
<feColorMatrix in="SourceAlpha" type="matrix" values="0 0 0 0 0 0 0 0 0 0 0 0 0 0 0 0 0 0 127 0"/>
<feOffset dy="5"/>
<feGaussianBlur stdDeviation="5.5"/>
<feColorMatrix type="matrix" values="0 0 0 0 1 0 0 0 0 0.8 0 0 0 0 0 0 0 0 0.3 0"/>
<feBlend mode="normal" in2="BackgroundImageFix" result="effect1_dropShadow"/>
<feBlend mode="normal" in="SourceGraphic" in2="effect1_dropShadow" result="shape"/>
</filter>
<filter id="filter1_d" x="157.517" y="30.9162" width="30.0739" height="28.8303" filterUnits="userSpaceOnUse" color-interpolation-filters="sRGB">
<feFlood flood-opacity="0" result="BackgroundImageFix"/>
<feColorMatrix in="SourceAlpha" type="matrix" values="0 0 0 0 0 0 0 0 0 0 0 0 0 0 0 0 0 0 127 0"/>
<feOffset dy="0.903178"/>
<feGaussianBlur stdDeviation="0.993496"/>
<feColorMatrix type="matrix" values="0 0 0 0 1 0 0 0 0 0.8 0 0 0 0 0 0 0 0 0.3 0"/>
<feBlend mode="normal" in2="BackgroundImageFix" result="effect1_dropShadow"/>
<feBlend mode="normal" in="SourceGraphic" in2="effect1_dropShadow" result="shape"/>
</filter>
<filter id="filter2_d" x="3" y="126.334" width="27.3558" height="27.3558" filterUnits="userSpaceOnUse" color-interpolation-filters="sRGB">
<feFlood flood-opacity="0" result="BackgroundImageFix"/>
<feColorMatrix in="SourceAlpha" type="matrix" values="0 0 0 0 0 0 0 0 0 0 0 0 0 0 0 0 0 0 127 0"/>
<feOffset dy="5"/>
<feGaussianBlur stdDeviation="5.5"/>
<feColorMatrix type="matrix" values="0 0 0 0 1 0 0 0 0 0.8 0 0 0 0 0 0 0 0 0.3 0"/>
<feBlend mode="normal" in2="BackgroundImageFix" result="effect1_dropShadow"/>
<feBlend mode="normal" in="SourceGraphic" in2="effect1_dropShadow" result="shape"/>
</filter>
<linearGradient id="paint0_linear" x1="54.0481" y1="80.7774" x2="241.37" y2="200.875" gradientUnits="userSpaceOnUse">
<stop stop-color="#FFDD00"/>
<stop offset="1" stop-color="#E30613"/>
</linearGradient>
<linearGradient id="paint1_linear" x1="161.841" y1="40.7514" x2="184.324" y2="44.5185" gradientUnits="userSpaceOnUse">
<stop stop-color="#FFDD00"/>
<stop offset="1" stop-color="#E30613"/>
</linearGradient>
<linearGradient id="paint2_linear" x1="50.3582" y1="134.484" x2="28.4471" y2="137.778" gradientUnits="userSpaceOnUse">
<stop stop-color="#FFDD00"/>
<stop offset="1" stop-color="#E30613"/>
</linearGradient>
<linearGradient id="paint3_linear" x1="143.219" y1="19.1993" x2="158.221" y2="16.2108" gradientUnits="userSpaceOnUse">
<stop stop-color="#FFDD00"/>
<stop offset="1" stop-color="#E30613"/>
</linearGradient>
<linearGradient id="paint4_linear" x1="119.496" y1="74.0001" x2="119.496" y2="94.0001" gradientUnits="userSpaceOnUse">
<stop stop-color="white"/>
<stop offset="1" stop-color="white" stop-opacity="0"/>
</linearGradient>
<linearGradient id="paint5_linear" x1="119.496" y1="74.0001" x2="119.496" y2="94.0001" gradientUnits="userSpaceOnUse">
<stop stop-color="white"/>
<stop offset="1" stop-color="white" stop-opacity="0"/>
</linearGradient>
<linearGradient id="paint6_linear" x1="119.496" y1="74.0001" x2="119.496" y2="94.0001" gradientUnits="userSpaceOnUse">
<stop stop-color="white"/>
<stop offset="1" stop-color="white" stop-opacity="0"/>
</linearGradient>
<linearGradient id="paint7_linear" x1="14.3042" y1="134.5" x2="19.1743" y2="134.651" gradientUnits="userSpaceOnUse">
<stop stop-color="#FFDD00"/>
<stop offset="1" stop-color="#E30613"/>
</linearGradient>
</defs>
</svg>
