<svg width="185" height="144" viewBox="0 0 185 144" fill="none" xmlns="http://www.w3.org/2000/svg">
<g filter="url(#filter0_d)">
<path d="M64.3971 105.34C56.6431 97.9734 51.9964 88.2072 51.9964 77.5599C51.9964 55.2819 72.6146 36.5001 98.9964 36.5001C125.378 36.5001 145.996 55.2819 145.996 77.5599C145.996 99.8379 125.378 118.62 98.9964 118.62C96.5227 118.62 94.0956 118.453 91.7288 118.132C87.7121 117.587 83.7582 118.647 80.5007 120.667C77.6178 122.455 74.6073 123.603 71.4524 124.141C70.3029 124.337 69.3963 123.922 68.626 122.49C67.7773 120.911 67.4554 118.526 67.9763 116.322C68.9621 112.15 67.0982 107.906 64.3971 105.34Z" stroke="#FFCC00" stroke-width="7"/>
</g>
<g filter="url(#filter1_d)">
<path d="M161.487 41.839C161.509 41.7828 161.53 41.7263 161.551 41.6694C161.92 40.6577 161.546 39.663 161.014 39.0064C159.473 37.1076 158.717 34.7622 159.038 32.3628C159.706 27.3732 164.902 23.7434 170.877 24.5435C176.853 25.3436 180.911 30.2124 180.243 35.202C179.575 40.1915 174.379 43.8214 168.403 43.0213C167.764 42.9356 167.144 42.8024 166.55 42.6267C165.745 42.3888 164.903 42.495 164.191 42.8442C163.397 43.2335 162.595 43.4291 161.777 43.4433C161.671 43.4452 161.628 43.418 161.598 43.3939C161.556 43.3588 161.488 43.2774 161.432 43.1146C161.314 42.772 161.32 42.2688 161.487 41.839Z" stroke="#FFCC00" stroke-width="2"/>
</g>
<path opacity="0.25" d="M44.924 132.268C46.3941 130.504 47.1301 128.321 46.8681 126.078C46.3214 121.4 41.4969 117.86 35.7938 118.527C30.0906 119.193 26.2121 123.75 26.7587 128.428C27.3054 133.106 32.1298 136.646 37.833 135.98C38.3657 135.917 38.8837 135.82 39.3847 135.692C40.3853 135.435 41.4062 135.589 42.2704 135.994C42.9104 136.295 43.5559 136.457 44.2139 136.492C44.2339 136.493 44.2473 136.492 44.2549 136.491C44.258 136.491 44.2603 136.491 44.262 136.49C44.2719 136.482 44.3112 136.442 44.3524 136.338C44.4555 136.078 44.4718 135.652 44.3319 135.267C43.9348 134.174 44.3073 133.008 44.924 132.268Z" stroke="#FFCC00" stroke-width="2.49272"/>
<path opacity="0.25" d="M143.566 13.7805C142.175 12.9651 141.165 11.696 140.803 10.1454C140.046 6.9073 142.404 3.42912 146.31 2.5163C150.217 1.60349 153.872 3.67666 154.628 6.91478C155.385 10.1529 153.027 13.6311 149.121 14.5439C148.845 14.6084 148.57 14.6578 148.296 14.6929C147.449 14.8017 146.703 15.2122 146.116 15.7314C145.81 16.0021 145.476 16.212 145.114 16.3644C145.051 16.3908 145.024 16.3836 145.01 16.3794C144.985 16.372 144.932 16.3464 144.862 16.268C144.715 16.1008 144.597 15.8014 144.597 15.4943C144.599 14.7389 144.113 14.1017 143.566 13.7805Z" stroke="#FFCC00" stroke-width="1.5"/>
<path d="M88.4964 78.0001C88.4964 81.3138 85.8101 84.0001 82.4964 84.0001C79.1827 84.0001 76.4964 81.3138 76.4964 78.0001C76.4964 74.6863 79.1827 72.0001 82.4964 72.0001C85.8101 72.0001 88.4964 74.6863 88.4964 78.0001Z" fill="#060606"/>
<path d="M88.4964 78.0001C88.4964 81.3138 85.8101 84.0001 82.4964 84.0001C79.1827 84.0001 76.4964 81.3138 76.4964 78.0001C76.4964 74.6863 79.1827 72.0001 82.4964 72.0001C85.8101 72.0001 88.4964 74.6863 88.4964 78.0001Z" fill="url(#paint0_linear)"/>
<path d="M105.496 78.0001C105.496 81.3138 102.81 84.0001 99.4964 84.0001C96.1827 84.0001 93.4964 81.3138 93.4964 78.0001C93.4964 74.6863 96.1827 72.0001 99.4964 72.0001C102.81 72.0001 105.496 74.6863 105.496 78.0001Z" fill="#060606"/>
<path d="M105.496 78.0001C105.496 81.3138 102.81 84.0001 99.4964 84.0001C96.1827 84.0001 93.4964 81.3138 93.4964 78.0001C93.4964 74.6863 96.1827 72.0001 99.4964 72.0001C102.81 72.0001 105.496 74.6863 105.496 78.0001Z" fill="url(#paint1_linear)"/>
<path d="M122.496 78.0001C122.496 81.3138 119.81 84.0001 116.496 84.0001C113.183 84.0001 110.496 81.3138 110.496 78.0001C110.496 74.6863 113.183 72.0001 116.496 72.0001C119.81 72.0001 122.496 74.6863 122.496 78.0001Z" fill="#060606"/>
<path d="M122.496 78.0001C122.496 81.3138 119.81 84.0001 116.496 84.0001C113.183 84.0001 110.496 81.3138 110.496 78.0001C110.496 74.6863 113.183 72.0001 116.496 72.0001C119.81 72.0001 122.496 74.6863 122.496 78.0001Z" fill="url(#paint2_linear)"/>
<g filter="url(#filter2_d)">
<circle cx="13.6779" cy="125.012" r="2.5" transform="rotate(4.2378 13.6779 125.012)" fill="#FFCC00"/>
</g>
<defs>
<filter id="filter0_d" x="37.4964" y="27.0001" width="123" height="116.688" filterUnits="userSpaceOnUse" color-interpolation-filters="sRGB">
<feFlood flood-opacity="0" result="BackgroundImageFix"/>
<feColorMatrix in="SourceAlpha" type="matrix" values="0 0 0 0 0 0 0 0 0 0 0 0 0 0 0 0 0 0 127 0"/>
<feOffset dy="5"/>
<feGaussianBlur stdDeviation="5.5"/>
<feColorMatrix type="matrix" values="0 0 0 0 1 0 0 0 0 0.8 0 0 0 0 0 0 0 0 0.3 0"/>
<feBlend mode="normal" in2="BackgroundImageFix" result="effect1_dropShadow"/>
<feBlend mode="normal" in="SourceGraphic" in2="effect1_dropShadow" result="shape"/>
</filter>
<filter id="filter1_d" x="154.517" y="20.9162" width="30.0739" height="28.8303" filterUnits="userSpaceOnUse" color-interpolation-filters="sRGB">
<feFlood flood-opacity="0" result="BackgroundImageFix"/>
<feColorMatrix in="SourceAlpha" type="matrix" values="0 0 0 0 0 0 0 0 0 0 0 0 0 0 0 0 0 0 127 0"/>
<feOffset dy="0.903178"/>
<feGaussianBlur stdDeviation="0.993496"/>
<feColorMatrix type="matrix" values="0 0 0 0 1 0 0 0 0 0.8 0 0 0 0 0 0 0 0 0.3 0"/>
<feBlend mode="normal" in2="BackgroundImageFix" result="effect1_dropShadow"/>
<feBlend mode="normal" in="SourceGraphic" in2="effect1_dropShadow" result="shape"/>
</filter>
<filter id="filter2_d" x="0" y="116.334" width="27.3558" height="27.3558" filterUnits="userSpaceOnUse" color-interpolation-filters="sRGB">
<feFlood flood-opacity="0" result="BackgroundImageFix"/>
<feColorMatrix in="SourceAlpha" type="matrix" values="0 0 0 0 0 0 0 0 0 0 0 0 0 0 0 0 0 0 127 0"/>
<feOffset dy="5"/>
<feGaussianBlur stdDeviation="5.5"/>
<feColorMatrix type="matrix" values="0 0 0 0 1 0 0 0 0 0.8 0 0 0 0 0 0 0 0 0.3 0"/>
<feBlend mode="normal" in2="BackgroundImageFix" result="effect1_dropShadow"/>
<feBlend mode="normal" in="SourceGraphic" in2="effect1_dropShadow" result="shape"/>
</filter>
<linearGradient id="paint0_linear" x1="116.496" y1="64.0001" x2="116.496" y2="84.0001" gradientUnits="userSpaceOnUse">
<stop stop-color="white"/>
<stop offset="1" stop-color="white" stop-opacity="0"/>
</linearGradient>
<linearGradient id="paint1_linear" x1="116.496" y1="64.0001" x2="116.496" y2="84.0001" gradientUnits="userSpaceOnUse">
<stop stop-color="white"/>
<stop offset="1" stop-color="white" stop-opacity="0"/>
</linearGradient>
<linearGradient id="paint2_linear" x1="116.496" y1="64.0001" x2="116.496" y2="84.0001" gradientUnits="userSpaceOnUse">
<stop stop-color="white"/>
<stop offset="1" stop-color="white" stop-opacity="0"/>
</linearGradient>
</defs>
</svg>
