<svg width="208" height="155" viewBox="0 0 208 155" fill="none" xmlns="http://www.w3.org/2000/svg">
<g filter="url(#filter0_d)">
<rect x="4.5" y="0.5" width="199" height="138" stroke="black"/>
</g>
<g filter="url(#filter1_d)">
<path d="M94.9986 45.9998C82.7107 45.9998 71.1536 50.8327 62.4573 59.6147C44.5181 77.7472 44.5104 107.248 62.4573 125.384C71.14 134.165 82.698 138.998 94.9907 139C107.284 138.998 118.845 134.161 127.539 125.376C145.487 107.244 145.487 77.7431 127.539 59.6147C118.855 50.8367 107.294 45.9998 94.9986 45.9998ZM94.9986 53.8971H95.0149C105.22 53.8971 114.815 57.913 122.03 65.1983C136.924 80.2468 136.924 104.741 122.03 119.793C114.807 127.086 105.212 131.102 94.9992 131.102C84.7945 131.102 75.1994 127.09 67.9847 119.801C53.0821 104.745 53.0821 80.2509 67.9847 65.1983C75.1994 57.913 84.7938 53.8971 94.9986 53.8971Z" fill="url(#paint0_linear)"/>
</g>
<mask id="mask0" mask-type="alpha" maskUnits="userSpaceOnUse" x="11" y="33" width="100" height="93">
<rect x="11" y="33.9998" width="100" height="92" fill="url(#paint1_linear)"/>
</mask>
<g mask="url(#mask0)">
<path d="M96.6914 99.0276C104.126 99.0276 110.173 93.4137 110.173 86.514C110.173 79.6143 104.126 73.9998 96.6914 73.9998H87.034C85.7568 73.9998 84.7221 74.9608 84.7221 76.1457C84.7221 76.3288 84.7492 76.5058 84.7957 76.6755C84.7492 76.8452 84.7221 77.0221 84.7221 77.2052V94.7352H83.4853C82.208 94.7352 81.1733 95.6962 81.1733 96.8811C81.1733 98.0666 82.2086 99.027 83.4853 99.027H84.7221V101.809H83.4853C82.208 101.809 81.1733 102.769 81.1733 103.954C81.1733 105.139 82.2086 106.1 83.4853 106.1H84.7221V109.854C84.7221 111.039 85.7574 112 87.034 112C88.3113 112 89.346 111.039 89.346 109.854V106.1H96.1678C97.445 106.1 98.4797 105.139 98.4797 103.954C98.4797 102.769 97.4444 101.809 96.1678 101.809H89.346V99.027L96.6914 99.0276ZM89.346 78.2922H96.6914C101.576 78.2922 105.549 81.9803 105.549 86.5134C105.549 91.0471 101.576 94.7352 96.6914 94.7352H89.346V78.2922Z" fill="#060606" stroke="#060606"/>
</g>
<path opacity="0.5" d="M179.752 49.3829C185.198 51.3222 191.093 48.7872 192.893 43.7327C194.693 38.6781 191.727 32.9874 186.281 31.0481L179.207 28.5287C178.271 28.1955 177.262 28.6296 176.953 29.4976C176.905 29.6318 176.879 29.7685 176.869 29.9049C176.79 30.0171 176.724 30.1397 176.677 30.2738L172.104 43.1159L171.198 42.7933C170.262 42.4601 169.253 42.8941 168.944 43.7622C168.635 44.6307 169.143 45.6043 170.078 45.9373L170.984 46.26L170.258 48.2976L169.352 47.975C168.417 47.6418 167.408 48.0759 167.099 48.9439C166.79 49.812 167.297 50.786 168.233 51.1191L169.139 51.4417L168.16 54.1916C167.85 55.06 168.358 56.0337 169.293 56.3667C170.229 56.6999 171.238 56.2659 171.547 55.3978L172.526 52.648L177.524 54.4276C178.459 54.7608 179.468 54.3267 179.777 53.4586C180.086 52.5906 179.578 51.6165 178.643 51.2835L173.646 49.5039L174.371 47.4662L179.752 49.3829ZM179.78 32.2763L185.162 34.1925C188.74 35.4668 190.689 39.2052 189.506 42.526C188.323 45.8473 184.45 47.5126 180.872 46.2384L175.491 44.3222L179.78 32.2763Z" fill="url(#paint2_linear)" stroke="url(#paint3_linear)"/>
<path opacity="0.25" d="M144.986 26.5572C147.741 25.2996 149.033 22.1957 147.866 19.6383C146.699 17.081 143.507 16.0231 140.752 17.2808L137.172 18.9146C136.699 19.1307 136.478 19.6619 136.678 20.1011C136.709 20.169 136.749 20.23 136.795 20.285C136.807 20.3557 136.827 20.4259 136.858 20.4938L139.823 26.9912L139.365 27.2005C138.891 27.4165 138.67 27.9477 138.871 28.3869C139.072 28.8263 139.618 29.0072 140.091 28.7912L140.549 28.5819L141.02 29.6129L140.561 29.8221C140.088 30.0382 139.867 30.5694 140.068 31.0086C140.268 31.4478 140.814 31.6288 141.288 31.4129L141.746 31.2036L142.381 32.5949C142.582 33.0343 143.128 33.2151 143.601 32.9991C144.074 32.7831 144.295 32.2518 144.095 31.8126L143.46 30.4214L145.988 29.2673C146.462 29.0512 146.683 28.52 146.482 28.0808C146.282 27.6416 145.735 27.4606 145.262 27.6766L142.734 28.8306L142.263 27.7997L144.986 26.5572ZM138.755 20.1144L141.478 18.8717C143.288 18.0454 145.385 18.7402 146.152 20.4204C146.919 22.1008 146.07 24.14 144.26 24.9663L141.537 26.209L138.755 20.1144Z" fill="url(#paint4_linear)" stroke="url(#paint5_linear)" stroke-width="0.5"/>
<g filter="url(#filter2_d)">
<path d="M30.5061 128.58C33.1469 127.097 34.1752 123.896 32.7986 121.445C31.4219 118.994 28.1534 118.207 25.5125 119.69L22.0819 121.617C21.6282 121.871 21.4524 122.419 21.6888 122.84C21.7253 122.905 21.7703 122.963 21.8206 123.014C21.838 123.083 21.8636 123.152 21.9002 123.217L25.3978 129.444L24.9584 129.691C24.5047 129.945 24.3289 130.493 24.5653 130.914C24.8018 131.335 25.3612 131.47 25.8147 131.215L26.2541 130.968L26.809 131.956L26.3697 132.203C25.916 132.458 25.7401 133.006 25.9766 133.427C26.213 133.848 26.7725 133.983 27.226 133.728L27.6653 133.481L28.4143 134.814C28.6508 135.236 29.2102 135.37 29.6637 135.115C30.1174 134.861 30.2932 134.313 30.0568 133.892L29.3079 132.558L31.7312 131.197C32.1849 130.943 32.3608 130.395 32.1243 129.974C31.8879 129.553 31.3284 129.418 30.8749 129.673L28.4516 131.034L27.8966 130.046L30.5061 128.58ZM23.7596 122.68L26.3689 121.215C28.1041 120.24 30.2514 120.757 31.1559 122.368C32.0605 123.978 31.3848 126.081 29.6497 127.056L27.0403 128.521L23.7596 122.68Z" fill="url(#paint6_linear)"/>
<path d="M30.5061 128.58C33.1469 127.097 34.1752 123.896 32.7986 121.445C31.4219 118.994 28.1534 118.207 25.5125 119.69L22.0819 121.617C21.6282 121.871 21.4524 122.419 21.6888 122.84C21.7253 122.905 21.7703 122.963 21.8206 123.014C21.838 123.083 21.8636 123.152 21.9002 123.217L25.3978 129.444L24.9584 129.691C24.5047 129.945 24.3289 130.493 24.5653 130.914C24.8018 131.335 25.3612 131.47 25.8147 131.215L26.2541 130.968L26.809 131.956L26.3697 132.203C25.916 132.458 25.7401 133.006 25.9766 133.427C26.213 133.848 26.7725 133.983 27.226 133.728L27.6653 133.481L28.4143 134.814C28.6508 135.236 29.2102 135.37 29.6637 135.115C30.1174 134.861 30.2932 134.313 30.0568 133.892L29.3079 132.558L31.7312 131.197C32.1849 130.943 32.3608 130.395 32.1243 129.974C31.8879 129.553 31.3284 129.418 30.8749 129.673L28.4516 131.034L27.8966 130.046L30.5061 128.58ZM23.7596 122.68L26.3689 121.215C28.1041 120.24 30.2514 120.757 31.1559 122.368C32.0605 123.978 31.3848 126.081 29.6497 127.056L27.0403 128.521L23.7596 122.68Z" stroke="url(#paint7_linear)" stroke-width="0.75"/>
</g>
<defs>
<filter id="filter0_d" x="0" y="0" width="208" height="147" filterUnits="userSpaceOnUse" color-interpolation-filters="sRGB">
<feFlood flood-opacity="0" result="BackgroundImageFix"/>
<feColorMatrix in="SourceAlpha" type="matrix" values="0 0 0 0 0 0 0 0 0 0 0 0 0 0 0 0 0 0 127 0"/>
<feOffset dy="4"/>
<feGaussianBlur stdDeviation="2"/>
<feColorMatrix type="matrix" values="0 0 0 0 0 0 0 0 0 0 0 0 0 0 0 0 0 0 0.25 0"/>
<feBlend mode="normal" in2="BackgroundImageFix" result="effect1_dropShadow"/>
<feBlend mode="normal" in="SourceGraphic" in2="effect1_dropShadow" result="shape"/>
</filter>
<filter id="filter1_d" x="38" y="39.9998" width="114" height="115" filterUnits="userSpaceOnUse" color-interpolation-filters="sRGB">
<feFlood flood-opacity="0" result="BackgroundImageFix"/>
<feColorMatrix in="SourceAlpha" type="matrix" values="0 0 0 0 0 0 0 0 0 0 0 0 0 0 0 0 0 0 127 0"/>
<feOffset dy="5"/>
<feGaussianBlur stdDeviation="5.5"/>
<feColorMatrix type="matrix" values="0 0 0 0 1 0 0 0 0 0.8 0 0 0 0 0 0 0 0 0.3 0"/>
<feBlend mode="normal" in2="BackgroundImageFix" result="effect1_dropShadow"/>
<feBlend mode="normal" in="SourceGraphic" in2="effect1_dropShadow" result="shape"/>
</filter>
<filter id="filter2_d" x="14.4894" y="116.489" width="28.9047" height="30.3061" filterUnits="userSpaceOnUse" color-interpolation-filters="sRGB">
<feFlood flood-opacity="0" result="BackgroundImageFix"/>
<feColorMatrix in="SourceAlpha" type="matrix" values="0 0 0 0 0 0 0 0 0 0 0 0 0 0 0 0 0 0 127 0"/>
<feOffset dy="5"/>
<feGaussianBlur stdDeviation="2.5"/>
<feColorMatrix type="matrix" values="0 0 0 0 1 0 0 0 0 0.8 0 0 0 0 0 0 0 0 0.3 0"/>
<feBlend mode="normal" in2="BackgroundImageFix" result="effect1_dropShadow"/>
<feBlend mode="normal" in="SourceGraphic" in2="effect1_dropShadow" result="shape"/>
</filter>
<linearGradient id="paint0_linear" x1="51.3243" y1="82.9818" x2="291.052" y2="274.566" gradientUnits="userSpaceOnUse">
<stop stop-color="#FFDD00"/>
<stop offset="1" stop-color="#E30613"/>
</linearGradient>
<linearGradient id="paint1_linear" x1="13.5264" y1="70.5842" x2="256.114" y2="-144.472" gradientUnits="userSpaceOnUse">
<stop stop-color="#FFDD00"/>
<stop offset="1" stop-color="#E30613"/>
</linearGradient>
<linearGradient id="paint2_linear" x1="171.508" y1="38.2609" x2="192.035" y2="46.1219" gradientUnits="userSpaceOnUse">
<stop stop-color="#FFDD00"/>
<stop offset="1" stop-color="#E30613"/>
</linearGradient>
<linearGradient id="paint3_linear" x1="171.508" y1="38.2609" x2="192.035" y2="46.1219" gradientUnits="userSpaceOnUse">
<stop stop-color="#FFDD00"/>
<stop offset="1" stop-color="#E30613"/>
</linearGradient>
<linearGradient id="paint4_linear" x1="137.828" y1="25.3829" x2="148.415" y2="20.8499" gradientUnits="userSpaceOnUse">
<stop stop-color="#FFDD00"/>
<stop offset="1" stop-color="#E30613"/>
</linearGradient>
<linearGradient id="paint5_linear" x1="137.828" y1="25.3829" x2="148.415" y2="20.8499" gradientUnits="userSpaceOnUse">
<stop stop-color="#FFDD00"/>
<stop offset="1" stop-color="#E30613"/>
</linearGradient>
<linearGradient id="paint6_linear" x1="23.2752" y1="128.008" x2="33.4466" y2="122.607" gradientUnits="userSpaceOnUse">
<stop stop-color="#FFDD00"/>
<stop offset="1" stop-color="#E30613"/>
</linearGradient>
<linearGradient id="paint7_linear" x1="23.2752" y1="128.008" x2="33.4466" y2="122.607" gradientUnits="userSpaceOnUse">
<stop stop-color="#FFDD00"/>
<stop offset="1" stop-color="#E30613"/>
</linearGradient>
</defs>
</svg>
