<svg width="202" height="143" viewBox="0 0 202 143" fill="none" xmlns="http://www.w3.org/2000/svg">
<g filter="url(#filter0_d)">
<path d="M102.509 126.351C76.7685 126.351 55.9477 105.644 55.9477 80.2473C55.8333 54.8505 76.7685 34.1441 102.509 34.1441C128.249 34.1441 149.069 54.8505 149.069 80.2473C149.069 105.644 128.134 126.351 102.509 126.351ZM102.509 44.3257C82.3741 44.3257 66.0149 60.4561 66.0149 80.2473C66.0149 100.039 82.3741 116.169 102.509 116.169C122.529 116.169 138.888 100.039 138.888 80.2473C138.888 60.4561 122.529 44.3257 102.509 44.3257Z" fill="#FFCC00"/>
</g>
<mask id="mask0" mask-type="alpha" maskUnits="userSpaceOnUse" x="55" y="34" width="101" height="92">
<rect x="55.1738" y="34.0001" width="100" height="92" fill="url(#paint0_linear)"/>
</mask>
<g mask="url(#mask0)">
<path d="M104.692 86.0278C112.126 86.0278 118.174 80.4139 118.174 73.5142C118.174 66.6146 112.126 61.0001 104.692 61.0001H95.0345C93.7573 61.0001 92.7226 61.961 92.7226 63.146C92.7226 63.3291 92.7497 63.506 92.7962 63.6757C92.7497 63.8454 92.7226 64.0224 92.7226 64.2055V81.7355H91.4858C90.2085 81.7355 89.1738 82.6964 89.1738 83.8814C89.1738 85.0669 90.2091 86.0273 91.4858 86.0273H92.7226V88.8088H91.4858C90.2085 88.8088 89.1738 89.7697 89.1738 90.9547C89.1738 92.1396 90.2091 93.1006 91.4858 93.1006H92.7226V96.8542C92.7226 98.0397 93.7579 99.0001 95.0345 99.0001C96.3118 99.0001 97.3465 98.0391 97.3465 96.8542V93.1006H104.168C105.445 93.1006 106.48 92.1396 106.48 90.9547C106.48 89.7697 105.445 88.8088 104.168 88.8088H97.3465V86.0273L104.692 86.0278ZM97.3465 65.2924H104.692C109.576 65.2924 113.55 68.9805 113.55 73.5137C113.55 78.0474 109.576 81.7355 104.692 81.7355H97.3465V65.2924Z" fill="#060606" stroke="#060606"/>
</g>
<path opacity="0.5" d="M184.753 36.3831C190.199 38.3225 196.094 35.7875 197.894 30.7329C199.694 25.6784 196.728 19.9877 191.282 18.0483L184.207 15.529C183.272 15.1958 182.263 15.6298 181.954 16.4979C181.906 16.632 181.88 16.7687 181.87 16.9052C181.791 17.0174 181.725 17.1399 181.678 17.2741L177.105 30.1162L176.198 29.7935C175.263 29.4603 174.254 29.8944 173.945 30.7624C173.636 31.6309 174.144 32.6046 175.079 32.9376L175.985 33.2602L175.259 35.2979L174.353 34.9752C173.418 34.6421 172.409 35.0761 172.1 35.9442C171.791 36.8122 172.298 37.7863 173.234 38.1193L174.14 38.442L173.161 41.1918C172.851 42.0603 173.359 43.0339 174.294 43.3669C175.23 43.7001 176.239 43.2661 176.548 42.398L177.527 39.6482L182.525 41.4278C183.46 41.761 184.469 41.3269 184.778 40.4589C185.087 39.5908 184.579 38.6168 183.644 38.2837L178.647 36.5041L179.372 34.4665L184.753 36.3831ZM184.781 19.2766L190.163 21.1928C193.741 22.467 195.69 26.2054 194.507 29.5263C193.324 32.8476 189.451 34.5128 185.873 33.2386L180.492 31.3224L184.781 19.2766Z" fill="#FFCC00" stroke="#FFCC00"/>
<path opacity="0.25" d="M149.986 13.5572C152.741 12.2996 154.033 9.19565 152.866 6.63832C151.699 4.08099 148.507 3.02313 145.752 4.2808L142.172 5.9146C141.699 6.13068 141.478 6.6619 141.678 7.10109C141.709 7.16896 141.749 7.22996 141.795 7.28499C141.807 7.35574 141.827 7.42592 141.858 7.49379L144.823 13.9912L144.365 14.2005C143.891 14.4165 143.67 14.9477 143.871 15.3869C144.072 15.8263 144.618 16.0072 145.091 15.7912L145.549 15.5819L146.02 16.6129L145.561 16.8221C145.088 17.0382 144.867 17.5694 145.068 18.0086C145.268 18.4478 145.814 18.6288 146.288 18.4129L146.746 18.2036L147.381 19.5949C147.582 20.0343 148.128 20.2151 148.601 19.9991C149.074 19.7831 149.295 19.2518 149.095 18.8126L148.46 17.4214L150.988 16.2673C151.462 16.0512 151.683 15.52 151.482 15.0808C151.282 14.6416 150.735 14.4606 150.262 14.6766L147.734 15.8306L147.263 14.7997L149.986 13.5572ZM143.755 7.11442L146.478 5.87174C148.288 5.0454 150.385 5.74017 151.152 7.42036C151.919 9.10075 151.07 11.14 149.26 11.9663L146.537 13.209L143.755 7.11442Z" fill="#FFCC00" stroke="#FFCC00" stroke-width="0.5"/>
<g filter="url(#filter1_d)">
<path d="M35.5061 115.581C38.1469 114.097 39.1752 110.897 37.7986 108.446C36.4219 105.995 33.1534 105.207 30.5125 106.69L27.0819 108.617C26.6282 108.872 26.4524 109.42 26.6888 109.84C26.7253 109.905 26.7703 109.963 26.8206 110.014C26.838 110.083 26.8636 110.152 26.9002 110.217L30.3978 116.444L29.9584 116.691C29.5047 116.946 29.3289 117.493 29.5653 117.914C29.8018 118.336 30.3612 118.47 30.8147 118.215L31.2541 117.969L31.809 118.957L31.3697 119.203C30.916 119.458 30.7401 120.006 30.9766 120.427C31.213 120.848 31.7725 120.983 32.226 120.728L32.6653 120.481L33.4143 121.815C33.6508 122.236 34.2102 122.37 34.6637 122.116C35.1174 121.861 35.2932 121.313 35.0568 120.892L34.3079 119.559L36.7312 118.198C37.1849 117.943 37.3608 117.395 37.1243 116.974C36.8879 116.553 36.3284 116.418 35.8749 116.673L33.4516 118.034L32.8966 117.046L35.5061 115.581ZM28.7596 109.68L31.3689 108.215C33.1041 107.24 35.2514 107.758 36.1559 109.368C37.0605 110.978 36.3848 113.081 34.6497 114.056L32.0403 115.521L28.7596 109.68Z" fill="#FFCC00"/>
<path d="M35.5061 115.581C38.1469 114.097 39.1752 110.897 37.7986 108.446C36.4219 105.995 33.1534 105.207 30.5125 106.69L27.0819 108.617C26.6282 108.872 26.4524 109.42 26.6888 109.84C26.7253 109.905 26.7703 109.963 26.8206 110.014C26.838 110.083 26.8636 110.152 26.9002 110.217L30.3978 116.444L29.9584 116.691C29.5047 116.946 29.3289 117.493 29.5653 117.914C29.8018 118.336 30.3612 118.47 30.8147 118.215L31.2541 117.969L31.809 118.957L31.3697 119.203C30.916 119.458 30.7401 120.006 30.9766 120.427C31.213 120.848 31.7725 120.983 32.226 120.728L32.6653 120.481L33.4143 121.815C33.6508 122.236 34.2102 122.37 34.6637 122.116C35.1174 121.861 35.2932 121.313 35.0568 120.892L34.3079 119.559L36.7312 118.198C37.1849 117.943 37.3608 117.395 37.1243 116.974C36.8879 116.553 36.3284 116.418 35.8749 116.673L33.4516 118.034L32.8966 117.046L35.5061 115.581ZM28.7596 109.68L31.3689 108.215C33.1041 107.24 35.2514 107.758 36.1559 109.368C37.0605 110.978 36.3848 113.081 34.6497 114.056L32.0403 115.521L28.7596 109.68Z" stroke="#FFCC00" stroke-width="0.75"/>
</g>
<defs>
<filter id="filter0_d" x="44.9473" y="28.1441" width="115.122" height="114.206" filterUnits="userSpaceOnUse" color-interpolation-filters="sRGB">
<feFlood flood-opacity="0" result="BackgroundImageFix"/>
<feColorMatrix in="SourceAlpha" type="matrix" values="0 0 0 0 0 0 0 0 0 0 0 0 0 0 0 0 0 0 127 0"/>
<feOffset dy="5"/>
<feGaussianBlur stdDeviation="5.5"/>
<feColorMatrix type="matrix" values="0 0 0 0 1 0 0 0 0 0.8 0 0 0 0 0 0 0 0 0.3 0"/>
<feBlend mode="normal" in2="BackgroundImageFix" result="effect1_dropShadow"/>
<feBlend mode="normal" in="SourceGraphic" in2="effect1_dropShadow" result="shape"/>
</filter>
<filter id="filter1_d" x="19.4894" y="103.49" width="28.9047" height="30.3061" filterUnits="userSpaceOnUse" color-interpolation-filters="sRGB">
<feFlood flood-opacity="0" result="BackgroundImageFix"/>
<feColorMatrix in="SourceAlpha" type="matrix" values="0 0 0 0 0 0 0 0 0 0 0 0 0 0 0 0 0 0 127 0"/>
<feOffset dy="5"/>
<feGaussianBlur stdDeviation="2.5"/>
<feColorMatrix type="matrix" values="0 0 0 0 1 0 0 0 0 0.8 0 0 0 0 0 0 0 0 0.3 0"/>
<feBlend mode="normal" in2="BackgroundImageFix" result="effect1_dropShadow"/>
<feBlend mode="normal" in="SourceGraphic" in2="effect1_dropShadow" result="shape"/>
</filter>
<linearGradient id="paint0_linear" x1="92.6738" y1="115.88" x2="119.202" y2="11.7014" gradientUnits="userSpaceOnUse">
<stop offset="0.161484" stop-color="white"/>
<stop offset="1" stop-color="white" stop-opacity="0"/>
</linearGradient>
</defs>
</svg>
