<svg width="200" height="155" viewBox="0 0 200 155" fill="none" xmlns="http://www.w3.org/2000/svg">
<g filter="url(#filter0_d)">
<path d="M90.9986 45.9998C78.7107 45.9998 67.1536 50.8327 58.4573 59.6147C40.5181 77.7472 40.5104 107.248 58.4573 125.384C67.14 134.165 78.698 138.998 90.9907 139C103.284 138.998 114.845 134.161 123.539 125.376C141.487 107.244 141.487 77.7431 123.539 59.6147C114.855 50.8367 103.294 45.9998 90.9986 45.9998ZM90.9986 53.8971H91.0149C101.22 53.8971 110.815 57.913 118.03 65.1983C132.924 80.2468 132.924 104.741 118.03 119.793C110.807 127.086 101.212 131.102 90.9992 131.102C80.7945 131.102 71.1994 127.09 63.9847 119.801C49.0821 104.745 49.0821 80.2509 63.9847 65.1983C71.1994 57.913 80.7938 53.8971 90.9986 53.8971Z" fill="url(#paint0_linear)"/>
</g>
<mask id="mask0" mask-type="alpha" maskUnits="userSpaceOnUse" x="7" y="33" width="100" height="93">
<rect x="7" y="33.9998" width="100" height="92" fill="url(#paint1_linear)"/>
</mask>
<g mask="url(#mask0)">
<path d="M92.6914 99.0276C100.126 99.0276 106.173 93.4137 106.173 86.514C106.173 79.6143 100.126 73.9998 92.6914 73.9998H83.034C81.7568 73.9998 80.7221 74.9608 80.7221 76.1457C80.7221 76.3288 80.7492 76.5058 80.7957 76.6755C80.7492 76.8452 80.7221 77.0221 80.7221 77.2052V94.7352H79.4853C78.208 94.7352 77.1733 95.6962 77.1733 96.8811C77.1733 98.0666 78.2086 99.027 79.4853 99.027H80.7221V101.809H79.4853C78.208 101.809 77.1733 102.769 77.1733 103.954C77.1733 105.139 78.2086 106.1 79.4853 106.1H80.7221V109.854C80.7221 111.039 81.7574 112 83.034 112C84.3113 112 85.346 111.039 85.346 109.854V106.1H92.1678C93.445 106.1 94.4797 105.139 94.4797 103.954C94.4797 102.769 93.4444 101.809 92.1678 101.809H85.346V99.027L92.6914 99.0276ZM85.346 78.2922H92.6914C97.576 78.2922 101.549 81.9803 101.549 86.5134C101.549 91.0471 97.576 94.7352 92.6914 94.7352H85.346V78.2922Z" fill="#060606" stroke="#060606"/>
</g>
<path opacity="0.5" d="M175.752 49.3829C181.198 51.3222 187.093 48.7872 188.893 43.7327C190.693 38.6781 187.727 32.9874 182.281 31.0481L175.207 28.5287C174.271 28.1955 173.262 28.6296 172.953 29.4976C172.905 29.6318 172.879 29.7685 172.869 29.9049C172.79 30.0171 172.724 30.1397 172.677 30.2738L168.104 43.1159L167.198 42.7933C166.262 42.4601 165.253 42.8941 164.944 43.7622C164.635 44.6307 165.143 45.6043 166.078 45.9373L166.984 46.26L166.258 48.2976L165.352 47.975C164.417 47.6418 163.408 48.0759 163.099 48.9439C162.79 49.812 163.297 50.786 164.233 51.1191L165.139 51.4417L164.16 54.1916C163.85 55.06 164.358 56.0337 165.293 56.3667C166.229 56.6999 167.238 56.2659 167.547 55.3978L168.526 52.648L173.524 54.4276C174.459 54.7608 175.468 54.3267 175.777 53.4586C176.086 52.5906 175.578 51.6165 174.643 51.2835L169.646 49.5039L170.371 47.4662L175.752 49.3829ZM175.78 32.2763L181.162 34.1925C184.74 35.4668 186.689 39.2052 185.506 42.526C184.323 45.8473 180.45 47.5126 176.872 46.2384L171.491 44.3222L175.78 32.2763Z" fill="url(#paint2_linear)" stroke="url(#paint3_linear)"/>
<path opacity="0.25" d="M140.986 26.5572C143.741 25.2996 145.033 22.1957 143.866 19.6383C142.699 17.081 139.507 16.0231 136.752 17.2808L133.172 18.9146C132.699 19.1307 132.478 19.6619 132.678 20.1011C132.709 20.169 132.749 20.23 132.795 20.285C132.807 20.3557 132.827 20.4259 132.858 20.4938L135.823 26.9912L135.365 27.2005C134.891 27.4165 134.67 27.9477 134.871 28.3869C135.072 28.8263 135.618 29.0072 136.091 28.7912L136.549 28.5819L137.02 29.6129L136.561 29.8221C136.088 30.0382 135.867 30.5694 136.068 31.0086C136.268 31.4478 136.814 31.6288 137.288 31.4129L137.746 31.2036L138.381 32.5949C138.582 33.0343 139.128 33.2151 139.601 32.9991C140.074 32.7831 140.295 32.2518 140.095 31.8126L139.46 30.4214L141.988 29.2673C142.462 29.0512 142.683 28.52 142.482 28.0808C142.282 27.6416 141.735 27.4606 141.262 27.6766L138.734 28.8306L138.263 27.7997L140.986 26.5572ZM134.755 20.1144L137.478 18.8717C139.288 18.0454 141.385 18.7402 142.152 20.4204C142.919 22.1008 142.07 24.14 140.26 24.9663L137.537 26.209L134.755 20.1144Z" fill="url(#paint4_linear)" stroke="url(#paint5_linear)" stroke-width="0.5"/>
<g filter="url(#filter1_d)">
<path d="M26.5061 128.58C29.1469 127.097 30.1752 123.896 28.7986 121.445C27.4219 118.994 24.1534 118.207 21.5125 119.69L18.0819 121.617C17.6282 121.871 17.4524 122.419 17.6888 122.84C17.7253 122.905 17.7703 122.963 17.8206 123.014C17.838 123.083 17.8636 123.152 17.9002 123.217L21.3978 129.444L20.9584 129.691C20.5047 129.945 20.3289 130.493 20.5653 130.914C20.8018 131.335 21.3612 131.47 21.8147 131.215L22.2541 130.968L22.809 131.956L22.3697 132.203C21.916 132.458 21.7401 133.006 21.9766 133.427C22.213 133.848 22.7725 133.983 23.226 133.728L23.6653 133.481L24.4143 134.814C24.6508 135.236 25.2102 135.37 25.6637 135.115C26.1174 134.861 26.2932 134.313 26.0568 133.892L25.3079 132.558L27.7312 131.197C28.1849 130.943 28.3608 130.395 28.1243 129.974C27.8879 129.553 27.3284 129.418 26.8749 129.673L24.4516 131.034L23.8966 130.046L26.5061 128.58ZM19.7596 122.68L22.3689 121.215C24.1041 120.24 26.2514 120.757 27.1559 122.368C28.0605 123.978 27.3848 126.081 25.6497 127.056L23.0403 128.521L19.7596 122.68Z" fill="url(#paint6_linear)"/>
<path d="M26.5061 128.58C29.1469 127.097 30.1752 123.896 28.7986 121.445C27.4219 118.994 24.1534 118.207 21.5125 119.69L18.0819 121.617C17.6282 121.871 17.4524 122.419 17.6888 122.84C17.7253 122.905 17.7703 122.963 17.8206 123.014C17.838 123.083 17.8636 123.152 17.9002 123.217L21.3978 129.444L20.9584 129.691C20.5047 129.945 20.3289 130.493 20.5653 130.914C20.8018 131.335 21.3612 131.47 21.8147 131.215L22.2541 130.968L22.809 131.956L22.3697 132.203C21.916 132.458 21.7401 133.006 21.9766 133.427C22.213 133.848 22.7725 133.983 23.226 133.728L23.6653 133.481L24.4143 134.814C24.6508 135.236 25.2102 135.37 25.6637 135.115C26.1174 134.861 26.2932 134.313 26.0568 133.892L25.3079 132.558L27.7312 131.197C28.1849 130.943 28.3608 130.395 28.1243 129.974C27.8879 129.553 27.3284 129.418 26.8749 129.673L24.4516 131.034L23.8966 130.046L26.5061 128.58ZM19.7596 122.68L22.3689 121.215C24.1041 120.24 26.2514 120.757 27.1559 122.368C28.0605 123.978 27.3848 126.081 25.6497 127.056L23.0403 128.521L19.7596 122.68Z" stroke="url(#paint7_linear)" stroke-width="0.75"/>
</g>
<defs>
<filter id="filter0_d" x="34" y="39.9998" width="114" height="115" filterUnits="userSpaceOnUse" color-interpolation-filters="sRGB">
<feFlood flood-opacity="0" result="BackgroundImageFix"/>
<feColorMatrix in="SourceAlpha" type="matrix" values="0 0 0 0 0 0 0 0 0 0 0 0 0 0 0 0 0 0 127 0"/>
<feOffset dy="5"/>
<feGaussianBlur stdDeviation="5.5"/>
<feColorMatrix type="matrix" values="0 0 0 0 1 0 0 0 0 0.8 0 0 0 0 0 0 0 0 0.3 0"/>
<feBlend mode="normal" in2="BackgroundImageFix" result="effect1_dropShadow"/>
<feBlend mode="normal" in="SourceGraphic" in2="effect1_dropShadow" result="shape"/>
</filter>
<filter id="filter1_d" x="10.4894" y="116.489" width="28.9047" height="30.3061" filterUnits="userSpaceOnUse" color-interpolation-filters="sRGB">
<feFlood flood-opacity="0" result="BackgroundImageFix"/>
<feColorMatrix in="SourceAlpha" type="matrix" values="0 0 0 0 0 0 0 0 0 0 0 0 0 0 0 0 0 0 127 0"/>
<feOffset dy="5"/>
<feGaussianBlur stdDeviation="2.5"/>
<feColorMatrix type="matrix" values="0 0 0 0 1 0 0 0 0 0.8 0 0 0 0 0 0 0 0 0.3 0"/>
<feBlend mode="normal" in2="BackgroundImageFix" result="effect1_dropShadow"/>
<feBlend mode="normal" in="SourceGraphic" in2="effect1_dropShadow" result="shape"/>
</filter>
<linearGradient id="paint0_linear" x1="47.3243" y1="82.9818" x2="287.052" y2="274.566" gradientUnits="userSpaceOnUse">
<stop stop-color="#FFDD00"/>
<stop offset="1" stop-color="#E30613"/>
</linearGradient>
<linearGradient id="paint1_linear" x1="9.52644" y1="70.5842" x2="252.114" y2="-144.472" gradientUnits="userSpaceOnUse">
<stop stop-color="#FFDD00"/>
<stop offset="1" stop-color="#E30613"/>
</linearGradient>
<linearGradient id="paint2_linear" x1="167.508" y1="38.2609" x2="188.035" y2="46.1219" gradientUnits="userSpaceOnUse">
<stop stop-color="#FFDD00"/>
<stop offset="1" stop-color="#E30613"/>
</linearGradient>
<linearGradient id="paint3_linear" x1="167.508" y1="38.2609" x2="188.035" y2="46.1219" gradientUnits="userSpaceOnUse">
<stop stop-color="#FFDD00"/>
<stop offset="1" stop-color="#E30613"/>
</linearGradient>
<linearGradient id="paint4_linear" x1="133.828" y1="25.3829" x2="144.415" y2="20.8499" gradientUnits="userSpaceOnUse">
<stop stop-color="#FFDD00"/>
<stop offset="1" stop-color="#E30613"/>
</linearGradient>
<linearGradient id="paint5_linear" x1="133.828" y1="25.3829" x2="144.415" y2="20.8499" gradientUnits="userSpaceOnUse">
<stop stop-color="#FFDD00"/>
<stop offset="1" stop-color="#E30613"/>
</linearGradient>
<linearGradient id="paint6_linear" x1="19.2752" y1="128.008" x2="29.4466" y2="122.607" gradientUnits="userSpaceOnUse">
<stop stop-color="#FFDD00"/>
<stop offset="1" stop-color="#E30613"/>
</linearGradient>
<linearGradient id="paint7_linear" x1="19.2752" y1="128.008" x2="29.4466" y2="122.607" gradientUnits="userSpaceOnUse">
<stop stop-color="#FFDD00"/>
<stop offset="1" stop-color="#E30613"/>
</linearGradient>
</defs>
</svg>
