<svg width="215" height="154" viewBox="0 0 215 154" fill="none" xmlns="http://www.w3.org/2000/svg">
<g filter="url(#filter0_d)">
<path d="M113.999 45C101.711 45 90.1536 49.8329 81.4573 58.6149C63.5181 76.7474 63.5104 106.248 81.4573 124.385C90.14 133.165 101.698 137.998 113.991 138C126.284 137.998 137.845 133.161 146.539 124.377C164.487 106.244 164.487 76.7433 146.539 58.6149C137.855 49.8369 126.294 45 113.999 45ZM113.999 52.8973H114.015C124.22 52.8973 133.815 56.9131 141.03 64.1985C155.924 79.2469 155.924 103.741 141.03 118.793C133.807 126.087 124.212 130.102 113.999 130.102C103.795 130.102 94.1994 126.09 86.9847 118.801C72.0821 103.745 72.0821 79.251 86.9847 64.1985C94.1994 56.9131 103.794 52.8973 113.999 52.8973Z" fill="url(#paint0_linear)"/>
</g>
<path d="M127.679 73.3592C128.448 72.4152 129.564 71.9211 130.691 71.9161C131.567 71.9121 132.45 72.2039 133.182 72.8103C134.855 74.1963 135.089 76.68 133.725 78.3701L111.35 105.928C110.638 106.805 109.595 107.326 108.473 107.369C108.434 107.377 108.387 107.377 108.333 107.377C107.265 107.377 106.242 106.935 105.499 106.149L95.3606 95.3932C93.8716 93.8138 93.9342 91.314 95.4975 89.8095C97.0531 88.3052 99.5272 88.3643 101.024 89.9478L108.114 97.4661L127.679 73.3592Z" fill="#060606"/>
<path d="M127.679 73.3592C128.448 72.4152 129.564 71.9211 130.691 71.9161C131.567 71.9121 132.45 72.2039 133.182 72.8103C134.855 74.1963 135.089 76.68 133.725 78.3701L111.35 105.928C110.638 106.805 109.595 107.326 108.473 107.369C108.434 107.377 108.387 107.377 108.333 107.377C107.265 107.377 106.242 106.935 105.499 106.149L95.3606 95.3932C93.8716 93.8138 93.9342 91.314 95.4975 89.8095C97.0531 88.3052 99.5272 88.3643 101.024 89.9478L108.114 97.4661L127.679 73.3592Z" fill="url(#paint1_linear)"/>
<g filter="url(#filter1_d)">
<path d="M30.5072 38.0431C30.7859 37.3644 31.3428 36.8846 31.9915 36.6849C32.4961 36.5295 33.0562 36.5435 33.5841 36.7653C34.7907 37.2722 35.3599 38.6632 34.8686 39.876L26.7816 59.6739C26.5246 60.3036 26.0141 60.7863 25.3748 61.0073C25.3538 61.0189 25.3267 61.0271 25.2953 61.0367C24.68 61.2231 24.0124 61.1469 23.447 60.8237L15.7225 56.393C14.588 55.7425 14.1874 54.2903 14.826 53.1497C15.4601 52.0106 16.8969 51.6125 18.0365 52.264L23.4377 55.3603L30.5072 38.0431Z" fill="url(#paint2_linear)"/>
</g>
<path opacity="0.25" d="M210.575 130.329C211.216 130.161 211.865 130.301 212.362 130.659C212.748 130.938 213.043 131.349 213.17 131.85C213.462 132.995 212.77 134.162 211.629 134.468L192.967 139.417C192.374 139.575 191.748 139.469 191.241 139.129C191.221 139.12 191.201 139.105 191.177 139.088C190.708 138.746 190.399 138.224 190.324 137.641L189.312 129.666C189.163 128.494 189.991 127.416 191.16 127.255C192.326 127.092 193.395 127.91 193.546 129.085L194.254 134.661L210.575 130.329Z" fill="url(#paint3_linear)"/>
<path d="M52.433 67.7807L52.4326 67.781L46.7034 71.9793L45.6624 70.0713L45.6623 70.0711C45.3471 69.495 44.628 69.2865 44.0569 69.6074C43.4869 69.9261 43.278 70.6482 43.591 71.2221C43.591 71.2221 43.591 71.2221 43.591 71.2221L45.2749 74.3103L45.2751 74.3106C45.4313 74.596 45.6963 74.8042 46.0091 74.8863C46.0093 74.8863 46.0098 74.8865 46.0104 74.8866C46.0166 74.8883 46.0381 74.8943 46.0646 74.898C46.3917 74.9665 46.7313 74.8933 47.0023 74.6946L53.8172 69.7029L53.8178 69.7025C54.3426 69.3156 54.4654 68.5755 54.0833 68.0429C53.9161 67.8099 53.6799 67.6564 53.4232 67.5902C53.0936 67.5053 52.7296 67.5643 52.433 67.7807Z" fill="url(#paint4_linear)" stroke="url(#paint5_linear)" stroke-width="0.5"/>
<path opacity="0.2" d="M39.412 127.299L39.4121 127.299C39.5523 126.673 39.9624 126.176 40.4931 125.908C40.9063 125.699 41.3928 125.628 41.8811 125.742C42.9972 126.001 43.6911 127.116 43.4469 128.232L43.4467 128.232L39.8801 144.301C39.7525 144.877 39.3882 145.366 38.876 145.653C38.8458 145.673 38.8157 145.688 38.8012 145.695C38.7997 145.696 38.7983 145.697 38.7971 145.698C38.2924 145.95 37.7046 145.982 37.1697 145.787L37.1694 145.787L30.7344 143.428C30.7344 143.428 30.7343 143.428 30.7343 143.428C29.6606 143.034 29.1017 141.843 29.4838 140.765C29.4838 140.765 29.4838 140.765 29.4839 140.765L29.7195 140.849C30.0527 139.902 31.0911 139.414 32.0402 139.76L39.412 127.299ZM39.412 127.299L36.3573 141.076L39.412 127.299Z" fill="url(#paint6_linear)" stroke="url(#paint7_linear)" stroke-width="0.5"/>
<defs>
<filter id="filter0_d" x="57" y="39" width="114" height="115" filterUnits="userSpaceOnUse" color-interpolation-filters="sRGB">
<feFlood flood-opacity="0" result="BackgroundImageFix"/>
<feColorMatrix in="SourceAlpha" type="matrix" values="0 0 0 0 0 0 0 0 0 0 0 0 0 0 0 0 0 0 127 0"/>
<feOffset dy="5"/>
<feGaussianBlur stdDeviation="5.5"/>
<feColorMatrix type="matrix" values="0 0 0 0 1 0 0 0 0 0.8 0 0 0 0 0 0 0 0 0.3 0"/>
<feBlend mode="normal" in2="BackgroundImageFix" result="effect1_dropShadow"/>
<feBlend mode="normal" in="SourceGraphic" in2="effect1_dropShadow" result="shape"/>
</filter>
<filter id="filter1_d" x="0" y="30" width="51.4467" height="49.491" filterUnits="userSpaceOnUse" color-interpolation-filters="sRGB">
<feFlood flood-opacity="0" result="BackgroundImageFix"/>
<feColorMatrix in="SourceAlpha" type="matrix" values="0 0 0 0 0 0 0 0 0 0 0 0 0 0 0 0 0 0 127 0"/>
<feOffset dy="5"/>
<feGaussianBlur stdDeviation="5.5"/>
<feColorMatrix type="matrix" values="0 0 0 0 1 0 0 0 0 0.8 0 0 0 0 0 0 0 0 0.3 0"/>
<feBlend mode="normal" in2="BackgroundImageFix" result="effect1_dropShadow"/>
<feBlend mode="normal" in="SourceGraphic" in2="effect1_dropShadow" result="shape"/>
</filter>
<linearGradient id="paint0_linear" x1="70.3243" y1="81.982" x2="310.052" y2="273.567" gradientUnits="userSpaceOnUse">
<stop stop-color="#FFDD00"/>
<stop offset="1" stop-color="#E30613"/>
</linearGradient>
<linearGradient id="paint1_linear" x1="131.5" y1="25.9998" x2="105.5" y2="111.5" gradientUnits="userSpaceOnUse">
<stop stop-color="white"/>
<stop offset="1" stop-color="white" stop-opacity="0"/>
</linearGradient>
<linearGradient id="paint2_linear" x1="14.0508" y1="50.9974" x2="36.934" y2="44.9349" gradientUnits="userSpaceOnUse">
<stop stop-color="#FFDD00"/>
<stop offset="1" stop-color="#E30613"/>
</linearGradient>
<linearGradient id="paint3_linear" x1="192.289" y1="125.525" x2="209.109" y2="138.709" gradientUnits="userSpaceOnUse">
<stop stop-color="#FFDD00"/>
<stop offset="1" stop-color="#E30613"/>
</linearGradient>
<linearGradient id="paint4_linear" x1="44.3633" y1="68.9407" x2="53.3187" y2="71.631" gradientUnits="userSpaceOnUse">
<stop stop-color="#FFDD00"/>
<stop offset="1" stop-color="#E30613"/>
</linearGradient>
<linearGradient id="paint5_linear" x1="44.3633" y1="68.9407" x2="53.3187" y2="71.631" gradientUnits="userSpaceOnUse">
<stop stop-color="#FFDD00"/>
<stop offset="1" stop-color="#E30613"/>
</linearGradient>
<linearGradient id="paint6_linear" x1="28.8522" y1="139.317" x2="45.4259" y2="131.748" gradientUnits="userSpaceOnUse">
<stop stop-color="#FFDD00"/>
<stop offset="1" stop-color="#E30613"/>
</linearGradient>
<linearGradient id="paint7_linear" x1="28.8522" y1="139.317" x2="45.4259" y2="131.748" gradientUnits="userSpaceOnUse">
<stop stop-color="#FFDD00"/>
<stop offset="1" stop-color="#E30613"/>
</linearGradient>
</defs>
</svg>
