<svg width="215" height="142" viewBox="0 0 215 142" fill="none" xmlns="http://www.w3.org/2000/svg">
<g filter="url(#filter0_d)">
<path d="M113.999 33C101.711 33 90.1536 37.8329 81.4573 46.6149C63.5181 64.7474 63.5104 94.2483 81.4573 112.385C90.14 121.165 101.698 125.998 113.991 126C126.284 125.998 137.845 121.161 146.539 112.377C164.487 94.2442 164.487 64.7433 146.539 46.6149C137.855 37.8369 126.294 33 113.999 33ZM113.999 40.8973H114.015C124.22 40.8973 133.815 44.9131 141.03 52.1985C155.924 67.2469 155.924 91.741 141.03 106.793C133.807 114.087 124.212 118.102 113.999 118.102C103.795 118.102 94.1994 114.09 86.9847 106.801C72.0821 91.7447 72.0821 67.251 86.9847 52.1985C94.1994 44.9131 103.794 40.8973 113.999 40.8973Z" fill="#FFCC00"/>
</g>
<path d="M127.679 61.3595C128.448 60.4155 129.564 59.9213 130.691 59.9163C131.567 59.9124 132.45 60.2042 133.182 60.8106C134.855 62.1965 135.089 64.6802 133.725 66.3704L111.35 93.9281C110.638 94.8048 109.595 95.3258 108.473 95.3693C108.434 95.3776 108.387 95.3776 108.333 95.3776C107.265 95.3776 106.242 94.9353 105.499 94.1497L95.3606 83.3934C93.8716 81.814 93.9342 79.3143 95.4975 77.8098C97.0531 76.3054 99.5272 76.3645 101.024 77.9481L108.114 85.4663L127.679 61.3595Z" fill="#060606"/>
<path d="M127.679 61.3595C128.448 60.4155 129.564 59.9213 130.691 59.9163C131.567 59.9124 132.45 60.2042 133.182 60.8106C134.855 62.1965 135.089 64.6802 133.725 66.3704L111.35 93.9281C110.638 94.8048 109.595 95.3258 108.473 95.3693C108.434 95.3776 108.387 95.3776 108.333 95.3776C107.265 95.3776 106.242 94.9353 105.499 94.1497L95.3606 83.3934C93.8716 81.814 93.9342 79.3143 95.4975 77.8098C97.0531 76.3054 99.5272 76.3645 101.024 77.9481L108.114 85.4663L127.679 61.3595Z" fill="url(#paint0_linear)"/>
<g filter="url(#filter1_d)">
<path d="M30.5072 26.0431C30.7859 25.3644 31.3428 24.8846 31.9915 24.6849C32.4961 24.5295 33.0562 24.5435 33.5841 24.7653C34.7907 25.2722 35.3599 26.6632 34.8686 27.876L26.7816 47.6739C26.5246 48.3036 26.0141 48.7862 25.3748 49.0073C25.3538 49.0189 25.3267 49.0271 25.2953 49.0367C24.68 49.2231 24.0124 49.1469 23.447 48.8237L15.7225 44.393C14.588 43.7425 14.1874 42.2903 14.826 41.1497C15.4601 40.0106 16.8969 39.6125 18.0365 40.264L23.4377 43.3603L30.5072 26.0431Z" fill="#FFCC00"/>
</g>
<path opacity="0.25" d="M210.576 118.329C211.216 118.161 211.865 118.301 212.362 118.659C212.748 118.938 213.043 119.349 213.171 119.85C213.462 120.995 212.77 122.162 211.629 122.468L192.968 127.417C192.374 127.575 191.749 127.469 191.242 127.129C191.222 127.12 191.201 127.105 191.177 127.088C190.708 126.746 190.4 126.224 190.325 125.641L189.313 117.666C189.164 116.494 189.992 115.416 191.161 115.255C192.326 115.092 193.395 115.91 193.546 117.085L194.255 122.661L210.576 118.329Z" fill="#FFCC00"/>
<path d="M52.433 55.7805L52.4326 55.7808L46.7034 59.9792L45.6624 58.0712L45.6623 58.0709C45.3471 57.4949 44.628 57.2864 44.0569 57.6072C43.4869 57.926 43.278 58.6481 43.591 59.222C43.591 59.222 43.591 59.222 43.591 59.222L45.2749 62.3102L45.2751 62.3105C45.4313 62.5959 45.6963 62.8041 46.0091 62.8861C46.0093 62.8862 46.0098 62.8863 46.0104 62.8865C46.0166 62.8882 46.0381 62.8941 46.0646 62.8978C46.3917 62.9663 46.7313 62.8932 47.0023 62.6945L53.8172 57.7028L53.8178 57.7023C54.3426 57.3155 54.4654 56.5754 54.0833 56.0428C53.9161 55.8097 53.6799 55.6563 53.4232 55.5901C53.0936 55.5052 52.7296 55.5642 52.433 55.7805Z" fill="#FFCC00" stroke="#FFCC00" stroke-width="0.5"/>
<path opacity="0.2" d="M39.412 115.299L39.4121 115.299C39.5523 114.673 39.9624 114.176 40.4931 113.907C40.9063 113.699 41.3928 113.628 41.8811 113.742C42.9972 114.001 43.6911 115.116 43.4469 116.232L43.4467 116.232L39.8801 132.301C39.7525 132.877 39.3882 133.366 38.876 133.653C38.8458 133.673 38.8157 133.688 38.8012 133.695C38.7997 133.696 38.7983 133.697 38.7971 133.698C38.2924 133.95 37.7046 133.982 37.1697 133.787L37.1694 133.787L30.7344 131.428C30.7344 131.428 30.7343 131.428 30.7343 131.428C29.6606 131.034 29.1017 129.843 29.4838 128.765C29.4838 128.765 29.4838 128.765 29.4839 128.765L29.7195 128.849C30.0527 127.902 31.0911 127.414 32.0402 127.76L39.412 115.299ZM39.412 115.299L36.3573 129.076L39.412 115.299Z" fill="#FFCC00" stroke="#FFCC00" stroke-width="0.5"/>
<defs>
<filter id="filter0_d" x="57" y="27" width="114" height="115" filterUnits="userSpaceOnUse" color-interpolation-filters="sRGB">
<feFlood flood-opacity="0" result="BackgroundImageFix"/>
<feColorMatrix in="SourceAlpha" type="matrix" values="0 0 0 0 0 0 0 0 0 0 0 0 0 0 0 0 0 0 127 0"/>
<feOffset dy="5"/>
<feGaussianBlur stdDeviation="5.5"/>
<feColorMatrix type="matrix" values="0 0 0 0 1 0 0 0 0 0.8 0 0 0 0 0 0 0 0 0.3 0"/>
<feBlend mode="normal" in2="BackgroundImageFix" result="effect1_dropShadow"/>
<feBlend mode="normal" in="SourceGraphic" in2="effect1_dropShadow" result="shape"/>
</filter>
<filter id="filter1_d" x="0" y="18" width="51.4467" height="49.491" filterUnits="userSpaceOnUse" color-interpolation-filters="sRGB">
<feFlood flood-opacity="0" result="BackgroundImageFix"/>
<feColorMatrix in="SourceAlpha" type="matrix" values="0 0 0 0 0 0 0 0 0 0 0 0 0 0 0 0 0 0 127 0"/>
<feOffset dy="5"/>
<feGaussianBlur stdDeviation="5.5"/>
<feColorMatrix type="matrix" values="0 0 0 0 1 0 0 0 0 0.8 0 0 0 0 0 0 0 0 0.3 0"/>
<feBlend mode="normal" in2="BackgroundImageFix" result="effect1_dropShadow"/>
<feBlend mode="normal" in="SourceGraphic" in2="effect1_dropShadow" result="shape"/>
</filter>
<linearGradient id="paint0_linear" x1="131.5" y1="14" x2="105.5" y2="99.5" gradientUnits="userSpaceOnUse">
<stop stop-color="white"/>
<stop offset="1" stop-color="white" stop-opacity="0"/>
</linearGradient>
</defs>
</svg>
