<svg width="194" height="41" viewBox="0 0 194 41" fill="none" xmlns="http://www.w3.org/2000/svg">
<path d="M193.81 9.77344V10.7585C193.81 11.1016 193.76 11.323 193.65 11.4448C193.54 11.5665 193.34 11.6218 193.03 11.6218H188.08V31.2236C188.08 31.5667 188.03 31.7881 187.92 31.9098C187.81 32.0316 187.61 32.0869 187.3 32.0869H185.77V11.6218V10.6368C185.77 10.2936 185.82 10.0723 185.93 9.95053C186.04 9.82878 186.24 9.77344 186.55 9.77344H193.81Z" fill="#0D0E0F"/>
<path d="M174.03 20.3325L171.81 22.7896L170.18 20.9855L172.91 17.9639L173.99 19.1593C174.21 19.4028 174.32 19.5909 174.34 19.7459C174.35 19.9008 174.25 20.1001 174.03 20.3325ZM170.18 19.5909V9.77344H168.65C168.34 9.77344 168.14 9.82878 168.03 9.95053C167.92 10.0723 167.87 10.2936 167.87 10.6368V32.0869H169.4C169.71 32.0869 169.91 32.0316 170.02 31.9098C170.13 31.7881 170.18 31.5667 170.18 31.2236V21.4393V19.5909ZM176.54 9.77344C176.23 9.77344 176.03 9.82878 175.92 9.95053C175.81 10.0723 175.76 10.2936 175.76 10.6368V32.0869H177.29C177.6 32.0869 177.8 32.0316 177.91 31.9098C178.02 31.7881 178.07 31.5667 178.07 31.2236V9.77344H176.54Z" fill="#0D0E0F"/>
<path d="M157.84 9.77344H159.39C159.7 9.77344 159.9 9.82878 160.01 9.95053C160.12 10.0723 160.17 10.2936 160.17 10.6368V32.0869H158.64C158.33 32.0869 158.13 32.0316 158.02 31.9098C157.91 31.7881 157.86 31.5667 157.86 31.2236V18.0303L158.29 13.5698H158.12L156.51 18.7055L151.18 32.0869H149.68C149.37 32.0869 149.17 32.0316 149.06 31.9098C148.95 31.7881 148.9 31.5667 148.9 31.2236V9.77344H150.43C150.74 9.77344 150.94 9.82878 151.05 9.95053C151.16 10.0723 151.21 10.2936 151.21 10.6368V23.3209L150.75 28.1688H150.92L152.5 23.4205L157.84 9.77344Z" fill="#0D0E0F"/>
<path d="M136.05 32.0869C135.74 32.0869 135.55 32.0316 135.46 31.9098C135.37 31.7881 135.33 31.5667 135.33 31.2236V30.2385H137.55C138.14 30.2385 138.52 30.1057 138.67 29.829C138.82 29.5523 138.9 29.0874 138.9 28.4234V23.2545C138.9 22.6015 138.82 22.1256 138.67 21.8489C138.52 21.5721 138.14 21.4393 137.55 21.4393H134.18V32.0869H131.88V10.6368C131.88 10.2936 131.93 10.0723 132.04 9.95053C132.15 9.82878 132.35 9.77344 132.66 9.77344H138.48C139.48 9.77344 140.18 10.0059 140.6 10.4597C141.01 10.9135 141.22 11.6993 141.22 12.8061V17.4548C141.22 19.0929 140.69 20.0447 139.64 20.3214V20.3878C140.2 20.5539 140.6 20.8638 140.85 21.3065C141.1 21.7492 141.22 22.4023 141.22 23.2545V29.0542C141.22 30.1611 141.01 30.9358 140.6 31.4007C140.19 31.8545 139.48 32.0869 138.48 32.0869H136.05ZM134.18 11.6218V19.5909H137.72C138.22 19.5688 138.54 19.4138 138.68 19.1261C138.82 18.8383 138.9 18.3845 138.9 17.7758V13.437C138.9 12.784 138.82 12.3081 138.67 12.0314C138.52 11.7547 138.14 11.6218 137.55 11.6218H134.18Z" fill="#0D0E0F"/>
<path d="M120.31 8.28998L118.09 10.7471L116.46 8.943L119.19 5.92139L120.27 7.11675C120.49 7.36025 120.6 7.54841 120.62 7.70336C120.63 7.84725 120.53 8.04648 120.31 8.28998ZM121.63 9.77311H123.18C123.49 9.77311 123.69 9.82846 123.8 9.95021C123.91 10.072 123.96 10.2933 123.96 10.6364V32.0866H122.43C122.12 32.0866 121.92 32.0312 121.81 31.9095C121.7 31.7877 121.65 31.5664 121.65 31.2233V18.03L122.08 13.5695H121.91L120.3 18.7051L114.97 32.0866H113.47C113.16 32.0866 112.96 32.0312 112.85 31.9095C112.74 31.7877 112.69 31.5664 112.69 31.2233V9.77311H114.22C114.53 9.77311 114.73 9.82846 114.84 9.95021C114.95 10.072 115 10.2933 115 10.6364V23.3206L114.54 28.1684H114.71L116.29 23.4202L121.63 9.77311Z" fill="#0D0E0F"/>
<path d="M85.27 32.0869C84.27 32.0869 83.57 31.8545 83.15 31.4007C82.74 30.9469 82.53 30.1611 82.53 29.0542V12.8061C82.53 11.6993 82.74 10.9245 83.15 10.4597C83.56 10.0059 84.27 9.77344 85.27 9.77344H88.98C89.54 9.77344 89.93 9.92839 90.18 10.2383C90.42 10.5482 90.6 11.0131 90.71 11.6218H86.19C85.59 11.6218 85.22 11.7657 85.07 12.0314C84.92 12.3081 84.84 12.7729 84.84 13.437V28.4123C84.84 29.0764 84.92 29.5412 85.07 29.8179C85.22 30.0946 85.6 30.2275 86.19 30.2275H90.71V31.2125C90.71 31.5556 90.67 31.777 90.58 31.8988C90.49 32.0205 90.3 32.0759 89.99 32.0759L85.27 32.0869Z" fill="#0D0E0F"/>
<path d="M70.79 20.3325L68.57 22.7896L66.94 20.9855L69.67 17.9639L70.75 19.1593C70.97 19.4028 71.08 19.5909 71.1 19.7459C71.11 19.9008 71.01 20.1001 70.79 20.3325ZM66.94 19.5909V9.77344H65.41C65.1 9.77344 64.9 9.82878 64.79 9.95053C64.68 10.0723 64.63 10.2936 64.63 10.6368V32.0869H66.16C66.47 32.0869 66.67 32.0316 66.78 31.9098C66.89 31.7881 66.94 31.5667 66.94 31.2236V21.4393V19.5909ZM73.3 9.77344C72.99 9.77344 72.79 9.82878 72.68 9.95053C72.57 10.0723 72.52 10.2936 72.52 10.6368V32.0869H74.05C74.36 32.0869 74.56 32.0316 74.67 31.9098C74.78 31.7881 74.83 31.5667 74.83 31.2236V9.77344H73.3Z" fill="#0D0E0F"/>
<path d="M56.31 10.4597C55.9 10.0059 55.19 9.77344 54.19 9.77344H50.48C49.92 9.77344 49.53 9.92839 49.28 10.2383C49.04 10.5482 48.86 11.0131 48.75 11.6218H53.27C53.87 11.6218 54.24 11.7657 54.39 12.0314C54.54 12.3081 54.62 12.7729 54.62 13.437V19.5909H49.98V20.576C49.98 20.9191 50.02 21.1405 50.11 21.2622C50.2 21.384 50.39 21.4393 50.7 21.4393H54.62V28.4234C54.62 29.0874 54.54 29.5523 54.39 29.829C54.24 30.1057 53.86 30.2385 53.27 30.2385H48.75V31.2236C48.75 31.5667 48.79 31.7881 48.88 31.9098C48.97 32.0316 49.16 32.0869 49.47 32.0869H54.19C55.19 32.0869 55.89 31.8545 56.31 31.4007C56.72 30.9469 56.93 30.1611 56.93 29.0542V12.8061C56.93 11.6993 56.73 10.9135 56.31 10.4597Z" fill="#0D0E0F"/>
<path d="M104.33 10.4597C103.92 10.0059 103.21 9.77344 102.21 9.77344H98.5C97.94 9.77344 97.55 9.92839 97.3 10.2383C97.06 10.5482 96.88 11.0131 96.77 11.6218H101.29C101.89 11.6218 102.26 11.7657 102.41 12.0314C102.56 12.3081 102.64 12.7729 102.64 13.437V19.5909H98V20.576C98 20.9191 98.04 21.1405 98.13 21.2622C98.22 21.384 98.41 21.4393 98.72 21.4393H102.64V28.4234C102.64 29.0874 102.56 29.5523 102.41 29.829C102.26 30.1057 101.88 30.2385 101.29 30.2385H96.77V31.2236C96.77 31.5667 96.81 31.7881 96.9 31.9098C96.99 32.0316 97.18 32.0869 97.49 32.0869H102.21C103.21 32.0869 103.91 31.8545 104.33 31.4007C104.74 30.9469 104.95 30.1611 104.95 29.0542V12.8061C104.95 11.6993 104.74 10.9135 104.33 10.4597Z" fill="#0D0E0F"/>
<path d="M2.62 40.5206L0 37.6207L17 18.8048L19.62 21.7047L2.62 40.5206ZM19.62 2.89986L17 0L0 18.8159L2.62 21.7047L19.62 2.89986ZM19.62 12.3078L17 9.40795L0 28.2239L2.62 31.1237L19.62 12.3078Z" fill="url(#paint0_linear)"/>
<path d="M22.78 18.2072L36.61 2.89986L33.99 0L17 18.8159L18.31 22.3135H30.83L17 37.6207L19.62 40.5206L36.61 21.7047L35.3 18.2072H22.78Z" fill="url(#paint1_linear)"/>
<defs>
<linearGradient id="paint0_linear" x1="0.495686" y1="16.1133" x2="37.507" y2="63.9946" gradientUnits="userSpaceOnUse">
<stop stop-color="#FFDD00"/>
<stop offset="1" stop-color="#E30613"/>
</linearGradient>
<linearGradient id="paint1_linear" x1="17.4954" y1="16.1133" x2="57.5044" y2="43.4935" gradientUnits="userSpaceOnUse">
<stop stop-color="#FFDD00"/>
<stop offset="1" stop-color="#E30613"/>
</linearGradient>
</defs>
</svg>
